<ttFont>
    <TTGlyph name="A" xMin="-111" yMin="-87" xMax="814" yMax="760">
      <contour>
        <pt x="172" y="25" on="1"/>
        <pt x="152" y="25" on="0"/>
        <pt x="133" y="8" on="0"/>
        <pt x="129" y="-5" on="1"/>
        <pt x="117" y="-2" on="0"/>
        <pt x="86" y="-6" on="0"/>
        <pt x="55" y="-10" on="0"/>
        <pt x="26" y="-11" on="0"/>
        <pt x="16" y="-5" on="1"/>
        <pt x="11" y="-2" on="0"/>
        <pt x="5" y="9" on="0"/>
        <pt x="1" y="14" on="1"/>
        <pt x="-3" y="20" on="0"/>
        <pt x="-12" y="30" on="0"/>
        <pt x="-13" y="35" on="1"/>
        <pt x="-15" y="41" on="0"/>
        <pt x="-5" y="64" on="0"/>
        <pt x="-1" y="69" on="1"/>
        <pt x="3" y="72" on="0"/>
        <pt x="14" y="76" on="0"/>
        <pt x="19" y="80" on="1"/>
        <pt x="33" y="91" on="0"/>
        <pt x="46" y="124" on="0"/>
        <pt x="51" y="134" on="1"/>
        <pt x="58" y="139" on="0"/>
        <pt x="77" y="150" on="0"/>
        <pt x="75" y="159" on="1"/>
        <pt x="66" y="164" on="0"/>
        <pt x="42" y="163" on="0"/>
        <pt x="30" y="164" on="1"/>
        <pt x="10" y="164" on="0"/>
        <pt x="-30" y="170" on="0"/>
        <pt x="-46" y="172" on="1"/>
        <pt x="-72" y="177" on="0"/>
        <pt x="-111" y="215" on="0"/>
        <pt x="-108" y="244" on="1"/>
        <pt x="-101" y="247" on="0"/>
        <pt x="-84" y="247" on="0"/>
        <pt x="-65" y="245" on="0"/>
        <pt x="-46" y="244" on="0"/>
        <pt x="-38" y="247" on="1"/>
        <pt x="-29" y="241" on="0"/>
        <pt x="-14" y="241" on="0"/>
        <pt x="-1" y="247" on="0"/>
        <pt x="11" y="254" on="0"/>
        <pt x="16" y="255" on="1"/>
        <pt x="21" y="256" on="0"/>
        <pt x="29" y="254" on="0"/>
        <pt x="34" y="254" on="1"/>
        <pt x="42" y="254" on="0"/>
        <pt x="58" y="259" on="0"/>
        <pt x="69" y="261" on="1"/>
        <pt x="84" y="263" on="0"/>
        <pt x="116" y="264" on="0"/>
        <pt x="127" y="269" on="1"/>
        <pt x="134" y="272" on="0"/>
        <pt x="152" y="287" on="0"/>
        <pt x="156" y="293" on="1"/>
        <pt x="158" y="298" on="0"/>
        <pt x="157" y="307" on="0"/>
        <pt x="159" y="312" on="1"/>
        <pt x="164" y="329" on="0"/>
        <pt x="189" y="355" on="0"/>
        <pt x="197" y="371" on="1"/>
        <pt x="200" y="379" on="0"/>
        <pt x="203" y="387" on="0"/>
        <pt x="205" y="393" on="0"/>
        <pt x="208" y="401" on="0"/>
        <pt x="213" y="409" on="1"/>
        <pt x="222" y="423" on="0"/>
        <pt x="241" y="449" on="0"/>
        <pt x="254" y="461" on="1"/>
        <pt x="254" y="467" on="0"/>
        <pt x="258" y="476" on="0"/>
        <pt x="260" y="481" on="1"/>
        <pt x="287" y="492" on="0"/>
        <pt x="321" y="528" on="0"/>
        <pt x="338" y="548" on="1"/>
        <pt x="337" y="558" on="0"/>
        <pt x="347" y="567" on="0"/>
        <pt x="347" y="577" on="1"/>
        <pt x="347" y="582" on="0"/>
        <pt x="340" y="595" on="0"/>
        <pt x="340" y="602" on="1"/>
        <pt x="340" y="610" on="0"/>
        <pt x="353" y="627" on="0"/>
        <pt x="358" y="634" on="1"/>
        <pt x="366" y="642" on="0"/>
        <pt x="375" y="658" on="0"/>
        <pt x="380" y="665" on="1"/>
        <pt x="388" y="674" on="0"/>
        <pt x="405" y="688" on="0"/>
        <pt x="413" y="698" on="1"/>
        <pt x="417" y="704" on="0"/>
        <pt x="422" y="719" on="0"/>
        <pt x="428" y="723" on="1"/>
        <pt x="437" y="729" on="0"/>
        <pt x="469" y="731" on="0"/>
        <pt x="485" y="732" on="1"/>
        <pt x="504" y="733" on="0"/>
        <pt x="549" y="740" on="0"/>
        <pt x="594" y="748" on="0"/>
        <pt x="637" y="755" on="0"/>
        <pt x="655" y="756" on="1"/>
        <pt x="673" y="758" on="0"/>
        <pt x="706" y="756" on="0"/>
        <pt x="716" y="760" on="1"/>
        <pt x="730" y="748" on="0"/>
        <pt x="759" y="725" on="0"/>
        <pt x="772" y="712" on="1"/>
        <pt x="776" y="692" on="0"/>
        <pt x="782" y="658" on="0"/>
        <pt x="780" y="641" on="1"/>
        <pt x="778" y="633" on="0"/>
        <pt x="769" y="619" on="0"/>
        <pt x="770" y="610" on="1"/>
        <pt x="770" y="595" on="0"/>
        <pt x="788" y="566" on="0"/>
        <pt x="792" y="549" on="1"/>
        <pt x="793" y="541" on="0"/>
        <pt x="786" y="526" on="0"/>
        <pt x="785" y="518" on="1"/>
        <pt x="784" y="510" on="0"/>
        <pt x="788" y="491" on="0"/>
        <pt x="790" y="481" on="1"/>
        <pt x="790" y="469" on="0"/>
        <pt x="788" y="445" on="0"/>
        <pt x="790" y="432" on="1"/>
        <pt x="792" y="419" on="0"/>
        <pt x="798" y="392" on="0"/>
        <pt x="797" y="378" on="1"/>
        <pt x="795" y="364" on="0"/>
        <pt x="788" y="340" on="0"/>
        <pt x="788" y="327" on="1"/>
        <pt x="787" y="309" on="0"/>
        <pt x="793" y="276" on="0"/>
        <pt x="788" y="259" on="1"/>
        <pt x="796" y="249" on="0"/>
        <pt x="797" y="229" on="0"/>
        <pt x="793" y="209" on="0"/>
        <pt x="789" y="188" on="0"/>
        <pt x="793" y="177" on="1"/>
        <pt x="795" y="170" on="0"/>
        <pt x="807" y="159" on="0"/>
        <pt x="809" y="151" on="1"/>
        <pt x="812" y="141" on="0"/>
        <pt x="813" y="112" on="0"/>
        <pt x="813" y="99" on="1"/>
        <pt x="814" y="67" on="0"/>
        <pt x="801" y="17" on="0"/>
        <pt x="800" y="-12" on="1"/>
        <pt x="800" y="-25" on="0"/>
        <pt x="799" y="-57" on="0"/>
        <pt x="794" y="-66" on="1"/>
        <pt x="789" y="-72" on="0"/>
        <pt x="767" y="-85" on="0"/>
        <pt x="759" y="-86" on="1"/>
        <pt x="744" y="-87" on="0"/>
        <pt x="705" y="-69" on="0"/>
        <pt x="695" y="-59" on="1"/>
        <pt x="686" y="-49" on="0"/>
        <pt x="671" y="-25" on="0"/>
        <pt x="656" y="1" on="0"/>
        <pt x="640" y="24" on="0"/>
        <pt x="630" y="32" on="1"/>
        <pt x="625" y="35" on="0"/>
        <pt x="613" y="41" on="0"/>
        <pt x="610" y="45" on="1"/>
        <pt x="604" y="55" on="0"/>
        <pt x="603" y="80" on="0"/>
        <pt x="606" y="107" on="0"/>
        <pt x="609" y="133" on="0"/>
        <pt x="606" y="143" on="1"/>
        <pt x="603" y="153" on="0"/>
        <pt x="593" y="164" on="0"/>
        <pt x="578" y="169" on="0"/>
        <pt x="559" y="170" on="0"/>
        <pt x="546" y="171" on="1"/>
        <pt x="499" y="174" on="0"/>
        <pt x="399" y="180" on="0"/>
        <pt x="347" y="179" on="1"/>
        <pt x="336" y="179" on="0"/>
        <pt x="326" y="177" on="0"/>
        <pt x="318" y="176" on="0"/>
        <pt x="310" y="174" on="0"/>
        <pt x="301" y="174" on="1"/>
        <pt x="281" y="173" on="0"/>
        <pt x="249" y="170" on="0"/>
        <pt x="237" y="161" on="1"/>
        <pt x="230" y="156" on="0"/>
        <pt x="214" y="126" on="0"/>
        <pt x="210" y="118" on="1"/>
        <pt x="205" y="106" on="0"/>
        <pt x="198" y="80" on="0"/>
        <pt x="191" y="55" on="0"/>
        <pt x="181" y="33" on="0"/>
      </contour>
      <contour>
        <pt x="426" y="289" on="1"/>
        <pt x="460" y="290" on="0"/>
        <pt x="523" y="291" on="0"/>
        <pt x="551" y="293" on="1"/>
        <pt x="555" y="295" on="0"/>
        <pt x="562" y="297" on="0"/>
        <pt x="570" y="295" on="1"/>
        <pt x="570" y="300" on="0"/>
        <pt x="580" y="301" on="0"/>
        <pt x="583" y="303" on="1"/>
        <pt x="587" y="310" on="0"/>
        <pt x="587" y="319" on="0"/>
        <pt x="584" y="326" on="0"/>
        <pt x="579" y="335" on="0"/>
        <pt x="579" y="343" on="1"/>
        <pt x="579" y="351" on="0"/>
        <pt x="584" y="368" on="0"/>
        <pt x="585" y="377" on="1"/>
        <pt x="586" y="384" on="0"/>
        <pt x="581" y="400" on="0"/>
        <pt x="582" y="408" on="1"/>
        <pt x="583" y="415" on="0"/>
        <pt x="593" y="426" on="0"/>
        <pt x="593" y="433" on="1"/>
        <pt x="593" y="437" on="0"/>
        <pt x="590" y="447" on="0"/>
        <pt x="589" y="452" on="1"/>
        <pt x="588" y="459" on="0"/>
        <pt x="589" y="473" on="0"/>
        <pt x="587" y="478" on="1"/>
        <pt x="585" y="486" on="0"/>
        <pt x="569" y="500" on="0"/>
        <pt x="567" y="508" on="1"/>
        <pt x="564" y="518" on="0"/>
        <pt x="569" y="543" on="0"/>
        <pt x="569" y="555" on="1"/>
        <pt x="568" y="572" on="0"/>
        <pt x="564" y="600" on="0"/>
        <pt x="556" y="614" on="1"/>
        <pt x="545" y="620" on="0"/>
        <pt x="534" y="617" on="0"/>
        <pt x="527" y="606" on="0"/>
        <pt x="522" y="592" on="0"/>
        <pt x="516" y="587" on="1"/>
        <pt x="489" y="563" on="0"/>
        <pt x="459" y="514" on="0"/>
        <pt x="437" y="485" on="1"/>
        <pt x="428" y="474" on="0"/>
        <pt x="409" y="452" on="0"/>
        <pt x="394" y="426" on="0"/>
        <pt x="386" y="398" on="0"/>
        <pt x="388" y="381" on="1"/>
        <pt x="383" y="373" on="0"/>
        <pt x="376" y="366" on="0"/>
        <pt x="368" y="360" on="0"/>
        <pt x="359" y="352" on="0"/>
        <pt x="353" y="345" on="1"/>
        <pt x="342" y="331" on="0"/>
        <pt x="316" y="302" on="0"/>
        <pt x="312" y="285" on="1"/>
        <pt x="330" y="280" on="0"/>
        <pt x="356" y="280" on="0"/>
        <pt x="381" y="283" on="0"/>
        <pt x="408" y="288" on="0"/>
      </contour>
    </TTGlyph>
    <TTGlyph name="AE" xMin="-114" yMin="-87" xMax="1425" yMax="760">
      <contour>
        <pt x="1421" y="733" on="1"/>
        <pt x="1425" y="720" on="0"/>
        <pt x="1410" y="702" on="0"/>
        <pt x="1401" y="697" on="1"/>
        <pt x="1378" y="684" on="0"/>
        <pt x="1323" y="667" on="0"/>
        <pt x="1300" y="653" on="1"/>
        <pt x="1287" y="645" on="0"/>
        <pt x="1264" y="623" on="0"/>
        <pt x="1247" y="617" on="1"/>
        <pt x="1230" y="612" on="0"/>
        <pt x="1190" y="610" on="0"/>
        <pt x="1167" y="608" on="1"/>
        <pt x="1145" y="606" on="0"/>
        <pt x="1101" y="596" on="0"/>
        <pt x="1082" y="598" on="1"/>
        <pt x="1074" y="599" on="0"/>
        <pt x="1057" y="604" on="0"/>
        <pt x="1049" y="605" on="1"/>
        <pt x="1040" y="606" on="0"/>
        <pt x="1021" y="602" on="0"/>
        <pt x="1012" y="601" on="1"/>
        <pt x="1006" y="600" on="0"/>
        <pt x="991" y="602" on="0"/>
        <pt x="984" y="601" on="1"/>
        <pt x="965" y="599" on="0"/>
        <pt x="922" y="592" on="0"/>
        <pt x="915" y="578" on="1"/>
        <pt x="910" y="549" on="0"/>
        <pt x="894" y="499" on="0"/>
        <pt x="886" y="474" on="1"/>
        <pt x="881" y="461" on="0"/>
        <pt x="868" y="431" on="0"/>
        <pt x="874" y="417" on="1"/>
        <pt x="918" y="410" on="0"/>
        <pt x="1001" y="420" on="0"/>
        <pt x="1039" y="417" on="1"/>
        <pt x="1051" y="416" on="0"/>
        <pt x="1076" y="413" on="0"/>
        <pt x="1087" y="411" on="1"/>
        <pt x="1096" y="409" on="0"/>
        <pt x="1113" y="394" on="0"/>
        <pt x="1121" y="392" on="1"/>
        <pt x="1136" y="389" on="0"/>
        <pt x="1161" y="392" on="0"/>
        <pt x="1174" y="390" on="1"/>
        <pt x="1183" y="385" on="0"/>
        <pt x="1193" y="366" on="0"/>
        <pt x="1202" y="360" on="1"/>
        <pt x="1208" y="355" on="0"/>
        <pt x="1224" y="355" on="0"/>
        <pt x="1230" y="349" on="1"/>
        <pt x="1230" y="334" on="0"/>
        <pt x="1220" y="317" on="0"/>
        <pt x="1203" y="311" on="0"/>
        <pt x="1181" y="311" on="0"/>
        <pt x="1168" y="312" on="1"/>
        <pt x="1151" y="314" on="0"/>
        <pt x="1104" y="313" on="0"/>
        <pt x="1083" y="312" on="1"/>
        <pt x="1071" y="312" on="0"/>
        <pt x="1047" y="310" on="0"/>
        <pt x="1036" y="312" on="1"/>
        <pt x="1028" y="314" on="0"/>
        <pt x="1016" y="327" on="0"/>
        <pt x="1006" y="328" on="1"/>
        <pt x="996" y="330" on="0"/>
        <pt x="974" y="323" on="0"/>
        <pt x="964" y="321" on="1"/>
        <pt x="932" y="315" on="0"/>
        <pt x="874" y="298" on="0"/>
        <pt x="845" y="292" on="1"/>
        <pt x="823" y="251" on="0"/>
        <pt x="814" y="196" on="1"/>
        <pt x="812" y="184" on="0"/>
        <pt x="807" y="160" on="0"/>
        <pt x="809" y="141" on="0"/>
        <pt x="821" y="129" on="0"/>
        <pt x="836" y="129" on="1"/>
        <pt x="849" y="129" on="0"/>
        <pt x="879" y="133" on="0"/>
        <pt x="910" y="137" on="0"/>
        <pt x="943" y="138" on="0"/>
        <pt x="959" y="134" on="1"/>
        <pt x="970" y="132" on="0"/>
        <pt x="987" y="118" on="0"/>
        <pt x="998" y="119" on="1"/>
        <pt x="1006" y="120" on="0"/>
        <pt x="1021" y="135" on="0"/>
        <pt x="1029" y="138" on="1"/>
        <pt x="1041" y="143" on="0"/>
        <pt x="1072" y="144" on="0"/>
        <pt x="1105" y="143" on="0"/>
        <pt x="1140" y="140" on="0"/>
        <pt x="1156" y="140" on="1"/>
        <pt x="1185" y="140" on="0"/>
        <pt x="1250" y="136" on="0"/>
        <pt x="1273" y="128" on="1"/>
        <pt x="1281" y="115" on="0"/>
        <pt x="1268" y="89" on="0"/>
        <pt x="1254" y="87" on="1"/>
        <pt x="1243" y="70" on="0"/>
        <pt x="1215" y="56" on="0"/>
        <pt x="1191" y="48" on="1"/>
        <pt x="1172" y="43" on="0"/>
        <pt x="1147" y="27" on="0"/>
        <pt x="1124" y="26" on="1"/>
        <pt x="1095" y="26" on="0"/>
        <pt x="1038" y="27" on="0"/>
        <pt x="1009" y="22" on="1"/>
        <pt x="989" y="18" on="0"/>
        <pt x="952" y="8" on="0"/>
        <pt x="932" y="5" on="1"/>
        <pt x="882" y="-3" on="0"/>
        <pt x="788" y="-25" on="0"/>
        <pt x="735" y="-27" on="1"/>
        <pt x="731" y="-28" on="0"/>
        <pt x="724" y="-28" on="0"/>
        <pt x="719" y="-29" on="1"/>
        <pt x="716" y="-40" on="0"/>
        <pt x="707" y="-59" on="0"/>
        <pt x="701" y="-66" on="1"/>
        <pt x="695" y="-72" on="0"/>
        <pt x="667" y="-85" on="0"/>
        <pt x="659" y="-86" on="1"/>
        <pt x="645" y="-87" on="0"/>
        <pt x="611" y="-69" on="0"/>
        <pt x="605" y="-59" on="1"/>
        <pt x="599" y="-49" on="0"/>
        <pt x="591" y="-25" on="0"/>
        <pt x="585" y="1" on="0"/>
        <pt x="576" y="24" on="0"/>
        <pt x="568" y="32" on="1"/>
        <pt x="564" y="35" on="0"/>
        <pt x="555" y="41" on="0"/>
        <pt x="553" y="45" on="1"/>
        <pt x="550" y="55" on="0"/>
        <pt x="557" y="80" on="0"/>
        <pt x="569" y="107" on="0"/>
        <pt x="580" y="133" on="0"/>
        <pt x="580" y="143" on="1"/>
        <pt x="580" y="153" on="0"/>
        <pt x="573" y="164" on="0"/>
        <pt x="560" y="169" on="0"/>
        <pt x="540" y="170" on="0"/>
        <pt x="527" y="171" on="1"/>
        <pt x="482" y="174" on="0"/>
        <pt x="383" y="180" on="0"/>
        <pt x="332" y="179" on="1"/>
        <pt x="321" y="179" on="0"/>
        <pt x="310" y="177" on="0"/>
        <pt x="302" y="176" on="0"/>
        <pt x="293" y="174" on="0"/>
        <pt x="284" y="174" on="1"/>
        <pt x="264" y="173" on="0"/>
        <pt x="231" y="170" on="0"/>
        <pt x="215" y="161" on="1"/>
        <pt x="211" y="158" on="0"/>
        <pt x="200" y="147" on="0"/>
        <pt x="188" y="135" on="0"/>
        <pt x="178" y="122" on="0"/>
        <pt x="175" y="118" on="1"/>
        <pt x="157" y="93" on="0"/>
        <pt x="131" y="42" on="0"/>
        <pt x="108" y="25" on="1"/>
        <pt x="88" y="25" on="0"/>
        <pt x="64" y="8" on="0"/>
        <pt x="55" y="-5" on="1"/>
        <pt x="44" y="-2" on="0"/>
        <pt x="13" y="-6" on="0"/>
        <pt x="-20" y="-10" on="0"/>
        <pt x="-49" y="-11" on="0"/>
        <pt x="-56" y="-5" on="1"/>
        <pt x="-60" y="-2" on="0"/>
        <pt x="-64" y="9" on="0"/>
        <pt x="-67" y="14" on="1"/>
        <pt x="-69" y="20" on="0"/>
        <pt x="-75" y="30" on="0"/>
        <pt x="-74" y="35" on="1"/>
        <pt x="-73" y="41" on="0"/>
        <pt x="-56" y="64" on="0"/>
        <pt x="-51" y="69" on="1"/>
        <pt x="-46" y="72" on="0"/>
        <pt x="-33" y="76" on="0"/>
        <pt x="-28" y="80" on="1"/>
        <pt x="-11" y="91" on="0"/>
        <pt x="14" y="124" on="0"/>
        <pt x="23" y="134" on="1"/>
        <pt x="31" y="139" on="0"/>
        <pt x="52" y="150" on="0"/>
        <pt x="53" y="159" on="1"/>
        <pt x="46" y="164" on="0"/>
        <pt x="23" y="163" on="0"/>
        <pt x="9" y="164" on="1"/>
        <pt x="-11" y="164" on="0"/>
        <pt x="-49" y="170" on="0"/>
        <pt x="-63" y="172" on="1"/>
        <pt x="-88" y="177" on="0"/>
        <pt x="-114" y="215" on="0"/>
        <pt x="-102" y="244" on="1"/>
        <pt x="-95" y="247" on="0"/>
        <pt x="-77" y="247" on="0"/>
        <pt x="-59" y="245" on="0"/>
        <pt x="-41" y="244" on="0"/>
        <pt x="-32" y="247" on="1"/>
        <pt x="-25" y="241" on="0"/>
        <pt x="-10" y="241" on="0"/>
        <pt x="5" y="247" on="0"/>
        <pt x="20" y="254" on="0"/>
        <pt x="26" y="255" on="1"/>
        <pt x="30" y="256" on="0"/>
        <pt x="37" y="254" on="0"/>
        <pt x="42" y="254" on="1"/>
        <pt x="50" y="254" on="0"/>
        <pt x="69" y="259" on="0"/>
        <pt x="79" y="261" on="1"/>
        <pt x="95" y="263" on="0"/>
        <pt x="128" y="264" on="0"/>
        <pt x="140" y="269" on="1"/>
        <pt x="148" y="272" on="0"/>
        <pt x="171" y="287" on="0"/>
        <pt x="176" y="293" on="1"/>
        <pt x="180" y="298" on="0"/>
        <pt x="182" y="307" on="0"/>
        <pt x="185" y="312" on="1"/>
        <pt x="196" y="329" on="0"/>
        <pt x="229" y="355" on="0"/>
        <pt x="242" y="371" on="1"/>
        <pt x="248" y="379" on="0"/>
        <pt x="253" y="387" on="0"/>
        <pt x="257" y="393" on="0"/>
        <pt x="263" y="401" on="0"/>
        <pt x="270" y="409" on="1"/>
        <pt x="284" y="423" on="0"/>
        <pt x="311" y="449" on="0"/>
        <pt x="328" y="461" on="1"/>
        <pt x="330" y="467" on="0"/>
        <pt x="337" y="476" on="0"/>
        <pt x="340" y="481" on="1"/>
        <pt x="371" y="492" on="0"/>
        <pt x="417" y="528" on="0"/>
        <pt x="439" y="548" on="1"/>
        <pt x="441" y="558" on="0"/>
        <pt x="455" y="567" on="0"/>
        <pt x="458" y="577" on="1"/>
        <pt x="460" y="582" on="0"/>
        <pt x="456" y="595" on="0"/>
        <pt x="458" y="602" on="1"/>
        <pt x="460" y="610" on="0"/>
        <pt x="479" y="627" on="0"/>
        <pt x="487" y="634" on="1"/>
        <pt x="496" y="642" on="0"/>
        <pt x="511" y="658" on="0"/>
        <pt x="518" y="665" on="1"/>
        <pt x="528" y="674" on="0"/>
        <pt x="551" y="688" on="0"/>
        <pt x="561" y="698" on="1"/>
        <pt x="566" y="704" on="0"/>
        <pt x="577" y="719" on="0"/>
        <pt x="585" y="723" on="1"/>
        <pt x="596" y="729" on="0"/>
        <pt x="628" y="731" on="0"/>
        <pt x="645" y="732" on="1"/>
        <pt x="664" y="733" on="0"/>
        <pt x="711" y="740" on="0"/>
        <pt x="758" y="748" on="0"/>
        <pt x="804" y="755" on="0"/>
        <pt x="822" y="756" on="1"/>
        <pt x="841" y="758" on="0"/>
        <pt x="873" y="756" on="0"/>
        <pt x="884" y="760" on="1"/>
        <pt x="895" y="749" on="0"/>
        <pt x="914" y="727" on="0"/>
        <pt x="924" y="715" on="1"/>
        <pt x="941" y="710" on="0"/>
        <pt x="984" y="708" on="0"/>
        <pt x="1005" y="713" on="1"/>
        <pt x="1044" y="708" on="0"/>
        <pt x="1129" y="720" on="0"/>
        <pt x="1172" y="722" on="1"/>
        <pt x="1184" y="723" on="0"/>
        <pt x="1206" y="718" on="0"/>
        <pt x="1218" y="717" on="1"/>
        <pt x="1235" y="715" on="0"/>
        <pt x="1274" y="717" on="0"/>
        <pt x="1293" y="719" on="1"/>
        <pt x="1312" y="721" on="0"/>
        <pt x="1347" y="722" on="0"/>
        <pt x="1363" y="725" on="1"/>
        <pt x="1375" y="727" on="0"/>
        <pt x="1405" y="736" on="0"/>
      </contour>
      <contour>
        <pt x="572" y="293" on="1"/>
        <pt x="581" y="297" on="0"/>
        <pt x="592" y="295" on="1"/>
        <pt x="593" y="300" on="0"/>
        <pt x="602" y="301" on="0"/>
        <pt x="607" y="303" on="1"/>
        <pt x="614" y="310" on="0"/>
        <pt x="616" y="319" on="0"/>
        <pt x="614" y="326" on="0"/>
        <pt x="612" y="335" on="0"/>
        <pt x="615" y="343" on="1"/>
        <pt x="617" y="351" on="0"/>
        <pt x="629" y="368" on="0"/>
        <pt x="632" y="377" on="1"/>
        <pt x="635" y="384" on="0"/>
        <pt x="636" y="400" on="0"/>
        <pt x="639" y="408" on="1"/>
        <pt x="641" y="413" on="0"/>
        <pt x="648" y="420" on="0"/>
        <pt x="652" y="424" on="1"/>
        <pt x="653" y="429" on="0"/>
        <pt x="657" y="440" on="0"/>
        <pt x="659" y="446" on="1"/>
        <pt x="662" y="459" on="0"/>
        <pt x="667" y="473" on="0"/>
        <pt x="667" y="478" on="1"/>
        <pt x="667" y="486" on="0"/>
        <pt x="655" y="500" on="0"/>
        <pt x="655" y="508" on="1"/>
        <pt x="656" y="518" on="0"/>
        <pt x="669" y="543" on="0"/>
        <pt x="673" y="555" on="1"/>
        <pt x="678" y="572" on="0"/>
        <pt x="682" y="600" on="0"/>
        <pt x="678" y="614" on="1"/>
        <pt x="669" y="620" on="0"/>
        <pt x="657" y="617" on="0"/>
        <pt x="647" y="606" on="0"/>
        <pt x="637" y="592" on="0"/>
        <pt x="630" y="587" on="1"/>
        <pt x="613" y="575" on="0"/>
        <pt x="585" y="551" on="0"/>
        <pt x="560" y="526" on="0"/>
        <pt x="534" y="500" on="0"/>
        <pt x="518" y="485" on="1"/>
        <pt x="506" y="474" on="0"/>
        <pt x="480" y="452" on="0"/>
        <pt x="457" y="426" on="0"/>
        <pt x="440" y="398" on="0"/>
        <pt x="437" y="381" on="1"/>
        <pt x="429" y="373" on="0"/>
        <pt x="419" y="366" on="0"/>
        <pt x="410" y="360" on="0"/>
        <pt x="399" y="352" on="0"/>
        <pt x="391" y="345" on="1"/>
        <pt x="375" y="331" on="0"/>
        <pt x="340" y="302" on="0"/>
        <pt x="331" y="285" on="1"/>
        <pt x="347" y="280" on="0"/>
        <pt x="373" y="280" on="0"/>
        <pt x="398" y="283" on="0"/>
        <pt x="426" y="288" on="0"/>
        <pt x="445" y="289" on="1"/>
        <pt x="479" y="290" on="0"/>
        <pt x="543" y="291" on="0"/>
      </contour>
    </TTGlyph>
    <TTGlyph name="Aacute" xMin="-111" yMin="-87" xMax="814" yMax="996">
      <component glyphName="A" x="0" y="0" flags="0x204"/>
      <component glyphName="acute" x="143" y="236" flags="0x4"/>
    </TTGlyph>
    <TTGlyph name="Acircumflex" xMin="-111" yMin="-87" xMax="814" yMax="990">
      <component glyphName="A" x="0" y="0" flags="0x204"/>
      <component glyphName="circumflex" x="82" y="256" flags="0x4"/>
    </TTGlyph>
    <TTGlyph name="Adieresis" xMin="-111" yMin="-87" xMax="814" yMax="953">
      <component glyphName="A" x="0" y="0" flags="0x204"/>
      <component glyphName="dieresis" x="92" y="225" flags="0x4"/>
    </TTGlyph>
    <TTGlyph name="Agrave" xMin="-111" yMin="-87" xMax="814" yMax="1019">
      <component glyphName="A" x="0" y="0" flags="0x204"/>
      <component glyphName="grave" x="20" y="256" flags="0x4"/>
    </TTGlyph>
    <TTGlyph name="Aring" xMin="-111" yMin="-87" xMax="814" yMax="939">
      <contour>
        <pt x="426" y="289" on="1"/>
        <pt x="460" y="290" on="0"/>
        <pt x="523" y="291" on="0"/>
        <pt x="551" y="293" on="1"/>
        <pt x="555" y="295" on="0"/>
        <pt x="562" y="297" on="0"/>
        <pt x="570" y="295" on="1"/>
        <pt x="569" y="300" on="0"/>
        <pt x="580" y="301" on="0"/>
        <pt x="583" y="303" on="1"/>
        <pt x="587" y="310" on="0"/>
        <pt x="587" y="319" on="0"/>
        <pt x="584" y="326" on="0"/>
        <pt x="579" y="335" on="0"/>
        <pt x="579" y="343" on="1"/>
        <pt x="579" y="351" on="0"/>
        <pt x="584" y="368" on="0"/>
        <pt x="585" y="377" on="1"/>
        <pt x="586" y="384" on="0"/>
        <pt x="581" y="400" on="0"/>
        <pt x="582" y="408" on="1"/>
        <pt x="583" y="415" on="0"/>
        <pt x="593" y="426" on="0"/>
        <pt x="593" y="433" on="1"/>
        <pt x="593" y="437" on="0"/>
        <pt x="590" y="447" on="0"/>
        <pt x="590" y="452" on="1"/>
        <pt x="588" y="459" on="0"/>
        <pt x="590" y="473" on="0"/>
        <pt x="588" y="478" on="1"/>
        <pt x="585" y="486" on="0"/>
        <pt x="569" y="500" on="0"/>
        <pt x="567" y="508" on="1"/>
        <pt x="564" y="518" on="0"/>
        <pt x="569" y="543" on="0"/>
        <pt x="569" y="555" on="1"/>
        <pt x="568" y="572" on="0"/>
        <pt x="564" y="600" on="0"/>
        <pt x="556" y="614" on="1"/>
        <pt x="545" y="620" on="0"/>
        <pt x="534" y="617" on="0"/>
        <pt x="527" y="606" on="0"/>
        <pt x="522" y="592" on="0"/>
        <pt x="516" y="587" on="1"/>
        <pt x="489" y="563" on="0"/>
        <pt x="459" y="514" on="0"/>
        <pt x="437" y="485" on="1"/>
        <pt x="428" y="474" on="0"/>
        <pt x="409" y="452" on="0"/>
        <pt x="394" y="426" on="0"/>
        <pt x="386" y="398" on="0"/>
        <pt x="388" y="381" on="1"/>
        <pt x="383" y="373" on="0"/>
        <pt x="376" y="365" on="0"/>
        <pt x="368" y="359" on="0"/>
        <pt x="359" y="352" on="0"/>
        <pt x="353" y="345" on="1"/>
        <pt x="342" y="331" on="0"/>
        <pt x="316" y="302" on="0"/>
        <pt x="312" y="285" on="1"/>
        <pt x="330" y="280" on="0"/>
        <pt x="356" y="280" on="0"/>
        <pt x="381" y="283" on="0"/>
        <pt x="408" y="288" on="0"/>
      </contour>
      <contour>
        <pt x="672" y="921" on="1"/>
        <pt x="678" y="911" on="0"/>
        <pt x="693" y="890" on="0"/>
        <pt x="702" y="865" on="0"/>
        <pt x="704" y="835" on="0"/>
        <pt x="697" y="816" on="1"/>
        <pt x="693" y="805" on="0"/>
        <pt x="675" y="783" on="0"/>
        <pt x="667" y="775" on="1"/>
        <pt x="662" y="770" on="0"/>
        <pt x="650" y="760" on="0"/>
        <pt x="644" y="755" on="1"/>
        <pt x="647" y="755" on="0"/>
        <pt x="652" y="756" on="0"/>
        <pt x="655" y="756" on="1"/>
        <pt x="673" y="758" on="0"/>
        <pt x="706" y="756" on="0"/>
        <pt x="716" y="760" on="1"/>
        <pt x="730" y="748" on="0"/>
        <pt x="759" y="725" on="0"/>
        <pt x="772" y="712" on="1"/>
        <pt x="776" y="692" on="0"/>
        <pt x="782" y="658" on="0"/>
        <pt x="780" y="641" on="1"/>
        <pt x="778" y="633" on="0"/>
        <pt x="769" y="619" on="0"/>
        <pt x="770" y="610" on="1"/>
        <pt x="770" y="595" on="0"/>
        <pt x="788" y="566" on="0"/>
        <pt x="792" y="549" on="1"/>
        <pt x="793" y="541" on="0"/>
        <pt x="786" y="526" on="0"/>
        <pt x="785" y="518" on="1"/>
        <pt x="784" y="510" on="0"/>
        <pt x="788" y="491" on="0"/>
        <pt x="790" y="481" on="1"/>
        <pt x="790" y="469" on="0"/>
        <pt x="788" y="445" on="0"/>
        <pt x="790" y="432" on="1"/>
        <pt x="792" y="419" on="0"/>
        <pt x="798" y="392" on="0"/>
        <pt x="797" y="378" on="1"/>
        <pt x="795" y="364" on="0"/>
        <pt x="788" y="340" on="0"/>
        <pt x="788" y="327" on="1"/>
        <pt x="787" y="309" on="0"/>
        <pt x="793" y="276" on="0"/>
        <pt x="788" y="259" on="1"/>
        <pt x="796" y="249" on="0"/>
        <pt x="797" y="230" on="0"/>
        <pt x="793" y="209" on="0"/>
        <pt x="789" y="188" on="0"/>
        <pt x="793" y="177" on="1"/>
        <pt x="795" y="170" on="0"/>
        <pt x="807" y="159" on="0"/>
        <pt x="809" y="151" on="1"/>
        <pt x="812" y="141" on="0"/>
        <pt x="813" y="112" on="0"/>
        <pt x="813" y="99" on="1"/>
        <pt x="814" y="67" on="0"/>
        <pt x="801" y="17" on="0"/>
        <pt x="800" y="-12" on="1"/>
        <pt x="800" y="-25" on="0"/>
        <pt x="799" y="-57" on="0"/>
        <pt x="794" y="-66" on="1"/>
        <pt x="789" y="-72" on="0"/>
        <pt x="767" y="-85" on="0"/>
        <pt x="759" y="-86" on="1"/>
        <pt x="744" y="-87" on="0"/>
        <pt x="705" y="-69" on="0"/>
        <pt x="695" y="-59" on="1"/>
        <pt x="686" y="-49" on="0"/>
        <pt x="671" y="-25" on="0"/>
        <pt x="656" y="1" on="0"/>
        <pt x="640" y="24" on="0"/>
        <pt x="630" y="32" on="1"/>
        <pt x="625" y="35" on="0"/>
        <pt x="613" y="41" on="0"/>
        <pt x="610" y="45" on="1"/>
        <pt x="604" y="55" on="0"/>
        <pt x="603" y="80" on="0"/>
        <pt x="606" y="107" on="0"/>
        <pt x="609" y="133" on="0"/>
        <pt x="606" y="143" on="1"/>
        <pt x="603" y="153" on="0"/>
        <pt x="593" y="164" on="0"/>
        <pt x="578" y="169" on="0"/>
        <pt x="559" y="170" on="0"/>
        <pt x="546" y="171" on="1"/>
        <pt x="499" y="174" on="0"/>
        <pt x="399" y="180" on="0"/>
        <pt x="347" y="179" on="1"/>
        <pt x="336" y="179" on="0"/>
        <pt x="326" y="177" on="0"/>
        <pt x="318" y="176" on="0"/>
        <pt x="310" y="174" on="0"/>
        <pt x="301" y="174" on="1"/>
        <pt x="281" y="173" on="0"/>
        <pt x="249" y="170" on="0"/>
        <pt x="237" y="161" on="1"/>
        <pt x="230" y="156" on="0"/>
        <pt x="214" y="126" on="0"/>
        <pt x="210" y="118" on="1"/>
        <pt x="205" y="106" on="0"/>
        <pt x="198" y="80" on="0"/>
        <pt x="191" y="55" on="0"/>
        <pt x="181" y="33" on="0"/>
        <pt x="172" y="25" on="1"/>
        <pt x="152" y="25" on="0"/>
        <pt x="133" y="8" on="0"/>
        <pt x="129" y="-5" on="1"/>
        <pt x="117" y="-2" on="0"/>
        <pt x="86" y="-6" on="0"/>
        <pt x="55" y="-10" on="0"/>
        <pt x="26" y="-11" on="0"/>
        <pt x="16" y="-5" on="1"/>
        <pt x="11" y="-2" on="0"/>
        <pt x="5" y="9" on="0"/>
        <pt x="1" y="14" on="1"/>
        <pt x="-3" y="20" on="0"/>
        <pt x="-12" y="30" on="0"/>
        <pt x="-13" y="35" on="1"/>
        <pt x="-15" y="41" on="0"/>
        <pt x="-5" y="64" on="0"/>
        <pt x="-1" y="69" on="1"/>
        <pt x="3" y="72" on="0"/>
        <pt x="14" y="76" on="0"/>
        <pt x="19" y="80" on="1"/>
        <pt x="33" y="91" on="0"/>
        <pt x="46" y="124" on="0"/>
        <pt x="51" y="134" on="1"/>
        <pt x="58" y="139" on="0"/>
        <pt x="77" y="150" on="0"/>
        <pt x="75" y="159" on="1"/>
        <pt x="66" y="164" on="0"/>
        <pt x="43" y="163" on="0"/>
        <pt x="30" y="164" on="1"/>
        <pt x="10" y="164" on="0"/>
        <pt x="-31" y="170" on="0"/>
        <pt x="-46" y="172" on="1"/>
        <pt x="-72" y="177" on="0"/>
        <pt x="-111" y="215" on="0"/>
        <pt x="-108" y="244" on="1"/>
        <pt x="-101" y="247" on="0"/>
        <pt x="-84" y="247" on="0"/>
        <pt x="-65" y="245" on="0"/>
        <pt x="-46" y="244" on="0"/>
        <pt x="-38" y="247" on="1"/>
        <pt x="-29" y="241" on="0"/>
        <pt x="-14" y="241" on="0"/>
        <pt x="-1" y="247" on="0"/>
        <pt x="11" y="254" on="0"/>
        <pt x="16" y="255" on="1"/>
        <pt x="21" y="256" on="0"/>
        <pt x="29" y="254" on="0"/>
        <pt x="34" y="254" on="1"/>
        <pt x="42" y="254" on="0"/>
        <pt x="58" y="259" on="0"/>
        <pt x="69" y="261" on="1"/>
        <pt x="84" y="263" on="0"/>
        <pt x="116" y="265" on="0"/>
        <pt x="127" y="270" on="1"/>
        <pt x="134" y="272" on="0"/>
        <pt x="152" y="287" on="0"/>
        <pt x="156" y="293" on="1"/>
        <pt x="158" y="298" on="0"/>
        <pt x="157" y="307" on="0"/>
        <pt x="159" y="312" on="1"/>
        <pt x="164" y="329" on="0"/>
        <pt x="189" y="355" on="0"/>
        <pt x="197" y="371" on="1"/>
        <pt x="200" y="379" on="0"/>
        <pt x="203" y="387" on="0"/>
        <pt x="205" y="393" on="0"/>
        <pt x="208" y="401" on="0"/>
        <pt x="213" y="409" on="1"/>
        <pt x="222" y="423" on="0"/>
        <pt x="241" y="449" on="0"/>
        <pt x="254" y="461" on="1"/>
        <pt x="254" y="467" on="0"/>
        <pt x="258" y="476" on="0"/>
        <pt x="260" y="481" on="1"/>
        <pt x="287" y="492" on="0"/>
        <pt x="321" y="528" on="0"/>
        <pt x="338" y="548" on="1"/>
        <pt x="337" y="558" on="0"/>
        <pt x="347" y="567" on="0"/>
        <pt x="347" y="577" on="1"/>
        <pt x="347" y="582" on="0"/>
        <pt x="340" y="595" on="0"/>
        <pt x="340" y="602" on="1"/>
        <pt x="340" y="610" on="0"/>
        <pt x="353" y="627" on="0"/>
        <pt x="358" y="634" on="1"/>
        <pt x="366" y="642" on="0"/>
        <pt x="375" y="658" on="0"/>
        <pt x="380" y="665" on="1"/>
        <pt x="388" y="674" on="0"/>
        <pt x="405" y="688" on="0"/>
        <pt x="413" y="698" on="1"/>
        <pt x="417" y="704" on="0"/>
        <pt x="422" y="719" on="0"/>
        <pt x="428" y="724" on="1"/>
        <pt x="437" y="729" on="0"/>
        <pt x="469" y="731" on="0"/>
        <pt x="486" y="732" on="1"/>
        <pt x="497" y="733" on="0"/>
        <pt x="521" y="735" on="0"/>
        <pt x="535" y="737" on="1"/>
        <pt x="521" y="739" on="0"/>
        <pt x="504" y="750" on="0"/>
        <pt x="495" y="754" on="1"/>
        <pt x="495" y="761" on="0"/>
        <pt x="490" y="770" on="0"/>
        <pt x="483" y="779" on="0"/>
        <pt x="476" y="789" on="0"/>
        <pt x="476" y="796" on="1"/>
        <pt x="476" y="801" on="0"/>
        <pt x="480" y="813" on="0"/>
        <pt x="480" y="820" on="1"/>
        <pt x="482" y="836" on="0"/>
        <pt x="483" y="862" on="0"/>
        <pt x="495" y="876" on="1"/>
        <pt x="499" y="881" on="0"/>
        <pt x="512" y="891" on="0"/>
        <pt x="517" y="896" on="1"/>
        <pt x="528" y="905" on="0"/>
        <pt x="552" y="924" on="0"/>
        <pt x="565" y="930" on="1"/>
        <pt x="582" y="930" on="0"/>
        <pt x="614" y="939" on="0"/>
        <pt x="630" y="937" on="1"/>
        <pt x="643" y="935" on="0"/>
        <pt x="660" y="923" on="0"/>
      </contour>
      <contour>
        <pt x="578" y="779" on="1"/>
        <pt x="583" y="779" on="0"/>
        <pt x="600" y="786" on="0"/>
        <pt x="616" y="796" on="0"/>
        <pt x="631" y="808" on="0"/>
        <pt x="634" y="813" on="1"/>
        <pt x="638" y="818" on="0"/>
        <pt x="640" y="835" on="0"/>
        <pt x="641" y="842" on="1"/>
        <pt x="644" y="866" on="0"/>
        <pt x="622" y="893" on="0"/>
        <pt x="596" y="888" on="1"/>
        <pt x="571" y="883" on="0"/>
        <pt x="538" y="844" on="0"/>
        <pt x="536" y="815" on="1"/>
        <pt x="542" y="804" on="0"/>
        <pt x="561" y="778" on="0"/>
      </contour>
    </TTGlyph>
    <TTGlyph name="Atilde" xMin="-111" yMin="-87" xMax="814" yMax="947">
      <component glyphName="A" x="0" y="0" flags="0x204"/>
      <component glyphName="tilde" x="102" y="246" flags="0x4"/>
    </TTGlyph>
    <TTGlyph name="B" xMin="-61" yMin="-23" xMax="833" yMax="756">
      <contour>
        <pt x="609" y="353" on="1"/>
        <pt x="610" y="344" on="0"/>
        <pt x="620" y="335" on="0"/>
        <pt x="634" y="331" on="0"/>
        <pt x="650" y="328" on="0"/>
        <pt x="656" y="325" on="1"/>
        <pt x="663" y="322" on="0"/>
        <pt x="675" y="311" on="0"/>
        <pt x="682" y="306" on="1"/>
        <pt x="691" y="301" on="0"/>
        <pt x="701" y="290" on="0"/>
        <pt x="707" y="278" on="0"/>
        <pt x="712" y="262" on="0"/>
        <pt x="717" y="251" on="1"/>
        <pt x="722" y="237" on="0"/>
        <pt x="738" y="207" on="0"/>
        <pt x="740" y="190" on="1"/>
        <pt x="741" y="181" on="0"/>
        <pt x="737" y="157" on="0"/>
        <pt x="728" y="132" on="0"/>
        <pt x="717" y="110" on="0"/>
        <pt x="711" y="104" on="1"/>
        <pt x="689" y="84" on="0"/>
        <pt x="624" y="49" on="0"/>
        <pt x="590" y="33" on="1"/>
        <pt x="583" y="30" on="0"/>
        <pt x="569" y="22" on="0"/>
        <pt x="563" y="19" on="1"/>
        <pt x="553" y="17" on="0"/>
        <pt x="536" y="22" on="0"/>
        <pt x="528" y="20" on="1"/>
        <pt x="520" y="19" on="0"/>
        <pt x="510" y="12" on="0"/>
        <pt x="502" y="10" on="1"/>
        <pt x="488" y="5" on="0"/>
        <pt x="453" y="3" on="0"/>
        <pt x="434" y="0" on="1"/>
        <pt x="427" y="-2" on="0"/>
        <pt x="413" y="0" on="0"/>
        <pt x="406" y="-2" on="1"/>
        <pt x="391" y="-5" on="0"/>
        <pt x="355" y="-13" on="0"/>
        <pt x="335" y="-13" on="1"/>
        <pt x="307" y="-13" on="0"/>
        <pt x="253" y="-9" on="0"/>
        <pt x="224" y="-11" on="1"/>
        <pt x="210" y="-12" on="0"/>
        <pt x="185" y="-7" on="0"/>
        <pt x="171" y="-8" on="1"/>
        <pt x="143" y="-9" on="0"/>
        <pt x="104" y="-13" on="0"/>
        <pt x="68" y="-17" on="0"/>
        <pt x="30" y="-22" on="0"/>
        <pt x="2" y="-23" on="1"/>
        <pt x="-16" y="-23" on="0"/>
        <pt x="-54" y="-20" on="0"/>
        <pt x="-61" y="-3" on="1"/>
        <pt x="-59" y="2" on="0"/>
        <pt x="-51" y="5" on="0"/>
        <pt x="-50" y="11" on="1"/>
        <pt x="-22" y="19" on="0"/>
        <pt x="11" y="54" on="0"/>
        <pt x="29" y="91" on="1"/>
        <pt x="33" y="99" on="0"/>
        <pt x="39" y="113" on="0"/>
        <pt x="44" y="120" on="1"/>
        <pt x="49" y="128" on="0"/>
        <pt x="51" y="140" on="0"/>
        <pt x="54" y="146" on="1"/>
        <pt x="58" y="155" on="0"/>
        <pt x="59" y="174" on="0"/>
        <pt x="60" y="192" on="0"/>
        <pt x="65" y="208" on="0"/>
        <pt x="73" y="213" on="1"/>
        <pt x="71" y="226" on="0"/>
        <pt x="71" y="254" on="0"/>
        <pt x="77" y="269" on="1"/>
        <pt x="80" y="277" on="0"/>
        <pt x="90" y="287" on="0"/>
        <pt x="92" y="293" on="1"/>
        <pt x="95" y="303" on="0"/>
        <pt x="90" y="326" on="0"/>
        <pt x="94" y="339" on="1"/>
        <pt x="97" y="350" on="0"/>
        <pt x="114" y="374" on="0"/>
        <pt x="117" y="386" on="1"/>
        <pt x="122" y="407" on="0"/>
        <pt x="124" y="450" on="0"/>
        <pt x="129" y="473" on="1"/>
        <pt x="131" y="479" on="0"/>
        <pt x="138" y="489" on="0"/>
        <pt x="140" y="496" on="1"/>
        <pt x="145" y="510" on="0"/>
        <pt x="145" y="546" on="0"/>
        <pt x="148" y="563" on="1"/>
        <pt x="153" y="587" on="0"/>
        <pt x="165" y="624" on="0"/>
        <pt x="160" y="644" on="1"/>
        <pt x="156" y="659" on="0"/>
        <pt x="133" y="694" on="0"/>
        <pt x="125" y="699" on="1"/>
        <pt x="113" y="707" on="0"/>
        <pt x="87" y="714" on="0"/>
        <pt x="76" y="723" on="1"/>
        <pt x="65" y="724" on="0"/>
        <pt x="54" y="730" on="0"/>
        <pt x="56" y="738" on="1"/>
        <pt x="57" y="744" on="0"/>
        <pt x="72" y="752" on="0"/>
        <pt x="90" y="754" on="0"/>
        <pt x="105" y="750" on="0"/>
        <pt x="108" y="744" on="1"/>
        <pt x="120" y="743" on="0"/>
        <pt x="156" y="743" on="0"/>
        <pt x="166" y="737" on="1"/>
        <pt x="185" y="738" on="0"/>
        <pt x="241" y="743" on="0"/>
        <pt x="263" y="737" on="1"/>
        <pt x="268" y="736" on="0"/>
        <pt x="279" y="729" on="0"/>
        <pt x="283" y="729" on="1"/>
        <pt x="292" y="730" on="0"/>
        <pt x="308" y="746" on="0"/>
        <pt x="317" y="748" on="1"/>
        <pt x="337" y="748" on="0"/>
        <pt x="390" y="753" on="0"/>
        <pt x="413" y="755" on="1"/>
        <pt x="431" y="756" on="0"/>
        <pt x="471" y="752" on="0"/>
        <pt x="488" y="752" on="1"/>
        <pt x="502" y="752" on="0"/>
        <pt x="532" y="749" on="0"/>
        <pt x="552" y="745" on="1"/>
        <pt x="576" y="742" on="0"/>
        <pt x="618" y="738" on="0"/>
        <pt x="640" y="730" on="1"/>
        <pt x="652" y="725" on="0"/>
        <pt x="678" y="710" on="0"/>
        <pt x="693" y="705" on="1"/>
        <pt x="709" y="698" on="0"/>
        <pt x="747" y="693" on="0"/>
        <pt x="758" y="687" on="1"/>
        <pt x="763" y="684" on="0"/>
        <pt x="769" y="673" on="0"/>
        <pt x="774" y="670" on="1"/>
        <pt x="777" y="668" on="0"/>
        <pt x="787" y="667" on="0"/>
        <pt x="791" y="665" on="1"/>
        <pt x="803" y="657" on="0"/>
        <pt x="819" y="623" on="0"/>
        <pt x="824" y="606" on="1"/>
        <pt x="828" y="594" on="0"/>
        <pt x="833" y="559" on="0"/>
        <pt x="831" y="522" on="0"/>
        <pt x="821" y="487" on="0"/>
        <pt x="811" y="475" on="1"/>
        <pt x="809" y="473" on="0"/>
        <pt x="803" y="468" on="0"/>
        <pt x="800" y="465" on="1"/>
        <pt x="788" y="454" on="0"/>
        <pt x="761" y="435" on="0"/>
        <pt x="741" y="430" on="1"/>
        <pt x="738" y="418" on="0"/>
        <pt x="725" y="405" on="0"/>
        <pt x="707" y="397" on="0"/>
        <pt x="686" y="392" on="0"/>
        <pt x="675" y="386" on="1"/>
        <pt x="658" y="377" on="0"/>
        <pt x="629" y="358" on="0"/>
      </contour>
      <contour>
        <pt x="375" y="412" on="1"/>
        <pt x="385" y="414" on="0"/>
        <pt x="405" y="422" on="0"/>
        <pt x="418" y="423" on="1"/>
        <pt x="425" y="423" on="0"/>
        <pt x="440" y="421" on="0"/>
        <pt x="449" y="422" on="1"/>
        <pt x="459" y="423" on="0"/>
        <pt x="486" y="432" on="0"/>
        <pt x="513" y="444" on="0"/>
        <pt x="537" y="459" on="0"/>
        <pt x="545" y="466" on="1"/>
        <pt x="552" y="472" on="0"/>
        <pt x="567" y="492" on="0"/>
        <pt x="579" y="514" on="0"/>
        <pt x="585" y="538" on="0"/>
        <pt x="584" y="549" on="1"/>
        <pt x="583" y="554" on="0"/>
        <pt x="570" y="580" on="0"/>
        <pt x="565" y="586" on="1"/>
        <pt x="557" y="595" on="0"/>
        <pt x="520" y="622" on="0"/>
        <pt x="503" y="630" on="1"/>
        <pt x="499" y="632" on="0"/>
        <pt x="491" y="632" on="0"/>
        <pt x="486" y="634" on="1"/>
        <pt x="478" y="637" on="0"/>
        <pt x="464" y="651" on="0"/>
        <pt x="458" y="653" on="1"/>
        <pt x="436" y="658" on="0"/>
        <pt x="391" y="649" on="0"/>
        <pt x="383" y="636" on="1"/>
        <pt x="381" y="631" on="0"/>
        <pt x="383" y="621" on="0"/>
        <pt x="381" y="617" on="1"/>
        <pt x="378" y="612" on="0"/>
        <pt x="367" y="608" on="0"/>
        <pt x="365" y="600" on="1"/>
        <pt x="374" y="589" on="0"/>
        <pt x="364" y="562" on="0"/>
        <pt x="359" y="547" on="1"/>
        <pt x="351" y="518" on="0"/>
        <pt x="337" y="458" on="0"/>
        <pt x="327" y="431" on="1"/>
        <pt x="334" y="421" on="0"/>
        <pt x="357" y="410" on="0"/>
      </contour>
      <contour>
        <pt x="283" y="276" on="1"/>
        <pt x="277" y="262" on="0"/>
        <pt x="275" y="227" on="0"/>
        <pt x="271" y="209" on="1"/>
        <pt x="268" y="195" on="0"/>
        <pt x="256" y="169" on="0"/>
        <pt x="254" y="158" on="1"/>
        <pt x="253" y="153" on="0"/>
        <pt x="254" y="143" on="0"/>
        <pt x="252" y="139" on="1"/>
        <pt x="249" y="130" on="0"/>
        <pt x="235" y="106" on="0"/>
        <pt x="238" y="96" on="1"/>
        <pt x="239" y="90" on="0"/>
        <pt x="259" y="84" on="0"/>
        <pt x="284" y="80" on="0"/>
        <pt x="309" y="77" on="0"/>
        <pt x="316" y="76" on="1"/>
        <pt x="324" y="74" on="0"/>
        <pt x="343" y="80" on="0"/>
        <pt x="362" y="89" on="0"/>
        <pt x="379" y="97" on="0"/>
        <pt x="385" y="98" on="1"/>
        <pt x="394" y="100" on="0"/>
        <pt x="414" y="95" on="0"/>
        <pt x="425" y="96" on="1"/>
        <pt x="451" y="98" on="0"/>
        <pt x="495" y="131" on="0"/>
        <pt x="506" y="148" on="1"/>
        <pt x="518" y="170" on="0"/>
        <pt x="524" y="234" on="0"/>
        <pt x="519" y="257" on="1"/>
        <pt x="517" y="267" on="0"/>
        <pt x="500" y="294" on="0"/>
        <pt x="493" y="299" on="1"/>
        <pt x="489" y="301" on="0"/>
        <pt x="478" y="304" on="0"/>
        <pt x="473" y="307" on="1"/>
        <pt x="469" y="309" on="0"/>
        <pt x="465" y="316" on="0"/>
        <pt x="461" y="318" on="1"/>
        <pt x="454" y="321" on="0"/>
        <pt x="430" y="320" on="0"/>
        <pt x="419" y="323" on="1"/>
        <pt x="413" y="325" on="0"/>
        <pt x="401" y="331" on="0"/>
        <pt x="396" y="331" on="1"/>
        <pt x="388" y="333" on="0"/>
        <pt x="369" y="329" on="0"/>
        <pt x="359" y="329" on="1"/>
        <pt x="348" y="330" on="0"/>
        <pt x="330" y="333" on="0"/>
        <pt x="322" y="331" on="1"/>
        <pt x="303" y="328" on="0"/>
        <pt x="290" y="296" on="0"/>
      </contour>
    </TTGlyph>
    <TTGlyph name="C" xMin="-3" yMin="-40" xMax="801" yMax="768">
      <contour>
        <pt x="795" y="745" on="1"/>
        <pt x="801" y="729" on="0"/>
        <pt x="782" y="706" on="0"/>
        <pt x="772" y="701" on="1"/>
        <pt x="754" y="692" on="0"/>
        <pt x="703" y="686" on="0"/>
        <pt x="683" y="678" on="1"/>
        <pt x="672" y="673" on="0"/>
        <pt x="660" y="658" on="0"/>
        <pt x="649" y="655" on="1"/>
        <pt x="614" y="655" on="0"/>
        <pt x="545" y="657" on="0"/>
        <pt x="508" y="654" on="1"/>
        <pt x="501" y="653" on="0"/>
        <pt x="487" y="648" on="0"/>
        <pt x="480" y="648" on="1"/>
        <pt x="471" y="648" on="0"/>
        <pt x="452" y="654" on="0"/>
        <pt x="442" y="652" on="1"/>
        <pt x="437" y="651" on="0"/>
        <pt x="430" y="644" on="0"/>
        <pt x="425" y="640" on="1"/>
        <pt x="407" y="629" on="0"/>
        <pt x="363" y="608" on="0"/>
        <pt x="344" y="595" on="1"/>
        <pt x="327" y="583" on="0"/>
        <pt x="303" y="546" on="0"/>
        <pt x="290" y="526" on="1"/>
        <pt x="286" y="519" on="0"/>
        <pt x="277" y="506" on="0"/>
        <pt x="275" y="501" on="1"/>
        <pt x="273" y="495" on="0"/>
        <pt x="274" y="480" on="0"/>
        <pt x="272" y="472" on="1"/>
        <pt x="270" y="460" on="0"/>
        <pt x="264" y="432" on="0"/>
        <pt x="259" y="420" on="1"/>
        <pt x="254" y="407" on="0"/>
        <pt x="243" y="382" on="0"/>
        <pt x="241" y="370" on="1"/>
        <pt x="239" y="356" on="0"/>
        <pt x="238" y="329" on="0"/>
        <pt x="233" y="314" on="1"/>
        <pt x="230" y="301" on="0"/>
        <pt x="223" y="276" on="0"/>
        <pt x="222" y="262" on="1"/>
        <pt x="221" y="239" on="0"/>
        <pt x="229" y="196" on="0"/>
        <pt x="229" y="173" on="1"/>
        <pt x="246" y="153" on="0"/>
        <pt x="275" y="116" on="0"/>
        <pt x="299" y="108" on="1"/>
        <pt x="308" y="105" on="0"/>
        <pt x="330" y="105" on="0"/>
        <pt x="354" y="108" on="0"/>
        <pt x="379" y="111" on="0"/>
        <pt x="391" y="110" on="1"/>
        <pt x="400" y="109" on="0"/>
        <pt x="411" y="104" on="0"/>
        <pt x="422" y="100" on="0"/>
        <pt x="435" y="96" on="0"/>
        <pt x="444" y="97" on="1"/>
        <pt x="461" y="98" on="0"/>
        <pt x="495" y="100" on="0"/>
        <pt x="512" y="102" on="1"/>
        <pt x="539" y="104" on="0"/>
        <pt x="584" y="120" on="0"/>
        <pt x="605" y="127" on="1"/>
        <pt x="610" y="129" on="0"/>
        <pt x="620" y="129" on="0"/>
        <pt x="625" y="131" on="1"/>
        <pt x="633" y="134" on="0"/>
        <pt x="646" y="142" on="0"/>
        <pt x="655" y="146" on="1"/>
        <pt x="664" y="151" on="0"/>
        <pt x="683" y="161" on="0"/>
        <pt x="688" y="159" on="1"/>
        <pt x="695" y="157" on="0"/>
        <pt x="698" y="134" on="0"/>
        <pt x="697" y="131" on="1"/>
        <pt x="695" y="124" on="0"/>
        <pt x="677" y="114" on="0"/>
        <pt x="668" y="106" on="1"/>
        <pt x="658" y="99" on="0"/>
        <pt x="644" y="87" on="0"/>
        <pt x="637" y="82" on="1"/>
        <pt x="620" y="70" on="0"/>
        <pt x="583" y="50" on="0"/>
        <pt x="568" y="40" on="1"/>
        <pt x="554" y="32" on="0"/>
        <pt x="536" y="15" on="0"/>
        <pt x="522" y="10" on="1"/>
        <pt x="507" y="4" on="0"/>
        <pt x="469" y="1" on="0"/>
        <pt x="455" y="-4" on="1"/>
        <pt x="444" y="-8" on="0"/>
        <pt x="433" y="-23" on="0"/>
        <pt x="419" y="-27" on="1"/>
        <pt x="393" y="-36" on="0"/>
        <pt x="335" y="-40" on="0"/>
        <pt x="303" y="-36" on="1"/>
        <pt x="255" y="-29" on="0"/>
        <pt x="162" y="4" on="0"/>
        <pt x="126" y="24" on="1"/>
        <pt x="121" y="38" on="0"/>
        <pt x="95" y="54" on="0"/>
        <pt x="87" y="67" on="1"/>
        <pt x="76" y="81" on="0"/>
        <pt x="61" y="112" on="0"/>
        <pt x="44" y="122" on="1"/>
        <pt x="48" y="146" on="0"/>
        <pt x="26" y="173" on="0"/>
        <pt x="15" y="185" on="1"/>
        <pt x="4" y="226" on="0"/>
        <pt x="-3" y="316" on="0"/>
        <pt x="7" y="360" on="1"/>
        <pt x="9" y="368" on="0"/>
        <pt x="16" y="380" on="0"/>
        <pt x="18" y="387" on="1"/>
        <pt x="21" y="396" on="0"/>
        <pt x="23" y="416" on="0"/>
        <pt x="25" y="424" on="1"/>
        <pt x="34" y="457" on="0"/>
        <pt x="64" y="512" on="0"/>
        <pt x="81" y="539" on="1"/>
        <pt x="89" y="551" on="0"/>
        <pt x="106" y="571" on="0"/>
        <pt x="115" y="583" on="1"/>
        <pt x="119" y="588" on="0"/>
        <pt x="126" y="599" on="0"/>
        <pt x="131" y="604" on="1"/>
        <pt x="139" y="612" on="0"/>
        <pt x="159" y="623" on="0"/>
        <pt x="167" y="631" on="1"/>
        <pt x="178" y="644" on="0"/>
        <pt x="189" y="681" on="0"/>
        <pt x="200" y="694" on="1"/>
        <pt x="202" y="697" on="0"/>
        <pt x="213" y="705" on="0"/>
        <pt x="226" y="713" on="0"/>
        <pt x="239" y="720" on="0"/>
        <pt x="243" y="722" on="1"/>
        <pt x="264" y="732" on="0"/>
        <pt x="309" y="737" on="0"/>
        <pt x="335" y="745" on="1"/>
        <pt x="350" y="750" on="0"/>
        <pt x="382" y="760" on="0"/>
        <pt x="396" y="762" on="1"/>
        <pt x="419" y="766" on="0"/>
        <pt x="479" y="768" on="0"/>
        <pt x="505" y="763" on="1"/>
        <pt x="509" y="762" on="0"/>
        <pt x="515" y="759" on="0"/>
        <pt x="520" y="758" on="1"/>
        <pt x="531" y="756" on="0"/>
        <pt x="552" y="760" on="0"/>
        <pt x="561" y="758" on="1"/>
        <pt x="566" y="757" on="0"/>
        <pt x="574" y="752" on="0"/>
        <pt x="580" y="751" on="1"/>
        <pt x="585" y="749" on="0"/>
        <pt x="597" y="750" on="0"/>
        <pt x="603" y="748" on="1"/>
        <pt x="609" y="746" on="0"/>
        <pt x="623" y="741" on="0"/>
        <pt x="629" y="739" on="1"/>
        <pt x="643" y="737" on="0"/>
        <pt x="675" y="737" on="0"/>
        <pt x="689" y="738" on="1"/>
        <pt x="716" y="740" on="0"/>
        <pt x="768" y="750" on="0"/>
      </contour>
    </TTGlyph>
    <TTGlyph name="Ccedilla" xMin="-3" yMin="-256" xMax="801" yMax="768">
      <contour>
        <pt x="308" y="-78" on="1"/>
        <pt x="329" y="-80" on="0"/>
        <pt x="360" y="-88" on="0"/>
        <pt x="370" y="-101" on="1"/>
        <pt x="378" y="-113" on="0"/>
        <pt x="386" y="-141" on="0"/>
        <pt x="378" y="-163" on="1"/>
        <pt x="376" y="-170" on="0"/>
        <pt x="362" y="-186" on="0"/>
        <pt x="355" y="-195" on="1"/>
        <pt x="353" y="-198" on="0"/>
        <pt x="352" y="-206" on="0"/>
        <pt x="350" y="-208" on="1"/>
        <pt x="342" y="-219" on="0"/>
        <pt x="313" y="-239" on="0"/>
        <pt x="303" y="-244" on="1"/>
        <pt x="277" y="-256" on="0"/>
        <pt x="224" y="-254" on="0"/>
        <pt x="198" y="-244" on="1"/>
        <pt x="189" y="-236" on="0"/>
        <pt x="180" y="-209" on="0"/>
        <pt x="184" y="-194" on="1"/>
        <pt x="185" y="-189" on="0"/>
        <pt x="194" y="-186" on="0"/>
        <pt x="197" y="-183" on="1"/>
        <pt x="206" y="-184" on="0"/>
        <pt x="223" y="-192" on="0"/>
        <pt x="243" y="-198" on="0"/>
        <pt x="264" y="-199" on="0"/>
        <pt x="276" y="-193" on="1"/>
        <pt x="285" y="-188" on="0"/>
        <pt x="301" y="-173" on="0"/>
        <pt x="302" y="-167" on="1"/>
        <pt x="306" y="-148" on="0"/>
        <pt x="286" y="-134" on="0"/>
        <pt x="256" y="-130" on="0"/>
        <pt x="223" y="-127" on="0"/>
        <pt x="215" y="-119" on="1"/>
        <pt x="213" y="-117" on="0"/>
        <pt x="207" y="-102" on="0"/>
        <pt x="208" y="-97" on="1"/>
        <pt x="208" y="-93" on="0"/>
        <pt x="216" y="-84" on="0"/>
        <pt x="218" y="-79" on="1"/>
        <pt x="220" y="-75" on="0"/>
        <pt x="219" y="-68" on="0"/>
        <pt x="220" y="-66" on="1"/>
        <pt x="225" y="-55" on="0"/>
        <pt x="244" y="-36" on="0"/>
        <pt x="249" y="-25" on="1"/>
        <pt x="215" y="-15" on="0"/>
        <pt x="152" y="10" on="0"/>
        <pt x="126" y="24" on="1"/>
        <pt x="121" y="38" on="0"/>
        <pt x="95" y="55" on="0"/>
        <pt x="87" y="67" on="1"/>
        <pt x="76" y="81" on="0"/>
        <pt x="61" y="113" on="0"/>
        <pt x="44" y="122" on="1"/>
        <pt x="48" y="146" on="0"/>
        <pt x="26" y="173" on="0"/>
        <pt x="15" y="185" on="1"/>
        <pt x="4" y="226" on="0"/>
        <pt x="-3" y="316" on="0"/>
        <pt x="7" y="360" on="1"/>
        <pt x="9" y="368" on="0"/>
        <pt x="16" y="380" on="0"/>
        <pt x="18" y="387" on="1"/>
        <pt x="21" y="396" on="0"/>
        <pt x="23" y="416" on="0"/>
        <pt x="25" y="424" on="1"/>
        <pt x="34" y="457" on="0"/>
        <pt x="65" y="512" on="0"/>
        <pt x="82" y="539" on="1"/>
        <pt x="89" y="551" on="0"/>
        <pt x="106" y="571" on="0"/>
        <pt x="115" y="583" on="1"/>
        <pt x="119" y="588" on="0"/>
        <pt x="126" y="599" on="0"/>
        <pt x="131" y="604" on="1"/>
        <pt x="139" y="612" on="0"/>
        <pt x="159" y="623" on="0"/>
        <pt x="167" y="631" on="1"/>
        <pt x="178" y="644" on="0"/>
        <pt x="189" y="681" on="0"/>
        <pt x="200" y="694" on="1"/>
        <pt x="202" y="697" on="0"/>
        <pt x="213" y="705" on="0"/>
        <pt x="226" y="713" on="0"/>
        <pt x="239" y="720" on="0"/>
        <pt x="243" y="722" on="1"/>
        <pt x="264" y="732" on="0"/>
        <pt x="309" y="737" on="0"/>
        <pt x="335" y="745" on="1"/>
        <pt x="350" y="750" on="0"/>
        <pt x="382" y="759" on="0"/>
        <pt x="396" y="762" on="1"/>
        <pt x="419" y="766" on="0"/>
        <pt x="479" y="768" on="0"/>
        <pt x="505" y="763" on="1"/>
        <pt x="509" y="762" on="0"/>
        <pt x="515" y="759" on="0"/>
        <pt x="520" y="758" on="1"/>
        <pt x="531" y="756" on="0"/>
        <pt x="552" y="760" on="0"/>
        <pt x="561" y="758" on="1"/>
        <pt x="566" y="757" on="0"/>
        <pt x="574" y="752" on="0"/>
        <pt x="580" y="751" on="1"/>
        <pt x="585" y="749" on="0"/>
        <pt x="597" y="750" on="0"/>
        <pt x="603" y="748" on="1"/>
        <pt x="610" y="746" on="0"/>
        <pt x="623" y="741" on="0"/>
        <pt x="629" y="739" on="1"/>
        <pt x="643" y="737" on="0"/>
        <pt x="675" y="737" on="0"/>
        <pt x="689" y="738" on="1"/>
        <pt x="716" y="740" on="0"/>
        <pt x="768" y="750" on="0"/>
        <pt x="795" y="745" on="1"/>
        <pt x="801" y="729" on="0"/>
        <pt x="782" y="706" on="0"/>
        <pt x="772" y="701" on="1"/>
        <pt x="754" y="692" on="0"/>
        <pt x="703" y="686" on="0"/>
        <pt x="683" y="678" on="1"/>
        <pt x="672" y="673" on="0"/>
        <pt x="660" y="658" on="0"/>
        <pt x="649" y="655" on="1"/>
        <pt x="614" y="655" on="0"/>
        <pt x="545" y="657" on="0"/>
        <pt x="508" y="654" on="1"/>
        <pt x="501" y="653" on="0"/>
        <pt x="487" y="648" on="0"/>
        <pt x="480" y="648" on="1"/>
        <pt x="471" y="648" on="0"/>
        <pt x="452" y="655" on="0"/>
        <pt x="442" y="653" on="1"/>
        <pt x="437" y="651" on="0"/>
        <pt x="431" y="644" on="0"/>
        <pt x="426" y="640" on="1"/>
        <pt x="407" y="629" on="0"/>
        <pt x="363" y="608" on="0"/>
        <pt x="344" y="595" on="1"/>
        <pt x="327" y="583" on="0"/>
        <pt x="303" y="546" on="0"/>
        <pt x="291" y="526" on="1"/>
        <pt x="286" y="519" on="0"/>
        <pt x="277" y="506" on="0"/>
        <pt x="275" y="501" on="1"/>
        <pt x="273" y="495" on="0"/>
        <pt x="274" y="480" on="0"/>
        <pt x="272" y="472" on="1"/>
        <pt x="270" y="460" on="0"/>
        <pt x="264" y="432" on="0"/>
        <pt x="259" y="420" on="1"/>
        <pt x="254" y="407" on="0"/>
        <pt x="243" y="382" on="0"/>
        <pt x="241" y="370" on="1"/>
        <pt x="239" y="356" on="0"/>
        <pt x="238" y="329" on="0"/>
        <pt x="233" y="315" on="1"/>
        <pt x="230" y="301" on="0"/>
        <pt x="223" y="276" on="0"/>
        <pt x="223" y="262" on="1"/>
        <pt x="221" y="239" on="0"/>
        <pt x="229" y="196" on="0"/>
        <pt x="229" y="173" on="1"/>
        <pt x="246" y="153" on="0"/>
        <pt x="276" y="117" on="0"/>
        <pt x="299" y="109" on="1"/>
        <pt x="309" y="105" on="0"/>
        <pt x="331" y="105" on="0"/>
        <pt x="355" y="108" on="0"/>
        <pt x="379" y="111" on="0"/>
        <pt x="391" y="110" on="1"/>
        <pt x="400" y="109" on="0"/>
        <pt x="411" y="104" on="0"/>
        <pt x="422" y="100" on="0"/>
        <pt x="435" y="96" on="0"/>
        <pt x="444" y="97" on="1"/>
        <pt x="461" y="98" on="0"/>
        <pt x="495" y="100" on="0"/>
        <pt x="512" y="102" on="1"/>
        <pt x="539" y="104" on="0"/>
        <pt x="584" y="120" on="0"/>
        <pt x="605" y="127" on="1"/>
        <pt x="610" y="129" on="0"/>
        <pt x="620" y="129" on="0"/>
        <pt x="625" y="131" on="1"/>
        <pt x="633" y="134" on="0"/>
        <pt x="646" y="142" on="0"/>
        <pt x="655" y="146" on="1"/>
        <pt x="664" y="151" on="0"/>
        <pt x="683" y="161" on="0"/>
        <pt x="688" y="159" on="1"/>
        <pt x="696" y="157" on="0"/>
        <pt x="699" y="135" on="0"/>
        <pt x="698" y="131" on="1"/>
        <pt x="696" y="124" on="0"/>
        <pt x="677" y="114" on="0"/>
        <pt x="668" y="106" on="1"/>
        <pt x="658" y="99" on="0"/>
        <pt x="644" y="87" on="0"/>
        <pt x="637" y="82" on="1"/>
        <pt x="620" y="70" on="0"/>
        <pt x="583" y="50" on="0"/>
        <pt x="568" y="41" on="1"/>
        <pt x="554" y="32" on="0"/>
        <pt x="537" y="15" on="0"/>
        <pt x="523" y="10" on="1"/>
        <pt x="507" y="4" on="0"/>
        <pt x="470" y="1" on="0"/>
        <pt x="456" y="-4" on="1"/>
        <pt x="444" y="-8" on="0"/>
        <pt x="433" y="-23" on="0"/>
        <pt x="419" y="-28" on="1"/>
        <pt x="375" y="-41" on="0"/>
        <pt x="322" y="-38" on="1"/>
        <pt x="318" y="-47" on="0"/>
        <pt x="308" y="-68" on="0"/>
      </contour>
    </TTGlyph>
    <TTGlyph name="D" xMin="-93" yMin="-34" xMax="863" yMax="756">
      <contour>
        <pt x="39" y="147" on="1"/>
        <pt x="42" y="154" on="0"/>
        <pt x="57" y="159" on="0"/>
        <pt x="59" y="167" on="1"/>
        <pt x="61" y="174" on="0"/>
        <pt x="55" y="185" on="0"/>
        <pt x="56" y="193" on="1"/>
        <pt x="56" y="197" on="0"/>
        <pt x="60" y="206" on="0"/>
        <pt x="62" y="211" on="1"/>
        <pt x="65" y="223" on="0"/>
        <pt x="69" y="248" on="0"/>
        <pt x="74" y="272" on="0"/>
        <pt x="82" y="292" on="0"/>
        <pt x="90" y="298" on="1"/>
        <pt x="92" y="316" on="0"/>
        <pt x="109" y="350" on="0"/>
        <pt x="112" y="370" on="1"/>
        <pt x="113" y="375" on="0"/>
        <pt x="111" y="387" on="0"/>
        <pt x="112" y="392" on="1"/>
        <pt x="114" y="403" on="0"/>
        <pt x="123" y="423" on="0"/>
        <pt x="125" y="434" on="1"/>
        <pt x="131" y="460" on="0"/>
        <pt x="143" y="509" on="0"/>
        <pt x="148" y="531" on="1"/>
        <pt x="151" y="542" on="0"/>
        <pt x="149" y="561" on="0"/>
        <pt x="151" y="570" on="1"/>
        <pt x="154" y="590" on="0"/>
        <pt x="160" y="626" on="0"/>
        <pt x="157" y="643" on="1"/>
        <pt x="155" y="649" on="0"/>
        <pt x="147" y="662" on="0"/>
        <pt x="145" y="670" on="1"/>
        <pt x="143" y="675" on="0"/>
        <pt x="143" y="684" on="0"/>
        <pt x="141" y="689" on="1"/>
        <pt x="137" y="698" on="0"/>
        <pt x="122" y="707" on="0"/>
        <pt x="108" y="717" on="0"/>
        <pt x="99" y="732" on="0"/>
        <pt x="101" y="746" on="1"/>
        <pt x="108" y="753" on="0"/>
        <pt x="128" y="756" on="0"/>
        <pt x="151" y="753" on="0"/>
        <pt x="175" y="746" on="0"/>
        <pt x="186" y="744" on="1"/>
        <pt x="201" y="742" on="0"/>
        <pt x="235" y="743" on="0"/>
        <pt x="272" y="745" on="0"/>
        <pt x="309" y="745" on="0"/>
        <pt x="326" y="743" on="1"/>
        <pt x="331" y="742" on="0"/>
        <pt x="336" y="738" on="0"/>
        <pt x="340" y="738" on="1"/>
        <pt x="348" y="739" on="0"/>
        <pt x="359" y="746" on="0"/>
        <pt x="367" y="748" on="1"/>
        <pt x="404" y="753" on="0"/>
        <pt x="471" y="736" on="0"/>
        <pt x="504" y="731" on="1"/>
        <pt x="536" y="726" on="0"/>
        <pt x="601" y="720" on="0"/>
        <pt x="622" y="707" on="1"/>
        <pt x="633" y="699" on="0"/>
        <pt x="651" y="680" on="0"/>
        <pt x="662" y="674" on="1"/>
        <pt x="679" y="665" on="0"/>
        <pt x="718" y="653" on="0"/>
        <pt x="735" y="645" on="1"/>
        <pt x="740" y="643" on="0"/>
        <pt x="748" y="636" on="0"/>
        <pt x="753" y="634" on="1"/>
        <pt x="761" y="629" on="0"/>
        <pt x="775" y="625" on="0"/>
        <pt x="782" y="618" on="1"/>
        <pt x="789" y="613" on="0"/>
        <pt x="798" y="597" on="0"/>
        <pt x="803" y="589" on="1"/>
        <pt x="812" y="575" on="0"/>
        <pt x="832" y="555" on="0"/>
        <pt x="838" y="538" on="1"/>
        <pt x="840" y="529" on="0"/>
        <pt x="843" y="511" on="0"/>
        <pt x="846" y="503" on="1"/>
        <pt x="854" y="481" on="0"/>
        <pt x="863" y="420" on="0"/>
        <pt x="854" y="388" on="1"/>
        <pt x="852" y="381" on="0"/>
        <pt x="844" y="369" on="0"/>
        <pt x="842" y="362" on="1"/>
        <pt x="828" y="326" on="0"/>
        <pt x="792" y="259" on="0"/>
        <pt x="761" y="227" on="1"/>
        <pt x="751" y="227" on="0"/>
        <pt x="741" y="223" on="1"/>
        <pt x="734" y="212" on="0"/>
        <pt x="725" y="188" on="0"/>
        <pt x="717" y="179" on="1"/>
        <pt x="713" y="174" on="0"/>
        <pt x="700" y="166" on="0"/>
        <pt x="695" y="160" on="1"/>
        <pt x="674" y="134" on="0"/>
        <pt x="622" y="79" on="0"/>
        <pt x="595" y="62" on="1"/>
        <pt x="587" y="57" on="0"/>
        <pt x="568" y="47" on="0"/>
        <pt x="561" y="44" on="1"/>
        <pt x="556" y="42" on="0"/>
        <pt x="547" y="42" on="0"/>
        <pt x="542" y="40" on="1"/>
        <pt x="531" y="35" on="0"/>
        <pt x="515" y="18" on="0"/>
        <pt x="506" y="11" on="1"/>
        <pt x="485" y="14" on="0"/>
        <pt x="447" y="1" on="0"/>
        <pt x="426" y="1" on="1"/>
        <pt x="393" y="1" on="0"/>
        <pt x="314" y="-4" on="0"/>
        <pt x="274" y="-6" on="1"/>
        <pt x="260" y="-7" on="0"/>
        <pt x="233" y="-9" on="0"/>
        <pt x="217" y="-9" on="1"/>
        <pt x="191" y="-10" on="0"/>
        <pt x="143" y="-8" on="0"/>
        <pt x="120" y="-8" on="1"/>
        <pt x="91" y="-7" on="0"/>
        <pt x="42" y="-17" on="0"/>
        <pt x="12" y="-20" on="1"/>
        <pt x="-8" y="-22" on="0"/>
        <pt x="-45" y="-34" on="0"/>
        <pt x="-59" y="-34" on="1"/>
        <pt x="-64" y="-34" on="0"/>
        <pt x="-76" y="-31" on="0"/>
        <pt x="-86" y="-25" on="0"/>
        <pt x="-93" y="-17" on="0"/>
        <pt x="-92" y="-11" on="1"/>
        <pt x="-91" y="-7" on="0"/>
        <pt x="-81" y="2" on="0"/>
        <pt x="-67" y="10" on="0"/>
        <pt x="-53" y="17" on="0"/>
        <pt x="-48" y="20" on="1"/>
        <pt x="-25" y="36" on="0"/>
        <pt x="1" y="62" on="0"/>
        <pt x="15" y="88" on="1"/>
        <pt x="20" y="97" on="0"/>
        <pt x="29" y="110" on="0"/>
        <pt x="35" y="122" on="0"/>
        <pt x="39" y="136" on="0"/>
      </contour>
      <contour>
        <pt x="333" y="91" on="1"/>
        <pt x="343" y="90" on="0"/>
        <pt x="360" y="84" on="0"/>
        <pt x="369" y="83" on="1"/>
        <pt x="389" y="82" on="0"/>
        <pt x="418" y="102" on="0"/>
        <pt x="430" y="110" on="1"/>
        <pt x="439" y="115" on="0"/>
        <pt x="459" y="123" on="0"/>
        <pt x="465" y="127" on="1"/>
        <pt x="486" y="140" on="0"/>
        <pt x="521" y="180" on="0"/>
        <pt x="551" y="228" on="0"/>
        <pt x="576" y="279" on="0"/>
        <pt x="587" y="302" on="1"/>
        <pt x="594" y="316" on="0"/>
        <pt x="608" y="343" on="0"/>
        <pt x="613" y="356" on="1"/>
        <pt x="619" y="373" on="0"/>
        <pt x="615" y="404" on="0"/>
        <pt x="620" y="419" on="1"/>
        <pt x="622" y="424" on="0"/>
        <pt x="634" y="435" on="0"/>
        <pt x="635" y="442" on="1"/>
        <pt x="636" y="452" on="0"/>
        <pt x="623" y="461" on="0"/>
        <pt x="622" y="470" on="1"/>
        <pt x="621" y="476" on="0"/>
        <pt x="625" y="489" on="0"/>
        <pt x="625" y="496" on="1"/>
        <pt x="625" y="510" on="0"/>
        <pt x="618" y="541" on="0"/>
        <pt x="606" y="570" on="0"/>
        <pt x="588" y="594" on="0"/>
        <pt x="578" y="601" on="1"/>
        <pt x="568" y="608" on="0"/>
        <pt x="530" y="622" on="0"/>
        <pt x="486" y="631" on="0"/>
        <pt x="443" y="633" on="0"/>
        <pt x="430" y="630" on="1"/>
        <pt x="415" y="625" on="0"/>
        <pt x="400" y="605" on="0"/>
        <pt x="389" y="580" on="0"/>
        <pt x="379" y="553" on="0"/>
        <pt x="370" y="542" on="1"/>
        <pt x="366" y="538" on="0"/>
        <pt x="349" y="531" on="0"/>
        <pt x="347" y="523" on="1"/>
        <pt x="345" y="517" on="0"/>
        <pt x="353" y="502" on="0"/>
        <pt x="353" y="496" on="1"/>
        <pt x="353" y="487" on="0"/>
        <pt x="345" y="474" on="0"/>
        <pt x="343" y="466" on="1"/>
        <pt x="338" y="449" on="0"/>
        <pt x="330" y="414" on="0"/>
        <pt x="324" y="395" on="1"/>
        <pt x="318" y="378" on="0"/>
        <pt x="303" y="343" on="0"/>
        <pt x="301" y="327" on="1"/>
        <pt x="296" y="297" on="0"/>
        <pt x="289" y="230" on="0"/>
        <pt x="281" y="202" on="1"/>
        <pt x="275" y="183" on="0"/>
        <pt x="258" y="145" on="0"/>
        <pt x="260" y="128" on="1"/>
        <pt x="261" y="118" on="0"/>
        <pt x="276" y="98" on="0"/>
        <pt x="281" y="89" on="1"/>
        <pt x="295" y="89" on="0"/>
        <pt x="319" y="92" on="0"/>
      </contour>
    </TTGlyph>
    <TTGlyph name="E" xMin="-2" yMin="-32" xMax="846" yMax="736">
      <contour>
        <pt x="841" y="733" on="1"/>
        <pt x="846" y="720" on="0"/>
        <pt x="831" y="702" on="0"/>
        <pt x="821" y="697" on="1"/>
        <pt x="798" y="684" on="0"/>
        <pt x="744" y="667" on="0"/>
        <pt x="721" y="653" on="1"/>
        <pt x="707" y="645" on="0"/>
        <pt x="685" y="623" on="0"/>
        <pt x="668" y="617" on="1"/>
        <pt x="651" y="612" on="0"/>
        <pt x="610" y="610" on="0"/>
        <pt x="588" y="608" on="1"/>
        <pt x="565" y="606" on="0"/>
        <pt x="521" y="596" on="0"/>
        <pt x="503" y="598" on="1"/>
        <pt x="495" y="599" on="0"/>
        <pt x="477" y="604" on="0"/>
        <pt x="469" y="605" on="1"/>
        <pt x="461" y="606" on="0"/>
        <pt x="441" y="602" on="0"/>
        <pt x="432" y="601" on="1"/>
        <pt x="426" y="600" on="0"/>
        <pt x="412" y="602" on="0"/>
        <pt x="404" y="601" on="1"/>
        <pt x="395" y="600" on="0"/>
        <pt x="374" y="598" on="0"/>
        <pt x="354" y="593" on="0"/>
        <pt x="339" y="585" on="0"/>
        <pt x="336" y="578" on="1"/>
        <pt x="331" y="549" on="0"/>
        <pt x="314" y="499" on="0"/>
        <pt x="305" y="474" on="1"/>
        <pt x="300" y="461" on="0"/>
        <pt x="289" y="431" on="0"/>
        <pt x="295" y="417" on="1"/>
        <pt x="338" y="410" on="0"/>
        <pt x="421" y="420" on="0"/>
        <pt x="460" y="417" on="1"/>
        <pt x="471" y="416" on="0"/>
        <pt x="497" y="413" on="0"/>
        <pt x="508" y="411" on="1"/>
        <pt x="516" y="409" on="0"/>
        <pt x="533" y="394" on="0"/>
        <pt x="542" y="392" on="1"/>
        <pt x="556" y="389" on="0"/>
        <pt x="582" y="392" on="0"/>
        <pt x="594" y="390" on="1"/>
        <pt x="603" y="385" on="0"/>
        <pt x="613" y="366" on="0"/>
        <pt x="623" y="360" on="1"/>
        <pt x="629" y="355" on="0"/>
        <pt x="644" y="355" on="0"/>
        <pt x="650" y="349" on="1"/>
        <pt x="650" y="334" on="0"/>
        <pt x="640" y="317" on="0"/>
        <pt x="624" y="311" on="0"/>
        <pt x="602" y="311" on="0"/>
        <pt x="589" y="312" on="1"/>
        <pt x="571" y="314" on="0"/>
        <pt x="524" y="313" on="0"/>
        <pt x="504" y="312" on="1"/>
        <pt x="491" y="312" on="0"/>
        <pt x="467" y="310" on="0"/>
        <pt x="457" y="312" on="1"/>
        <pt x="449" y="314" on="0"/>
        <pt x="436" y="327" on="0"/>
        <pt x="426" y="328" on="1"/>
        <pt x="417" y="330" on="0"/>
        <pt x="394" y="323" on="0"/>
        <pt x="383" y="321" on="1"/>
        <pt x="351" y="315" on="0"/>
        <pt x="294" y="298" on="0"/>
        <pt x="265" y="292" on="1"/>
        <pt x="245" y="252" on="0"/>
        <pt x="233" y="196" on="1"/>
        <pt x="231" y="184" on="0"/>
        <pt x="227" y="160" on="0"/>
        <pt x="229" y="141" on="0"/>
        <pt x="241" y="129" on="0"/>
        <pt x="256" y="129" on="1"/>
        <pt x="269" y="129" on="0"/>
        <pt x="300" y="133" on="0"/>
        <pt x="331" y="137" on="0"/>
        <pt x="364" y="138" on="0"/>
        <pt x="380" y="134" on="1"/>
        <pt x="389" y="132" on="0"/>
        <pt x="407" y="118" on="0"/>
        <pt x="419" y="119" on="1"/>
        <pt x="427" y="120" on="0"/>
        <pt x="441" y="135" on="0"/>
        <pt x="450" y="138" on="1"/>
        <pt x="462" y="143" on="0"/>
        <pt x="492" y="144" on="0"/>
        <pt x="526" y="143" on="0"/>
        <pt x="561" y="140" on="0"/>
        <pt x="577" y="140" on="1"/>
        <pt x="605" y="140" on="0"/>
        <pt x="670" y="136" on="0"/>
        <pt x="693" y="128" on="1"/>
        <pt x="702" y="115" on="0"/>
        <pt x="688" y="89" on="0"/>
        <pt x="675" y="87" on="1"/>
        <pt x="663" y="70" on="0"/>
        <pt x="635" y="56" on="0"/>
        <pt x="611" y="48" on="1"/>
        <pt x="593" y="43" on="0"/>
        <pt x="567" y="27" on="0"/>
        <pt x="545" y="26" on="1"/>
        <pt x="516" y="26" on="0"/>
        <pt x="458" y="27" on="0"/>
        <pt x="429" y="22" on="1"/>
        <pt x="409" y="18" on="0"/>
        <pt x="372" y="8" on="0"/>
        <pt x="352" y="5" on="1"/>
        <pt x="302" y="-3" on="0"/>
        <pt x="209" y="-25" on="0"/>
        <pt x="156" y="-27" on="1"/>
        <pt x="145" y="-28" on="0"/>
        <pt x="123" y="-32" on="0"/>
        <pt x="116" y="-30" on="1"/>
        <pt x="108" y="-29" on="0"/>
        <pt x="98" y="-15" on="0"/>
        <pt x="90" y="-11" on="1"/>
        <pt x="83" y="-9" on="0"/>
        <pt x="71" y="-7" on="0"/>
        <pt x="66" y="-5" on="1"/>
        <pt x="60" y="-2" on="0"/>
        <pt x="50" y="11" on="0"/>
        <pt x="44" y="17" on="1"/>
        <pt x="38" y="24" on="0"/>
        <pt x="25" y="36" on="0"/>
        <pt x="20" y="44" on="1"/>
        <pt x="11" y="61" on="0"/>
        <pt x="-2" y="103" on="0"/>
        <pt x="1" y="129" on="1"/>
        <pt x="3" y="147" on="0"/>
        <pt x="23" y="182" on="0"/>
        <pt x="28" y="202" on="1"/>
        <pt x="32" y="219" on="0"/>
        <pt x="32" y="251" on="0"/>
        <pt x="36" y="268" on="1"/>
        <pt x="50" y="283" on="0"/>
        <pt x="61" y="317" on="0"/>
        <pt x="68" y="343" on="1"/>
        <pt x="70" y="352" on="0"/>
        <pt x="78" y="372" on="0"/>
        <pt x="78" y="380" on="1"/>
        <pt x="79" y="389" on="0"/>
        <pt x="72" y="406" on="0"/>
        <pt x="72" y="416" on="1"/>
        <pt x="72" y="427" on="0"/>
        <pt x="84" y="457" on="0"/>
        <pt x="89" y="471" on="1"/>
        <pt x="94" y="487" on="0"/>
        <pt x="99" y="517" on="0"/>
        <pt x="103" y="531" on="1"/>
        <pt x="105" y="538" on="0"/>
        <pt x="112" y="549" on="0"/>
        <pt x="114" y="555" on="1"/>
        <pt x="117" y="568" on="0"/>
        <pt x="121" y="598" on="0"/>
        <pt x="123" y="628" on="0"/>
        <pt x="120" y="656" on="0"/>
        <pt x="115" y="667" on="1"/>
        <pt x="111" y="673" on="0"/>
        <pt x="91" y="693" on="0"/>
        <pt x="86" y="698" on="1"/>
        <pt x="81" y="702" on="0"/>
        <pt x="67" y="708" on="0"/>
        <pt x="67" y="713" on="1"/>
        <pt x="66" y="719" on="0"/>
        <pt x="74" y="725" on="0"/>
        <pt x="84" y="727" on="0"/>
        <pt x="96" y="726" on="0"/>
        <pt x="100" y="726" on="1"/>
        <pt x="132" y="722" on="0"/>
        <pt x="192" y="715" on="0"/>
        <pt x="228" y="718" on="1"/>
        <pt x="236" y="719" on="0"/>
        <pt x="260" y="722" on="0"/>
        <pt x="285" y="725" on="0"/>
        <pt x="308" y="727" on="0"/>
        <pt x="315" y="726" on="1"/>
        <pt x="318" y="725" on="0"/>
        <pt x="325" y="721" on="0"/>
        <pt x="330" y="719" on="1"/>
        <pt x="349" y="712" on="0"/>
        <pt x="399" y="705" on="0"/>
        <pt x="425" y="713" on="1"/>
        <pt x="464" y="708" on="0"/>
        <pt x="550" y="720" on="0"/>
        <pt x="593" y="722" on="1"/>
        <pt x="604" y="723" on="0"/>
        <pt x="626" y="718" on="0"/>
        <pt x="638" y="717" on="1"/>
        <pt x="655" y="715" on="0"/>
        <pt x="694" y="717" on="0"/>
        <pt x="714" y="719" on="1"/>
        <pt x="731" y="721" on="0"/>
        <pt x="768" y="722" on="0"/>
        <pt x="783" y="725" on="1"/>
        <pt x="796" y="727" on="0"/>
        <pt x="825" y="736" on="0"/>
      </contour>
    </TTGlyph>
    <TTGlyph name="Eacute" xMin="-2" yMin="-32" xMax="846" yMax="965">
      <component glyphName="E" x="0" y="0" flags="0x204"/>
      <component glyphName="acute" x="10" y="205" flags="0x4"/>
    </TTGlyph>
    <TTGlyph name="Ecircumflex" xMin="-2" yMin="-32" xMax="846" yMax="970">
      <component glyphName="E" x="0" y="0" flags="0x204"/>
      <component glyphName="circumflex" x="-50" y="236" flags="0x4"/>
    </TTGlyph>
    <TTGlyph name="Edieresis" xMin="-2" yMin="-32" xMax="846" yMax="923">
      <component glyphName="E" x="0" y="0" flags="0x204"/>
      <component glyphName="dieresis" x="-50" y="195" flags="0x4"/>
    </TTGlyph>
    <TTGlyph name="Egrave" xMin="-2" yMin="-32" xMax="846" yMax="988">
      <component glyphName="E" x="0" y="0" flags="0x204"/>
      <component glyphName="grave" x="-81" y="225" flags="0x4"/>
    </TTGlyph>
    <TTGlyph name="Eth" xMin="-93" yMin="-34" xMax="863" yMax="756">
      <contour>
        <pt x="846" y="503" on="1"/>
        <pt x="854" y="481" on="0"/>
        <pt x="863" y="420" on="0"/>
        <pt x="854" y="388" on="1"/>
        <pt x="852" y="381" on="0"/>
        <pt x="844" y="369" on="0"/>
        <pt x="842" y="362" on="1"/>
        <pt x="828" y="326" on="0"/>
        <pt x="792" y="259" on="0"/>
        <pt x="761" y="227" on="1"/>
        <pt x="751" y="227" on="0"/>
        <pt x="741" y="223" on="1"/>
        <pt x="734" y="212" on="0"/>
        <pt x="725" y="188" on="0"/>
        <pt x="717" y="179" on="1"/>
        <pt x="713" y="174" on="0"/>
        <pt x="700" y="166" on="0"/>
        <pt x="695" y="160" on="1"/>
        <pt x="674" y="134" on="0"/>
        <pt x="622" y="79" on="0"/>
        <pt x="595" y="62" on="1"/>
        <pt x="587" y="57" on="0"/>
        <pt x="568" y="47" on="0"/>
        <pt x="561" y="44" on="1"/>
        <pt x="556" y="42" on="0"/>
        <pt x="547" y="42" on="0"/>
        <pt x="542" y="40" on="1"/>
        <pt x="531" y="35" on="0"/>
        <pt x="515" y="18" on="0"/>
        <pt x="506" y="11" on="1"/>
        <pt x="485" y="14" on="0"/>
        <pt x="447" y="1" on="0"/>
        <pt x="426" y="1" on="1"/>
        <pt x="393" y="1" on="0"/>
        <pt x="314" y="-4" on="0"/>
        <pt x="274" y="-6" on="1"/>
        <pt x="260" y="-7" on="0"/>
        <pt x="233" y="-9" on="0"/>
        <pt x="217" y="-9" on="1"/>
        <pt x="191" y="-10" on="0"/>
        <pt x="143" y="-8" on="0"/>
        <pt x="120" y="-8" on="1"/>
        <pt x="91" y="-7" on="0"/>
        <pt x="42" y="-17" on="0"/>
        <pt x="12" y="-20" on="1"/>
        <pt x="-8" y="-22" on="0"/>
        <pt x="-45" y="-34" on="0"/>
        <pt x="-59" y="-34" on="1"/>
        <pt x="-64" y="-34" on="0"/>
        <pt x="-76" y="-31" on="0"/>
        <pt x="-86" y="-25" on="0"/>
        <pt x="-93" y="-17" on="0"/>
        <pt x="-92" y="-11" on="1"/>
        <pt x="-91" y="-7" on="0"/>
        <pt x="-81" y="2" on="0"/>
        <pt x="-67" y="10" on="0"/>
        <pt x="-53" y="17" on="0"/>
        <pt x="-48" y="20" on="1"/>
        <pt x="-25" y="36" on="0"/>
        <pt x="1" y="62" on="0"/>
        <pt x="15" y="88" on="1"/>
        <pt x="20" y="97" on="0"/>
        <pt x="29" y="110" on="0"/>
        <pt x="35" y="122" on="0"/>
        <pt x="39" y="136" on="0"/>
        <pt x="39" y="147" on="1"/>
        <pt x="42" y="154" on="0"/>
        <pt x="57" y="159" on="0"/>
        <pt x="59" y="167" on="1"/>
        <pt x="61" y="174" on="0"/>
        <pt x="55" y="185" on="0"/>
        <pt x="56" y="193" on="1"/>
        <pt x="56" y="197" on="0"/>
        <pt x="60" y="206" on="0"/>
        <pt x="62" y="211" on="1"/>
        <pt x="65" y="223" on="0"/>
        <pt x="69" y="248" on="0"/>
        <pt x="74" y="272" on="0"/>
        <pt x="82" y="292" on="0"/>
        <pt x="90" y="298" on="1"/>
        <pt x="91" y="303" on="0"/>
        <pt x="92" y="312" on="0"/>
        <pt x="94" y="317" on="1"/>
        <pt x="45" y="314" on="1"/>
        <pt x="31" y="316" on="0"/>
        <pt x="8" y="312" on="0"/>
        <pt x="-15" y="308" on="0"/>
        <pt x="-39" y="307" on="0"/>
        <pt x="-53" y="311" on="1"/>
        <pt x="-58" y="318" on="0"/>
        <pt x="-60" y="330" on="0"/>
        <pt x="-57" y="343" on="0"/>
        <pt x="-52" y="356" on="0"/>
        <pt x="-51" y="364" on="1"/>
        <pt x="-36" y="377" on="0"/>
        <pt x="8" y="386" on="0"/>
        <pt x="55" y="392" on="0"/>
        <pt x="100" y="400" on="0"/>
        <pt x="117" y="411" on="1"/>
        <pt x="122" y="421" on="0"/>
        <pt x="125" y="434" on="1"/>
        <pt x="131" y="460" on="0"/>
        <pt x="143" y="509" on="0"/>
        <pt x="148" y="531" on="1"/>
        <pt x="151" y="542" on="0"/>
        <pt x="149" y="561" on="0"/>
        <pt x="151" y="570" on="1"/>
        <pt x="154" y="590" on="0"/>
        <pt x="160" y="626" on="0"/>
        <pt x="157" y="643" on="1"/>
        <pt x="155" y="649" on="0"/>
        <pt x="147" y="662" on="0"/>
        <pt x="145" y="670" on="1"/>
        <pt x="143" y="675" on="0"/>
        <pt x="143" y="684" on="0"/>
        <pt x="141" y="689" on="1"/>
        <pt x="137" y="698" on="0"/>
        <pt x="122" y="707" on="0"/>
        <pt x="108" y="717" on="0"/>
        <pt x="99" y="732" on="0"/>
        <pt x="101" y="746" on="1"/>
        <pt x="108" y="753" on="0"/>
        <pt x="128" y="756" on="0"/>
        <pt x="151" y="753" on="0"/>
        <pt x="175" y="746" on="0"/>
        <pt x="186" y="744" on="1"/>
        <pt x="201" y="742" on="0"/>
        <pt x="235" y="743" on="0"/>
        <pt x="272" y="745" on="0"/>
        <pt x="309" y="745" on="0"/>
        <pt x="326" y="743" on="1"/>
        <pt x="331" y="742" on="0"/>
        <pt x="336" y="738" on="0"/>
        <pt x="340" y="738" on="1"/>
        <pt x="348" y="739" on="0"/>
        <pt x="359" y="746" on="0"/>
        <pt x="367" y="748" on="1"/>
        <pt x="404" y="753" on="0"/>
        <pt x="471" y="736" on="0"/>
        <pt x="504" y="731" on="1"/>
        <pt x="536" y="726" on="0"/>
        <pt x="601" y="720" on="0"/>
        <pt x="622" y="707" on="1"/>
        <pt x="633" y="699" on="0"/>
        <pt x="651" y="680" on="0"/>
        <pt x="662" y="674" on="1"/>
        <pt x="679" y="665" on="0"/>
        <pt x="718" y="653" on="0"/>
        <pt x="735" y="645" on="1"/>
        <pt x="740" y="643" on="0"/>
        <pt x="748" y="636" on="0"/>
        <pt x="753" y="634" on="1"/>
        <pt x="761" y="629" on="0"/>
        <pt x="775" y="625" on="0"/>
        <pt x="782" y="618" on="1"/>
        <pt x="789" y="613" on="0"/>
        <pt x="798" y="597" on="0"/>
        <pt x="803" y="589" on="1"/>
        <pt x="812" y="575" on="0"/>
        <pt x="832" y="555" on="0"/>
        <pt x="838" y="538" on="1"/>
        <pt x="840" y="529" on="0"/>
        <pt x="843" y="511" on="0"/>
      </contour>
      <contour>
        <pt x="635" y="442" on="1"/>
        <pt x="636" y="452" on="0"/>
        <pt x="623" y="461" on="0"/>
        <pt x="622" y="470" on="1"/>
        <pt x="621" y="476" on="0"/>
        <pt x="625" y="489" on="0"/>
        <pt x="625" y="496" on="1"/>
        <pt x="625" y="510" on="0"/>
        <pt x="618" y="541" on="0"/>
        <pt x="606" y="570" on="0"/>
        <pt x="588" y="594" on="0"/>
        <pt x="578" y="601" on="1"/>
        <pt x="568" y="608" on="0"/>
        <pt x="530" y="622" on="0"/>
        <pt x="486" y="631" on="0"/>
        <pt x="443" y="633" on="0"/>
        <pt x="430" y="630" on="1"/>
        <pt x="415" y="625" on="0"/>
        <pt x="400" y="605" on="0"/>
        <pt x="389" y="580" on="0"/>
        <pt x="379" y="553" on="0"/>
        <pt x="370" y="542" on="1"/>
        <pt x="366" y="538" on="0"/>
        <pt x="349" y="531" on="0"/>
        <pt x="347" y="523" on="1"/>
        <pt x="345" y="517" on="0"/>
        <pt x="353" y="502" on="0"/>
        <pt x="353" y="496" on="1"/>
        <pt x="353" y="487" on="0"/>
        <pt x="345" y="474" on="0"/>
        <pt x="343" y="466" on="1"/>
        <pt x="339" y="453" on="0"/>
        <pt x="333" y="424" on="0"/>
        <pt x="328" y="410" on="1"/>
        <pt x="343" y="410" on="1"/>
        <pt x="365" y="410" on="0"/>
        <pt x="399" y="414" on="0"/>
        <pt x="425" y="415" on="1"/>
        <pt x="442" y="416" on="0"/>
        <pt x="477" y="414" on="0"/>
        <pt x="482" y="402" on="1"/>
        <pt x="484" y="400" on="0"/>
        <pt x="480" y="382" on="0"/>
        <pt x="477" y="378" on="1"/>
        <pt x="471" y="371" on="0"/>
        <pt x="434" y="363" on="0"/>
        <pt x="422" y="355" on="1"/>
        <pt x="417" y="352" on="0"/>
        <pt x="405" y="340" on="0"/>
        <pt x="398" y="338" on="1"/>
        <pt x="386" y="334" on="0"/>
        <pt x="352" y="336" on="0"/>
        <pt x="338" y="335" on="1"/>
        <pt x="328" y="334" on="0"/>
        <pt x="310" y="333" on="0"/>
        <pt x="302" y="331" on="1"/>
        <pt x="296" y="297" on="0"/>
        <pt x="289" y="230" on="0"/>
        <pt x="281" y="202" on="1"/>
        <pt x="275" y="183" on="0"/>
        <pt x="258" y="145" on="0"/>
        <pt x="260" y="128" on="1"/>
        <pt x="261" y="118" on="0"/>
        <pt x="276" y="98" on="0"/>
        <pt x="281" y="89" on="1"/>
        <pt x="295" y="89" on="0"/>
        <pt x="319" y="92" on="0"/>
        <pt x="333" y="91" on="1"/>
        <pt x="343" y="90" on="0"/>
        <pt x="360" y="84" on="0"/>
        <pt x="369" y="83" on="1"/>
        <pt x="389" y="82" on="0"/>
        <pt x="418" y="102" on="0"/>
        <pt x="430" y="110" on="1"/>
        <pt x="439" y="115" on="0"/>
        <pt x="459" y="123" on="0"/>
        <pt x="465" y="127" on="1"/>
        <pt x="486" y="140" on="0"/>
        <pt x="521" y="180" on="0"/>
        <pt x="551" y="228" on="0"/>
        <pt x="576" y="279" on="0"/>
        <pt x="587" y="302" on="1"/>
        <pt x="594" y="316" on="0"/>
        <pt x="608" y="343" on="0"/>
        <pt x="613" y="356" on="1"/>
        <pt x="619" y="373" on="0"/>
        <pt x="615" y="404" on="0"/>
        <pt x="620" y="419" on="1"/>
        <pt x="622" y="424" on="0"/>
        <pt x="634" y="435" on="0"/>
      </contour>
    </TTGlyph>
    <TTGlyph name="Euro" xMin="5" yMin="75" xMax="518" yMax="659">
      <contour>
        <pt x="239" y="447" on="1"/>
        <pt x="255" y="442" on="0"/>
        <pt x="282" y="445" on="0"/>
        <pt x="302" y="445" on="1"/>
        <pt x="313" y="445" on="0"/>
        <pt x="338" y="440" on="0"/>
        <pt x="350" y="439" on="1"/>
        <pt x="364" y="438" on="0"/>
        <pt x="389" y="439" on="0"/>
        <pt x="398" y="434" on="1"/>
        <pt x="401" y="435" on="0"/>
        <pt x="409" y="435" on="0"/>
        <pt x="412" y="436" on="1"/>
        <pt x="417" y="433" on="0"/>
        <pt x="425" y="428" on="0"/>
        <pt x="424" y="422" on="1"/>
        <pt x="422" y="408" on="0"/>
        <pt x="385" y="400" on="0"/>
        <pt x="368" y="398" on="1"/>
        <pt x="354" y="396" on="0"/>
        <pt x="332" y="400" on="0"/>
        <pt x="324" y="398" on="1"/>
        <pt x="316" y="396" on="0"/>
        <pt x="309" y="391" on="0"/>
        <pt x="304" y="389" on="1"/>
        <pt x="293" y="386" on="0"/>
        <pt x="277" y="385" on="0"/>
        <pt x="264" y="384" on="1"/>
        <pt x="250" y="383" on="0"/>
        <pt x="217" y="381" on="0"/>
        <pt x="205" y="379" on="1"/>
        <pt x="194" y="372" on="0"/>
        <pt x="192" y="340" on="0"/>
        <pt x="190" y="328" on="1"/>
        <pt x="220" y="331" on="0"/>
        <pt x="277" y="337" on="0"/>
        <pt x="312" y="332" on="1"/>
        <pt x="325" y="330" on="0"/>
        <pt x="349" y="326" on="0"/>
        <pt x="369" y="326" on="1"/>
        <pt x="377" y="327" on="0"/>
        <pt x="398" y="325" on="0"/>
        <pt x="398" y="317" on="1"/>
        <pt x="397" y="311" on="0"/>
        <pt x="377" y="301" on="0"/>
        <pt x="371" y="300" on="1"/>
        <pt x="364" y="299" on="0"/>
        <pt x="352" y="301" on="0"/>
        <pt x="346" y="300" on="1"/>
        <pt x="340" y="299" on="0"/>
        <pt x="328" y="296" on="0"/>
        <pt x="323" y="296" on="1"/>
        <pt x="311" y="294" on="0"/>
        <pt x="288" y="294" on="0"/>
        <pt x="276" y="292" on="1"/>
        <pt x="269" y="290" on="0"/>
        <pt x="261" y="285" on="0"/>
        <pt x="253" y="280" on="0"/>
        <pt x="244" y="275" on="0"/>
        <pt x="237" y="273" on="1"/>
        <pt x="232" y="271" on="0"/>
        <pt x="220" y="271" on="0"/>
        <pt x="215" y="269" on="1"/>
        <pt x="206" y="267" on="0"/>
        <pt x="183" y="262" on="0"/>
        <pt x="171" y="260" on="1"/>
        <pt x="166" y="246" on="0"/>
        <pt x="167" y="225" on="0"/>
        <pt x="175" y="207" on="0"/>
        <pt x="186" y="191" on="0"/>
        <pt x="190" y="183" on="1"/>
        <pt x="190" y="178" on="0"/>
        <pt x="187" y="169" on="0"/>
        <pt x="188" y="167" on="1"/>
        <pt x="189" y="165" on="0"/>
        <pt x="198" y="167" on="0"/>
        <pt x="201" y="166" on="1"/>
        <pt x="211" y="160" on="0"/>
        <pt x="230" y="152" on="0"/>
        <pt x="251" y="147" on="0"/>
        <pt x="277" y="146" on="0"/>
        <pt x="294" y="148" on="1"/>
        <pt x="312" y="151" on="0"/>
        <pt x="352" y="149" on="0"/>
        <pt x="367" y="155" on="1"/>
        <pt x="389" y="163" on="0"/>
        <pt x="416" y="159" on="1"/>
        <pt x="429" y="152" on="0"/>
        <pt x="425" y="140" on="0"/>
        <pt x="407" y="130" on="0"/>
        <pt x="383" y="121" on="0"/>
        <pt x="375" y="118" on="1"/>
        <pt x="353" y="108" on="0"/>
        <pt x="312" y="81" on="0"/>
        <pt x="281" y="77" on="1"/>
        <pt x="265" y="75" on="0"/>
        <pt x="231" y="77" on="0"/>
        <pt x="213" y="78" on="1"/>
        <pt x="186" y="79" on="0"/>
        <pt x="148" y="88" on="0"/>
        <pt x="141" y="106" on="1"/>
        <pt x="132" y="105" on="0"/>
        <pt x="119" y="110" on="0"/>
        <pt x="110" y="118" on="0"/>
        <pt x="102" y="127" on="0"/>
        <pt x="97" y="132" on="1"/>
        <pt x="86" y="141" on="0"/>
        <pt x="78" y="158" on="1"/>
        <pt x="78" y="176" on="0"/>
        <pt x="59" y="210" on="0"/>
        <pt x="58" y="232" on="1"/>
        <pt x="57" y="241" on="0"/>
        <pt x="61" y="259" on="0"/>
        <pt x="58" y="264" on="1"/>
        <pt x="55" y="270" on="0"/>
        <pt x="40" y="271" on="0"/>
        <pt x="23" y="269" on="0"/>
        <pt x="9" y="269" on="0"/>
        <pt x="6" y="275" on="1"/>
        <pt x="5" y="290" on="0"/>
        <pt x="5" y="322" on="0"/>
        <pt x="15" y="335" on="1"/>
        <pt x="28" y="339" on="0"/>
        <pt x="52" y="340" on="0"/>
        <pt x="67" y="340" on="1"/>
        <pt x="69" y="346" on="0"/>
        <pt x="75" y="369" on="0"/>
        <pt x="73" y="375" on="1"/>
        <pt x="65" y="379" on="0"/>
        <pt x="40" y="374" on="0"/>
        <pt x="33" y="381" on="1"/>
        <pt x="31" y="393" on="0"/>
        <pt x="25" y="421" on="0"/>
        <pt x="33" y="436" on="1"/>
        <pt x="46" y="440" on="0"/>
        <pt x="84" y="437" on="0"/>
        <pt x="98" y="438" on="1"/>
        <pt x="106" y="453" on="0"/>
        <pt x="119" y="480" on="0"/>
        <pt x="127" y="495" on="1"/>
        <pt x="130" y="500" on="0"/>
        <pt x="134" y="509" on="0"/>
        <pt x="136" y="513" on="1"/>
        <pt x="140" y="518" on="0"/>
        <pt x="152" y="523" on="0"/>
        <pt x="154" y="528" on="1"/>
        <pt x="159" y="536" on="0"/>
        <pt x="162" y="551" on="0"/>
        <pt x="167" y="558" on="1"/>
        <pt x="175" y="567" on="0"/>
        <pt x="201" y="578" on="0"/>
        <pt x="209" y="590" on="1"/>
        <pt x="211" y="594" on="0"/>
        <pt x="214" y="601" on="0"/>
        <pt x="216" y="604" on="1"/>
        <pt x="219" y="609" on="0"/>
        <pt x="240" y="623" on="0"/>
        <pt x="245" y="625" on="1"/>
        <pt x="251" y="628" on="0"/>
        <pt x="271" y="636" on="0"/>
        <pt x="281" y="639" on="1"/>
        <pt x="304" y="647" on="0"/>
        <pt x="353" y="659" on="0"/>
        <pt x="385" y="657" on="1"/>
        <pt x="397" y="656" on="0"/>
        <pt x="418" y="648" on="0"/>
        <pt x="438" y="640" on="0"/>
        <pt x="460" y="634" on="0"/>
        <pt x="473" y="634" on="1"/>
        <pt x="481" y="634" on="0"/>
        <pt x="514" y="633" on="0"/>
        <pt x="516" y="624" on="1"/>
        <pt x="518" y="610" on="0"/>
        <pt x="495" y="601" on="0"/>
        <pt x="483" y="598" on="1"/>
        <pt x="475" y="596" on="0"/>
        <pt x="463" y="586" on="0"/>
        <pt x="458" y="585" on="1"/>
        <pt x="432" y="584" on="0"/>
        <pt x="373" y="580" on="0"/>
        <pt x="345" y="570" on="1"/>
        <pt x="325" y="564" on="0"/>
        <pt x="302" y="549" on="0"/>
        <pt x="288" y="535" on="1"/>
        <pt x="279" y="526" on="0"/>
        <pt x="262" y="511" on="0"/>
        <pt x="247" y="492" on="0"/>
        <pt x="239" y="466" on="0"/>
      </contour>
    </TTGlyph>
    <TTGlyph name="F" xMin="-10" yMin="-56" xMax="892" yMax="759">
      <contour>
        <pt x="892" y="757" on="1"/>
        <pt x="887" y="741" on="0"/>
        <pt x="868" y="720" on="0"/>
        <pt x="849" y="699" on="0"/>
        <pt x="835" y="672" on="0"/>
        <pt x="835" y="650" on="1"/>
        <pt x="818" y="629" on="0"/>
        <pt x="775" y="621" on="0"/>
        <pt x="746" y="618" on="1"/>
        <pt x="716" y="615" on="0"/>
        <pt x="663" y="613" on="0"/>
        <pt x="633" y="620" on="1"/>
        <pt x="621" y="622" on="0"/>
        <pt x="598" y="629" on="0"/>
        <pt x="585" y="631" on="1"/>
        <pt x="565" y="633" on="0"/>
        <pt x="518" y="632" on="0"/>
        <pt x="498" y="630" on="1"/>
        <pt x="463" y="627" on="0"/>
        <pt x="422" y="612" on="0"/>
        <pt x="402" y="594" on="1"/>
        <pt x="394" y="587" on="0"/>
        <pt x="381" y="563" on="0"/>
        <pt x="373" y="552" on="1"/>
        <pt x="368" y="546" on="0"/>
        <pt x="356" y="538" on="0"/>
        <pt x="353" y="532" on="1"/>
        <pt x="350" y="527" on="0"/>
        <pt x="347" y="512" on="0"/>
        <pt x="345" y="504" on="1"/>
        <pt x="340" y="487" on="0"/>
        <pt x="326" y="443" on="0"/>
        <pt x="323" y="422" on="1"/>
        <pt x="333" y="415" on="0"/>
        <pt x="357" y="413" on="0"/>
        <pt x="384" y="416" on="0"/>
        <pt x="412" y="422" on="0"/>
        <pt x="425" y="423" on="1"/>
        <pt x="445" y="425" on="0"/>
        <pt x="486" y="424" on="0"/>
        <pt x="504" y="426" on="1"/>
        <pt x="521" y="427" on="0"/>
        <pt x="550" y="421" on="0"/>
        <pt x="566" y="419" on="1"/>
        <pt x="584" y="417" on="0"/>
        <pt x="618" y="413" on="0"/>
        <pt x="618" y="401" on="1"/>
        <pt x="618" y="396" on="0"/>
        <pt x="604" y="382" on="0"/>
        <pt x="599" y="380" on="1"/>
        <pt x="586" y="372" on="0"/>
        <pt x="556" y="366" on="0"/>
        <pt x="527" y="360" on="0"/>
        <pt x="499" y="351" on="0"/>
        <pt x="489" y="342" on="1"/>
        <pt x="482" y="336" on="0"/>
        <pt x="470" y="315" on="0"/>
        <pt x="460" y="310" on="1"/>
        <pt x="454" y="307" on="0"/>
        <pt x="438" y="307" on="0"/>
        <pt x="430" y="306" on="1"/>
        <pt x="394" y="299" on="0"/>
        <pt x="313" y="278" on="0"/>
        <pt x="283" y="265" on="1"/>
        <pt x="278" y="255" on="0"/>
        <pt x="273" y="231" on="0"/>
        <pt x="268" y="206" on="0"/>
        <pt x="259" y="185" on="0"/>
        <pt x="251" y="178" on="1"/>
        <pt x="254" y="158" on="0"/>
        <pt x="246" y="124" on="0"/>
        <pt x="242" y="101" on="1"/>
        <pt x="240" y="86" on="0"/>
        <pt x="235" y="52" on="0"/>
        <pt x="230" y="40" on="1"/>
        <pt x="229" y="36" on="0"/>
        <pt x="222" y="23" on="0"/>
        <pt x="214" y="10" on="0"/>
        <pt x="206" y="0" on="0"/>
        <pt x="203" y="-1" on="1"/>
        <pt x="195" y="-5" on="0"/>
        <pt x="175" y="0" on="0"/>
        <pt x="167" y="-2" on="1"/>
        <pt x="157" y="-5" on="0"/>
        <pt x="143" y="-19" on="0"/>
        <pt x="131" y="-35" on="0"/>
        <pt x="118" y="-51" on="0"/>
        <pt x="109" y="-56" on="1"/>
        <pt x="100" y="-55" on="0"/>
        <pt x="81" y="-54" on="0"/>
        <pt x="64" y="-50" on="0"/>
        <pt x="51" y="-42" on="0"/>
        <pt x="48" y="-34" on="1"/>
        <pt x="29" y="-48" on="0"/>
        <pt x="-4" y="-29" on="0"/>
        <pt x="-10" y="-12" on="1"/>
        <pt x="7" y="26" on="0"/>
        <pt x="43" y="115" on="0"/>
        <pt x="56" y="161" on="1"/>
        <pt x="61" y="181" on="0"/>
        <pt x="63" y="239" on="0"/>
        <pt x="65" y="262" on="1"/>
        <pt x="67" y="273" on="0"/>
        <pt x="77" y="295" on="0"/>
        <pt x="76" y="306" on="1"/>
        <pt x="76" y="315" on="0"/>
        <pt x="62" y="331" on="0"/>
        <pt x="48" y="349" on="0"/>
        <pt x="43" y="369" on="0"/>
        <pt x="51" y="381" on="1"/>
        <pt x="55" y="387" on="0"/>
        <pt x="72" y="391" on="0"/>
        <pt x="90" y="394" on="0"/>
        <pt x="107" y="400" on="0"/>
        <pt x="110" y="406" on="1"/>
        <pt x="107" y="418" on="0"/>
        <pt x="124" y="432" on="0"/>
        <pt x="126" y="440" on="1"/>
        <pt x="128" y="447" on="0"/>
        <pt x="126" y="465" on="0"/>
        <pt x="128" y="475" on="1"/>
        <pt x="130" y="483" on="0"/>
        <pt x="137" y="499" on="0"/>
        <pt x="139" y="507" on="1"/>
        <pt x="141" y="514" on="0"/>
        <pt x="138" y="528" on="0"/>
        <pt x="140" y="536" on="1"/>
        <pt x="142" y="541" on="0"/>
        <pt x="155" y="556" on="0"/>
        <pt x="156" y="562" on="1"/>
        <pt x="156" y="567" on="0"/>
        <pt x="147" y="574" on="0"/>
        <pt x="145" y="579" on="1"/>
        <pt x="144" y="585" on="0"/>
        <pt x="150" y="596" on="0"/>
        <pt x="150" y="602" on="1"/>
        <pt x="150" y="610" on="0"/>
        <pt x="143" y="630" on="0"/>
        <pt x="141" y="640" on="1"/>
        <pt x="139" y="650" on="0"/>
        <pt x="136" y="671" on="0"/>
        <pt x="134" y="677" on="1"/>
        <pt x="131" y="686" on="0"/>
        <pt x="111" y="703" on="0"/>
        <pt x="97" y="719" on="0"/>
        <pt x="97" y="735" on="0"/>
        <pt x="112" y="741" on="1"/>
        <pt x="182" y="729" on="0"/>
        <pt x="343" y="730" on="0"/>
        <pt x="423" y="728" on="1"/>
        <pt x="436" y="728" on="0"/>
        <pt x="453" y="726" on="0"/>
        <pt x="468" y="724" on="0"/>
        <pt x="483" y="724" on="0"/>
        <pt x="494" y="724" on="1"/>
        <pt x="518" y="724" on="0"/>
        <pt x="568" y="734" on="0"/>
        <pt x="593" y="736" on="1"/>
        <pt x="631" y="740" on="0"/>
        <pt x="698" y="733" on="0"/>
        <pt x="730" y="735" on="1"/>
        <pt x="768" y="738" on="0"/>
        <pt x="832" y="748" on="0"/>
        <pt x="868" y="757" on="1"/>
        <pt x="872" y="759" on="0"/>
        <pt x="886" y="759" on="0"/>
      </contour>
    </TTGlyph>
    <TTGlyph name="G" xMin="7" yMin="-225" xMax="900" yMax="744">
      <contour>
        <pt x="335" y="520" on="1"/>
        <pt x="330" y="518" on="0"/>
        <pt x="316" y="517" on="0"/>
        <pt x="311" y="514" on="1"/>
        <pt x="309" y="506" on="0"/>
        <pt x="306" y="490" on="0"/>
        <pt x="308" y="482" on="1"/>
        <pt x="298" y="459" on="0"/>
        <pt x="269" y="413" on="0"/>
        <pt x="255" y="395" on="1"/>
        <pt x="245" y="359" on="0"/>
        <pt x="228" y="298" on="0"/>
        <pt x="228" y="254" on="1"/>
        <pt x="226" y="249" on="0"/>
        <pt x="222" y="237" on="0"/>
        <pt x="222" y="229" on="1"/>
        <pt x="222" y="223" on="0"/>
        <pt x="229" y="213" on="0"/>
        <pt x="229" y="207" on="1"/>
        <pt x="231" y="198" on="0"/>
        <pt x="222" y="180" on="0"/>
        <pt x="222" y="171" on="1"/>
        <pt x="222" y="164" on="0"/>
        <pt x="228" y="154" on="0"/>
        <pt x="226" y="147" on="1"/>
        <pt x="239" y="133" on="0"/>
        <pt x="266" y="117" on="0"/>
        <pt x="276" y="100" on="1"/>
        <pt x="279" y="100" on="0"/>
        <pt x="292" y="92" on="0"/>
        <pt x="308" y="83" on="0"/>
        <pt x="327" y="74" on="0"/>
        <pt x="335" y="73" on="1"/>
        <pt x="347" y="72" on="0"/>
        <pt x="365" y="75" on="0"/>
        <pt x="382" y="77" on="1"/>
        <pt x="426" y="82" on="0"/>
        <pt x="494" y="128" on="0"/>
        <pt x="514" y="154" on="1"/>
        <pt x="514" y="174" on="0"/>
        <pt x="522" y="202" on="0"/>
        <pt x="530" y="216" on="1"/>
        <pt x="535" y="224" on="0"/>
        <pt x="547" y="234" on="0"/>
        <pt x="548" y="246" on="1"/>
        <pt x="549" y="252" on="0"/>
        <pt x="548" y="267" on="0"/>
        <pt x="549" y="275" on="1"/>
        <pt x="550" y="283" on="0"/>
        <pt x="540" y="298" on="0"/>
        <pt x="538" y="303" on="1"/>
        <pt x="536" y="311" on="0"/>
        <pt x="510" y="331" on="0"/>
        <pt x="502" y="337" on="1"/>
        <pt x="495" y="342" on="0"/>
        <pt x="479" y="354" on="0"/>
        <pt x="470" y="366" on="0"/>
        <pt x="472" y="379" on="0"/>
        <pt x="484" y="384" on="1"/>
        <pt x="505" y="383" on="0"/>
        <pt x="553" y="377" on="0"/>
        <pt x="604" y="372" on="0"/>
        <pt x="654" y="368" on="0"/>
        <pt x="675" y="370" on="1"/>
        <pt x="689" y="371" on="0"/>
        <pt x="705" y="374" on="0"/>
        <pt x="717" y="377" on="0"/>
        <pt x="732" y="381" on="0"/>
        <pt x="745" y="383" on="1"/>
        <pt x="753" y="384" on="0"/>
        <pt x="764" y="382" on="0"/>
        <pt x="769" y="382" on="1"/>
        <pt x="776" y="384" on="0"/>
        <pt x="790" y="391" on="0"/>
        <pt x="798" y="392" on="1"/>
        <pt x="808" y="393" on="0"/>
        <pt x="823" y="391" on="0"/>
        <pt x="836" y="387" on="0"/>
        <pt x="852" y="383" on="0"/>
        <pt x="863" y="382" on="1"/>
        <pt x="881" y="380" on="0"/>
        <pt x="900" y="376" on="0"/>
        <pt x="900" y="362" on="1"/>
        <pt x="900" y="353" on="0"/>
        <pt x="887" y="345" on="0"/>
        <pt x="868" y="342" on="0"/>
        <pt x="847" y="341" on="0"/>
        <pt x="838" y="340" on="1"/>
        <pt x="828" y="338" on="0"/>
        <pt x="818" y="333" on="0"/>
        <pt x="812" y="327" on="0"/>
        <pt x="807" y="320" on="0"/>
        <pt x="801" y="318" on="1"/>
        <pt x="795" y="316" on="0"/>
        <pt x="785" y="311" on="0"/>
        <pt x="779" y="309" on="1"/>
        <pt x="766" y="304" on="0"/>
        <pt x="756" y="282" on="0"/>
        <pt x="748" y="270" on="1"/>
        <pt x="740" y="261" on="0"/>
        <pt x="739" y="248" on="0"/>
        <pt x="733" y="240" on="1"/>
        <pt x="723" y="225" on="0"/>
        <pt x="705" y="177" on="0"/>
        <pt x="698" y="158" on="1"/>
        <pt x="686" y="125" on="0"/>
        <pt x="677" y="52" on="0"/>
        <pt x="669" y="18" on="1"/>
        <pt x="666" y="7" on="0"/>
        <pt x="665" y="-18" on="0"/>
        <pt x="663" y="-30" on="1"/>
        <pt x="660" y="-38" on="0"/>
        <pt x="653" y="-55" on="0"/>
        <pt x="652" y="-63" on="1"/>
        <pt x="650" y="-72" on="0"/>
        <pt x="652" y="-89" on="0"/>
        <pt x="649" y="-98" on="1"/>
        <pt x="644" y="-100" on="0"/>
        <pt x="631" y="-104" on="0"/>
        <pt x="629" y="-108" on="1"/>
        <pt x="624" y="-115" on="0"/>
        <pt x="624" y="-144" on="0"/>
        <pt x="617" y="-152" on="1"/>
        <pt x="613" y="-157" on="0"/>
        <pt x="594" y="-166" on="0"/>
        <pt x="588" y="-168" on="1"/>
        <pt x="580" y="-170" on="0"/>
        <pt x="561" y="-164" on="0"/>
        <pt x="550" y="-165" on="1"/>
        <pt x="536" y="-166" on="0"/>
        <pt x="516" y="-184" on="0"/>
        <pt x="503" y="-191" on="1"/>
        <pt x="495" y="-196" on="0"/>
        <pt x="466" y="-204" on="0"/>
        <pt x="456" y="-209" on="1"/>
        <pt x="449" y="-213" on="0"/>
        <pt x="436" y="-221" on="0"/>
        <pt x="424" y="-225" on="0"/>
        <pt x="412" y="-223" on="0"/>
        <pt x="406" y="-216" on="1"/>
        <pt x="401" y="-199" on="0"/>
        <pt x="410" y="-175" on="0"/>
        <pt x="425" y="-155" on="0"/>
        <pt x="441" y="-135" on="0"/>
        <pt x="445" y="-121" on="1"/>
        <pt x="450" y="-104" on="0"/>
        <pt x="453" y="-75" on="0"/>
        <pt x="458" y="-61" on="1"/>
        <pt x="466" y="-44" on="0"/>
        <pt x="490" y="-16" on="0"/>
        <pt x="495" y="3" on="1"/>
        <pt x="478" y="-4" on="0"/>
        <pt x="439" y="-23" on="0"/>
        <pt x="413" y="-27" on="1"/>
        <pt x="409" y="-28" on="0"/>
        <pt x="401" y="-27" on="0"/>
        <pt x="397" y="-27" on="1"/>
        <pt x="388" y="-29" on="0"/>
        <pt x="372" y="-34" on="0"/>
        <pt x="364" y="-36" on="1"/>
        <pt x="353" y="-37" on="0"/>
        <pt x="342" y="-34" on="0"/>
        <pt x="332" y="-34" on="1"/>
        <pt x="310" y="-35" on="0"/>
        <pt x="282" y="-41" on="0"/>
        <pt x="263" y="-37" on="1"/>
        <pt x="252" y="-35" on="0"/>
        <pt x="227" y="-23" on="0"/>
        <pt x="215" y="-18" on="1"/>
        <pt x="203" y="-13" on="0"/>
        <pt x="177" y="-5" on="0"/>
        <pt x="167" y="0" on="1"/>
        <pt x="150" y="8" on="0"/>
        <pt x="117" y="30" on="0"/>
        <pt x="97" y="36" on="1"/>
        <pt x="77" y="62" on="0"/>
        <pt x="39" y="136" on="0"/>
        <pt x="34" y="173" on="1"/>
        <pt x="33" y="182" on="0"/>
        <pt x="35" y="201" on="0"/>
        <pt x="33" y="210" on="1"/>
        <pt x="31" y="215" on="0"/>
        <pt x="24" y="225" on="0"/>
        <pt x="22" y="230" on="1"/>
        <pt x="19" y="237" on="0"/>
        <pt x="14" y="263" on="0"/>
        <pt x="12" y="273" on="1"/>
        <pt x="7" y="315" on="0"/>
        <pt x="19" y="398" on="0"/>
        <pt x="33" y="432" on="1"/>
        <pt x="34" y="435" on="0"/>
        <pt x="40" y="440" on="0"/>
        <pt x="42" y="444" on="1"/>
        <pt x="44" y="449" on="0"/>
        <pt x="44" y="458" on="0"/>
        <pt x="46" y="461" on="1"/>
        <pt x="52" y="472" on="0"/>
        <pt x="60" y="496" on="0"/>
        <pt x="68" y="508" on="1"/>
        <pt x="76" y="523" on="0"/>
        <pt x="92" y="555" on="0"/>
        <pt x="103" y="563" on="1"/>
        <pt x="110" y="567" on="0"/>
        <pt x="125" y="573" on="0"/>
        <pt x="139" y="580" on="0"/>
        <pt x="150" y="591" on="0"/>
        <pt x="152" y="601" on="1"/>
        <pt x="153" y="607" on="0"/>
        <pt x="147" y="618" on="0"/>
        <pt x="150" y="623" on="1"/>
        <pt x="181" y="661" on="0"/>
        <pt x="230" y="688" on="1"/>
        <pt x="235" y="690" on="0"/>
        <pt x="246" y="694" on="0"/>
        <pt x="251" y="696" on="1"/>
        <pt x="258" y="700" on="0"/>
        <pt x="270" y="710" on="0"/>
        <pt x="279" y="712" on="1"/>
        <pt x="296" y="717" on="0"/>
        <pt x="333" y="726" on="0"/>
        <pt x="353" y="729" on="1"/>
        <pt x="360" y="730" on="0"/>
        <pt x="374" y="733" on="0"/>
        <pt x="380" y="735" on="1"/>
        <pt x="390" y="736" on="0"/>
        <pt x="427" y="735" on="0"/>
        <pt x="468" y="733" on="0"/>
        <pt x="507" y="732" on="0"/>
        <pt x="518" y="734" on="1"/>
        <pt x="525" y="736" on="0"/>
        <pt x="538" y="742" on="0"/>
        <pt x="546" y="743" on="1"/>
        <pt x="563" y="744" on="0"/>
        <pt x="586" y="739" on="0"/>
        <pt x="607" y="737" on="1"/>
        <pt x="620" y="736" on="0"/>
        <pt x="645" y="732" on="0"/>
        <pt x="659" y="731" on="1"/>
        <pt x="676" y="730" on="0"/>
        <pt x="712" y="732" on="0"/>
        <pt x="729" y="732" on="1"/>
        <pt x="746" y="732" on="0"/>
        <pt x="779" y="728" on="0"/>
        <pt x="792" y="730" on="1"/>
        <pt x="801" y="732" on="0"/>
        <pt x="817" y="740" on="0"/>
        <pt x="826" y="739" on="1"/>
        <pt x="834" y="737" on="0"/>
        <pt x="852" y="723" on="0"/>
        <pt x="852" y="715" on="1"/>
        <pt x="852" y="706" on="0"/>
        <pt x="825" y="684" on="0"/>
        <pt x="816" y="680" on="1"/>
        <pt x="787" y="668" on="0"/>
        <pt x="719" y="655" on="0"/>
        <pt x="679" y="652" on="1"/>
        <pt x="666" y="651" on="0"/>
        <pt x="641" y="651" on="0"/>
        <pt x="630" y="649" on="1"/>
        <pt x="624" y="647" on="0"/>
        <pt x="613" y="642" on="0"/>
        <pt x="608" y="640" on="1"/>
        <pt x="594" y="636" on="0"/>
        <pt x="563" y="636" on="0"/>
        <pt x="548" y="634" on="1"/>
        <pt x="519" y="631" on="0"/>
        <pt x="450" y="620" on="0"/>
        <pt x="431" y="605" on="1"/>
        <pt x="426" y="601" on="0"/>
        <pt x="408" y="593" on="0"/>
        <pt x="390" y="584" on="0"/>
        <pt x="373" y="575" on="0"/>
        <pt x="369" y="570" on="1"/>
        <pt x="357" y="558" on="0"/>
        <pt x="340" y="540" on="0"/>
      </contour>
    </TTGlyph>
    <TTGlyph name="H" xMin="-34" yMin="-55" xMax="978" yMax="759">
      <contour>
        <pt x="412" y="745" on="1"/>
        <pt x="412" y="738" on="0"/>
        <pt x="404" y="727" on="0"/>
        <pt x="394" y="718" on="0"/>
        <pt x="383" y="708" on="0"/>
        <pt x="380" y="702" on="1"/>
        <pt x="379" y="700" on="0"/>
        <pt x="380" y="691" on="0"/>
        <pt x="378" y="688" on="1"/>
        <pt x="373" y="674" on="0"/>
        <pt x="355" y="641" on="0"/>
        <pt x="348" y="624" on="1"/>
        <pt x="345" y="616" on="0"/>
        <pt x="338" y="599" on="0"/>
        <pt x="333" y="591" on="1"/>
        <pt x="329" y="583" on="0"/>
        <pt x="318" y="566" on="0"/>
        <pt x="317" y="560" on="1"/>
        <pt x="316" y="555" on="0"/>
        <pt x="321" y="546" on="0"/>
        <pt x="321" y="541" on="1"/>
        <pt x="319" y="531" on="0"/>
        <pt x="311" y="509" on="0"/>
        <pt x="309" y="498" on="1"/>
        <pt x="307" y="485" on="0"/>
        <pt x="304" y="462" on="0"/>
        <pt x="301" y="452" on="1"/>
        <pt x="296" y="438" on="0"/>
        <pt x="284" y="401" on="0"/>
        <pt x="281" y="381" on="1"/>
        <pt x="316" y="381" on="0"/>
        <pt x="381" y="399" on="0"/>
        <pt x="410" y="409" on="1"/>
        <pt x="417" y="407" on="0"/>
        <pt x="445" y="405" on="0"/>
        <pt x="476" y="405" on="0"/>
        <pt x="508" y="406" on="0"/>
        <pt x="520" y="408" on="1"/>
        <pt x="532" y="409" on="0"/>
        <pt x="566" y="418" on="0"/>
        <pt x="571" y="424" on="1"/>
        <pt x="579" y="435" on="0"/>
        <pt x="585" y="477" on="0"/>
        <pt x="590" y="496" on="1"/>
        <pt x="595" y="513" on="0"/>
        <pt x="609" y="545" on="0"/>
        <pt x="613" y="560" on="1"/>
        <pt x="615" y="566" on="0"/>
        <pt x="614" y="579" on="0"/>
        <pt x="616" y="585" on="1"/>
        <pt x="621" y="602" on="0"/>
        <pt x="641" y="634" on="0"/>
        <pt x="644" y="645" on="1"/>
        <pt x="647" y="656" on="0"/>
        <pt x="649" y="680" on="0"/>
        <pt x="652" y="702" on="0"/>
        <pt x="657" y="721" on="0"/>
        <pt x="664" y="728" on="1"/>
        <pt x="668" y="730" on="0"/>
        <pt x="675" y="735" on="0"/>
        <pt x="679" y="738" on="1"/>
        <pt x="692" y="734" on="0"/>
        <pt x="712" y="734" on="0"/>
        <pt x="731" y="737" on="0"/>
        <pt x="749" y="743" on="0"/>
        <pt x="761" y="746" on="1"/>
        <pt x="770" y="738" on="0"/>
        <pt x="780" y="719" on="0"/>
        <pt x="794" y="718" on="1"/>
        <pt x="800" y="718" on="0"/>
        <pt x="812" y="726" on="0"/>
        <pt x="820" y="728" on="1"/>
        <pt x="834" y="732" on="0"/>
        <pt x="875" y="743" on="0"/>
        <pt x="890" y="743" on="1"/>
        <pt x="907" y="744" on="0"/>
        <pt x="935" y="737" on="0"/>
        <pt x="952" y="742" on="1"/>
        <pt x="956" y="738" on="0"/>
        <pt x="962" y="728" on="0"/>
        <pt x="959" y="718" on="1"/>
        <pt x="949" y="710" on="0"/>
        <pt x="928" y="699" on="0"/>
        <pt x="907" y="688" on="0"/>
        <pt x="888" y="676" on="0"/>
        <pt x="880" y="667" on="1"/>
        <pt x="866" y="651" on="0"/>
        <pt x="847" y="607" on="0"/>
        <pt x="836" y="587" on="1"/>
        <pt x="832" y="580" on="0"/>
        <pt x="822" y="567" on="0"/>
        <pt x="820" y="562" on="1"/>
        <pt x="814" y="547" on="0"/>
        <pt x="810" y="512" on="0"/>
        <pt x="806" y="495" on="1"/>
        <pt x="802" y="478" on="0"/>
        <pt x="792" y="447" on="0"/>
        <pt x="790" y="430" on="1"/>
        <pt x="803" y="425" on="0"/>
        <pt x="827" y="430" on="0"/>
        <pt x="843" y="429" on="1"/>
        <pt x="851" y="428" on="0"/>
        <pt x="867" y="424" on="0"/>
        <pt x="877" y="423" on="1"/>
        <pt x="892" y="422" on="0"/>
        <pt x="916" y="425" on="0"/>
        <pt x="930" y="424" on="1"/>
        <pt x="935" y="424" on="0"/>
        <pt x="951" y="423" on="0"/>
        <pt x="966" y="419" on="0"/>
        <pt x="977" y="412" on="0"/>
        <pt x="977" y="406" on="1"/>
        <pt x="978" y="398" on="0"/>
        <pt x="951" y="381" on="0"/>
        <pt x="942" y="377" on="1"/>
        <pt x="925" y="369" on="0"/>
        <pt x="894" y="367" on="0"/>
        <pt x="872" y="362" on="1"/>
        <pt x="858" y="360" on="0"/>
        <pt x="837" y="343" on="0"/>
        <pt x="820" y="340" on="1"/>
        <pt x="803" y="337" on="0"/>
        <pt x="779" y="336" on="0"/>
        <pt x="759" y="334" on="1"/>
        <pt x="739" y="308" on="0"/>
        <pt x="726" y="239" on="0"/>
        <pt x="721" y="204" on="1"/>
        <pt x="717" y="178" on="0"/>
        <pt x="705" y="125" on="0"/>
        <pt x="697" y="102" on="1"/>
        <pt x="694" y="89" on="0"/>
        <pt x="677" y="68" on="0"/>
        <pt x="669" y="53" on="1"/>
        <pt x="664" y="42" on="0"/>
        <pt x="657" y="20" on="0"/>
        <pt x="651" y="13" on="1"/>
        <pt x="643" y="5" on="0"/>
        <pt x="615" y="-3" on="0"/>
        <pt x="606" y="-9" on="1"/>
        <pt x="594" y="-19" on="0"/>
        <pt x="579" y="-39" on="0"/>
        <pt x="565" y="-47" on="1"/>
        <pt x="555" y="-48" on="0"/>
        <pt x="542" y="-48" on="0"/>
        <pt x="532" y="-46" on="0"/>
        <pt x="523" y="-41" on="0"/>
        <pt x="517" y="-36" on="1"/>
        <pt x="515" y="-30" on="0"/>
        <pt x="517" y="-21" on="0"/>
        <pt x="515" y="-14" on="1"/>
        <pt x="509" y="-12" on="0"/>
        <pt x="502" y="-23" on="0"/>
        <pt x="494" y="-23" on="1"/>
        <pt x="486" y="-23" on="0"/>
        <pt x="470" y="-4" on="0"/>
        <pt x="471" y="5" on="1"/>
        <pt x="472" y="12" on="0"/>
        <pt x="480" y="31" on="0"/>
        <pt x="482" y="42" on="1"/>
        <pt x="484" y="51" on="0"/>
        <pt x="487" y="72" on="0"/>
        <pt x="490" y="81" on="1"/>
        <pt x="492" y="86" on="0"/>
        <pt x="498" y="96" on="0"/>
        <pt x="499" y="102" on="1"/>
        <pt x="502" y="118" on="0"/>
        <pt x="501" y="147" on="0"/>
        <pt x="504" y="161" on="1"/>
        <pt x="506" y="166" on="0"/>
        <pt x="511" y="174" on="0"/>
        <pt x="513" y="179" on="1"/>
        <pt x="519" y="196" on="0"/>
        <pt x="531" y="228" on="0"/>
        <pt x="536" y="244" on="1"/>
        <pt x="541" y="261" on="0"/>
        <pt x="554" y="295" on="0"/>
        <pt x="551" y="311" on="1"/>
        <pt x="538" y="312" on="0"/>
        <pt x="514" y="306" on="0"/>
        <pt x="490" y="298" on="0"/>
        <pt x="464" y="291" on="0"/>
        <pt x="450" y="291" on="1"/>
        <pt x="444" y="291" on="0"/>
        <pt x="423" y="293" on="0"/>
        <pt x="399" y="295" on="0"/>
        <pt x="376" y="294" on="0"/>
        <pt x="369" y="293" on="1"/>
        <pt x="357" y="291" on="0"/>
        <pt x="332" y="279" on="0"/>
        <pt x="318" y="275" on="1"/>
        <pt x="304" y="272" on="0"/>
        <pt x="281" y="262" on="0"/>
        <pt x="269" y="260" on="1"/>
        <pt x="258" y="253" on="0"/>
        <pt x="248" y="226" on="0"/>
        <pt x="241" y="196" on="0"/>
        <pt x="230" y="170" on="0"/>
        <pt x="217" y="165" on="1"/>
        <pt x="223" y="159" on="0"/>
        <pt x="221" y="122" on="0"/>
        <pt x="218" y="106" on="1"/>
        <pt x="213" y="79" on="0"/>
        <pt x="196" y="31" on="0"/>
        <pt x="185" y="12" on="1"/>
        <pt x="169" y="5" on="0"/>
        <pt x="140" y="-10" on="0"/>
        <pt x="120" y="-12" on="1"/>
        <pt x="115" y="-10" on="0"/>
        <pt x="112" y="1" on="0"/>
        <pt x="111" y="7" on="1"/>
        <pt x="106" y="-5" on="0"/>
        <pt x="89" y="-20" on="0"/>
        <pt x="69" y="-32" on="0"/>
        <pt x="50" y="-44" on="0"/>
        <pt x="44" y="-54" on="1"/>
        <pt x="21" y="-54" on="0"/>
        <pt x="-13" y="-55" on="0"/>
        <pt x="-29" y="-47" on="1"/>
        <pt x="-34" y="-31" on="0"/>
        <pt x="-25" y="0" on="0"/>
        <pt x="-23" y="14" on="1"/>
        <pt x="-22" y="21" on="0"/>
        <pt x="-24" y="33" on="0"/>
        <pt x="-23" y="39" on="1"/>
        <pt x="-21" y="54" on="0"/>
        <pt x="-10" y="97" on="0"/>
        <pt x="-3" y="113" on="1"/>
        <pt x="0" y="121" on="0"/>
        <pt x="10" y="132" on="0"/>
        <pt x="14" y="140" on="1"/>
        <pt x="18" y="150" on="0"/>
        <pt x="20" y="168" on="0"/>
        <pt x="24" y="176" on="1"/>
        <pt x="26" y="185" on="0"/>
        <pt x="35" y="200" on="0"/>
        <pt x="37" y="208" on="1"/>
        <pt x="39" y="215" on="0"/>
        <pt x="38" y="229" on="0"/>
        <pt x="40" y="237" on="1"/>
        <pt x="41" y="242" on="0"/>
        <pt x="47" y="250" on="0"/>
        <pt x="48" y="255" on="1"/>
        <pt x="49" y="266" on="0"/>
        <pt x="37" y="287" on="0"/>
        <pt x="27" y="307" on="0"/>
        <pt x="25" y="329" on="0"/>
        <pt x="36" y="341" on="1"/>
        <pt x="46" y="344" on="0"/>
        <pt x="67" y="349" on="0"/>
        <pt x="74" y="354" on="1"/>
        <pt x="79" y="374" on="0"/>
        <pt x="85" y="412" on="0"/>
        <pt x="90" y="431" on="1"/>
        <pt x="92" y="441" on="0"/>
        <pt x="101" y="459" on="0"/>
        <pt x="103" y="467" on="1"/>
        <pt x="105" y="476" on="0"/>
        <pt x="103" y="495" on="0"/>
        <pt x="106" y="503" on="1"/>
        <pt x="108" y="511" on="0"/>
        <pt x="120" y="521" on="0"/>
        <pt x="123" y="529" on="1"/>
        <pt x="115" y="541" on="0"/>
        <pt x="118" y="577" on="0"/>
        <pt x="129" y="617" on="0"/>
        <pt x="143" y="658" on="0"/>
        <pt x="146" y="677" on="1"/>
        <pt x="151" y="698" on="0"/>
        <pt x="161" y="730" on="0"/>
        <pt x="180" y="734" on="1"/>
        <pt x="216" y="730" on="0"/>
        <pt x="286" y="745" on="0"/>
        <pt x="321" y="754" on="1"/>
        <pt x="326" y="755" on="0"/>
        <pt x="327" y="746" on="0"/>
        <pt x="331" y="745" on="1"/>
        <pt x="338" y="752" on="0"/>
        <pt x="360" y="759" on="0"/>
        <pt x="383" y="758" on="0"/>
        <pt x="405" y="751" on="0"/>
      </contour>
    </TTGlyph>
    <TTGlyph name="I" xMin="-56" yMin="-16" xMax="478" yMax="747">
      <contour>
        <pt x="311" y="-4" on="1"/>
        <pt x="289" y="2" on="0"/>
        <pt x="241" y="0" on="0"/>
        <pt x="218" y="2" on="1"/>
        <pt x="207" y="4" on="0"/>
        <pt x="184" y="12" on="0"/>
        <pt x="172" y="14" on="1"/>
        <pt x="124" y="23" on="0"/>
        <pt x="53" y="13" on="0"/>
        <pt x="15" y="1" on="1"/>
        <pt x="7" y="-2" on="0"/>
        <pt x="-10" y="-9" on="0"/>
        <pt x="-28" y="-15" on="0"/>
        <pt x="-47" y="-16" on="0"/>
        <pt x="-56" y="-11" on="1"/>
        <pt x="-53" y="2" on="0"/>
        <pt x="-36" y="20" on="0"/>
        <pt x="-15" y="37" on="0"/>
        <pt x="4" y="57" on="0"/>
        <pt x="8" y="71" on="1"/>
        <pt x="11" y="82" on="0"/>
        <pt x="9" y="103" on="0"/>
        <pt x="11" y="115" on="1"/>
        <pt x="13" y="133" on="0"/>
        <pt x="26" y="178" on="0"/>
        <pt x="33" y="198" on="1"/>
        <pt x="40" y="219" on="0"/>
        <pt x="52" y="260" on="0"/>
        <pt x="58" y="278" on="1"/>
        <pt x="62" y="288" on="0"/>
        <pt x="81" y="307" on="0"/>
        <pt x="83" y="322" on="1"/>
        <pt x="84" y="330" on="0"/>
        <pt x="79" y="345" on="0"/>
        <pt x="80" y="350" on="1"/>
        <pt x="81" y="357" on="0"/>
        <pt x="89" y="369" on="0"/>
        <pt x="91" y="376" on="1"/>
        <pt x="93" y="381" on="0"/>
        <pt x="95" y="393" on="0"/>
        <pt x="97" y="398" on="1"/>
        <pt x="102" y="416" on="0"/>
        <pt x="112" y="461" on="0"/>
        <pt x="117" y="480" on="1"/>
        <pt x="122" y="497" on="0"/>
        <pt x="139" y="525" on="0"/>
        <pt x="142" y="540" on="1"/>
        <pt x="142" y="547" on="0"/>
        <pt x="133" y="552" on="0"/>
        <pt x="131" y="559" on="1"/>
        <pt x="136" y="570" on="0"/>
        <pt x="134" y="607" on="0"/>
        <pt x="135" y="622" on="1"/>
        <pt x="137" y="640" on="0"/>
        <pt x="142" y="667" on="0"/>
        <pt x="135" y="682" on="1"/>
        <pt x="130" y="693" on="0"/>
        <pt x="114" y="711" on="0"/>
        <pt x="117" y="727" on="1"/>
        <pt x="129" y="730" on="0"/>
        <pt x="152" y="733" on="0"/>
        <pt x="166" y="732" on="1"/>
        <pt x="173" y="731" on="0"/>
        <pt x="185" y="725" on="0"/>
        <pt x="193" y="723" on="1"/>
        <pt x="216" y="720" on="0"/>
        <pt x="261" y="725" on="0"/>
        <pt x="282" y="725" on="1"/>
        <pt x="303" y="725" on="0"/>
        <pt x="323" y="723" on="0"/>
        <pt x="341" y="725" on="1"/>
        <pt x="364" y="727" on="0"/>
        <pt x="408" y="742" on="0"/>
        <pt x="429" y="745" on="1"/>
        <pt x="439" y="747" on="0"/>
        <pt x="467" y="743" on="0"/>
        <pt x="476" y="735" on="1"/>
        <pt x="478" y="720" on="0"/>
        <pt x="459" y="712" on="0"/>
        <pt x="451" y="708" on="1"/>
        <pt x="435" y="700" on="0"/>
        <pt x="417" y="678" on="0"/>
        <pt x="406" y="664" on="1"/>
        <pt x="399" y="655" on="0"/>
        <pt x="388" y="643" on="0"/>
        <pt x="383" y="632" on="1"/>
        <pt x="381" y="627" on="0"/>
        <pt x="380" y="612" on="0"/>
        <pt x="377" y="606" on="1"/>
        <pt x="369" y="584" on="0"/>
        <pt x="342" y="540" on="0"/>
        <pt x="337" y="521" on="1"/>
        <pt x="335" y="511" on="0"/>
        <pt x="334" y="493" on="0"/>
        <pt x="332" y="483" on="1"/>
        <pt x="328" y="470" on="0"/>
        <pt x="314" y="439" on="0"/>
        <pt x="308" y="423" on="1"/>
        <pt x="300" y="403" on="0"/>
        <pt x="281" y="354" on="0"/>
        <pt x="274" y="331" on="1"/>
        <pt x="270" y="316" on="0"/>
        <pt x="265" y="285" on="0"/>
        <pt x="262" y="269" on="1"/>
        <pt x="260" y="254" on="0"/>
        <pt x="258" y="220" on="0"/>
        <pt x="253" y="207" on="1"/>
        <pt x="249" y="197" on="0"/>
        <pt x="230" y="183" on="0"/>
        <pt x="225" y="172" on="1"/>
        <pt x="227" y="168" on="0"/>
        <pt x="234" y="164" on="0"/>
        <pt x="233" y="158" on="1"/>
        <pt x="230" y="152" on="0"/>
        <pt x="224" y="137" on="0"/>
        <pt x="225" y="129" on="1"/>
        <pt x="227" y="119" on="0"/>
        <pt x="242" y="102" on="0"/>
        <pt x="244" y="94" on="1"/>
        <pt x="246" y="88" on="0"/>
        <pt x="244" y="78" on="0"/>
        <pt x="246" y="73" on="1"/>
        <pt x="249" y="62" on="0"/>
        <pt x="266" y="42" on="0"/>
        <pt x="274" y="37" on="1"/>
        <pt x="286" y="29" on="0"/>
        <pt x="313" y="21" on="0"/>
        <pt x="319" y="7" on="1"/>
      </contour>
    </TTGlyph>
    <TTGlyph name="Iacute" xMin="-56" yMin="-16" xMax="478" yMax="985">
      <component glyphName="I" x="0" y="0" flags="0x204"/>
      <component glyphName="acute" x="-153" y="225" flags="0x4"/>
    </TTGlyph>
    <TTGlyph name="Icircumflex" xMin="-56" yMin="-16" xMax="478" yMax="990">
      <component glyphName="I" x="0" y="0" flags="0x204"/>
      <component glyphName="circumflex" x="-204" y="256" flags="0x4"/>
    </TTGlyph>
    <TTGlyph name="Idieresis" xMin="-56" yMin="-16" xMax="494" yMax="943">
      <component glyphName="I" x="0" y="0" flags="0x204"/>
      <component glyphName="dieresis" x="-194" y="215" flags="0x4"/>
    </TTGlyph>
    <TTGlyph name="Igrave" xMin="-56" yMin="-16" xMax="478" yMax="988">
      <component glyphName="I" x="0" y="0" flags="0x204"/>
      <component glyphName="grave" x="-235" y="225" flags="0x4"/>
    </TTGlyph>
    <TTGlyph name="J" xMin="-417" yMin="-341" xMax="447" yMax="738">
      <contour>
        <pt x="447" y="730" on="1"/>
        <pt x="445" y="723" on="0"/>
        <pt x="433" y="719" on="0"/>
        <pt x="428" y="715" on="1"/>
        <pt x="415" y="706" on="0"/>
        <pt x="387" y="681" on="0"/>
        <pt x="377" y="667" on="1"/>
        <pt x="369" y="656" on="0"/>
        <pt x="356" y="630" on="0"/>
        <pt x="359" y="614" on="1"/>
        <pt x="348" y="588" on="0"/>
        <pt x="346" y="532" on="0"/>
        <pt x="336" y="507" on="1"/>
        <pt x="331" y="491" on="0"/>
        <pt x="311" y="463" on="0"/>
        <pt x="312" y="443" on="1"/>
        <pt x="307" y="440" on="0"/>
        <pt x="297" y="435" on="0"/>
        <pt x="294" y="430" on="1"/>
        <pt x="297" y="415" on="0"/>
        <pt x="282" y="391" on="0"/>
        <pt x="282" y="376" on="1"/>
        <pt x="282" y="365" on="0"/>
        <pt x="290" y="346" on="0"/>
        <pt x="289" y="337" on="1"/>
        <pt x="288" y="330" on="0"/>
        <pt x="280" y="319" on="0"/>
        <pt x="278" y="311" on="1"/>
        <pt x="272" y="293" on="0"/>
        <pt x="260" y="252" on="0"/>
        <pt x="254" y="230" on="1"/>
        <pt x="248" y="210" on="0"/>
        <pt x="231" y="173" on="0"/>
        <pt x="227" y="155" on="1"/>
        <pt x="225" y="150" on="0"/>
        <pt x="226" y="139" on="0"/>
        <pt x="225" y="134" on="1"/>
        <pt x="222" y="120" on="0"/>
        <pt x="209" y="88" on="0"/>
        <pt x="203" y="73" on="1"/>
        <pt x="197" y="57" on="0"/>
        <pt x="185" y="26" on="0"/>
        <pt x="180" y="10" on="1"/>
        <pt x="175" y="-4" on="0"/>
        <pt x="160" y="-31" on="0"/>
        <pt x="153" y="-45" on="1"/>
        <pt x="145" y="-61" on="0"/>
        <pt x="135" y="-94" on="0"/>
        <pt x="128" y="-105" on="1"/>
        <pt x="119" y="-123" on="0"/>
        <pt x="89" y="-151" on="0"/>
        <pt x="78" y="-163" on="1"/>
        <pt x="77" y="-179" on="0"/>
        <pt x="66" y="-201" on="0"/>
        <pt x="51" y="-219" on="0"/>
        <pt x="34" y="-236" on="0"/>
        <pt x="26" y="-245" on="1"/>
        <pt x="12" y="-260" on="0"/>
        <pt x="-17" y="-279" on="0"/>
        <pt x="-34" y="-290" on="1"/>
        <pt x="-63" y="-308" on="0"/>
        <pt x="-142" y="-341" on="0"/>
        <pt x="-185" y="-339" on="1"/>
        <pt x="-216" y="-338" on="0"/>
        <pt x="-274" y="-322" on="0"/>
        <pt x="-325" y="-295" on="0"/>
        <pt x="-366" y="-261" on="0"/>
        <pt x="-379" y="-243" on="1"/>
        <pt x="-390" y="-228" on="0"/>
        <pt x="-409" y="-199" on="0"/>
        <pt x="-412" y="-179" on="1"/>
        <pt x="-417" y="-145" on="0"/>
        <pt x="-406" y="-73" on="0"/>
        <pt x="-384" y="-56" on="1"/>
        <pt x="-379" y="-51" on="0"/>
        <pt x="-359" y="-43" on="0"/>
        <pt x="-351" y="-38" on="1"/>
        <pt x="-343" y="-33" on="0"/>
        <pt x="-329" y="-19" on="0"/>
        <pt x="-322" y="-16" on="1"/>
        <pt x="-310" y="-9" on="0"/>
        <pt x="-283" y="-3" on="0"/>
        <pt x="-269" y="2" on="1"/>
        <pt x="-249" y="-3" on="0"/>
        <pt x="-208" y="-16" on="0"/>
        <pt x="-194" y="-28" on="1"/>
        <pt x="-185" y="-39" on="0"/>
        <pt x="-173" y="-75" on="0"/>
        <pt x="-170" y="-115" on="0"/>
        <pt x="-179" y="-153" on="0"/>
        <pt x="-191" y="-165" on="1"/>
        <pt x="-201" y="-163" on="0"/>
        <pt x="-221" y="-164" on="0"/>
        <pt x="-227" y="-159" on="1"/>
        <pt x="-231" y="-153" on="0"/>
        <pt x="-230" y="-141" on="0"/>
        <pt x="-225" y="-130" on="0"/>
        <pt x="-219" y="-119" on="0"/>
        <pt x="-218" y="-114" on="1"/>
        <pt x="-214" y="-97" on="0"/>
        <pt x="-226" y="-73" on="0"/>
        <pt x="-237" y="-63" on="1"/>
        <pt x="-254" y="-65" on="0"/>
        <pt x="-285" y="-77" on="0"/>
        <pt x="-308" y="-99" on="0"/>
        <pt x="-319" y="-132" on="0"/>
        <pt x="-317" y="-154" on="1"/>
        <pt x="-316" y="-162" on="0"/>
        <pt x="-310" y="-183" on="0"/>
        <pt x="-300" y="-202" on="0"/>
        <pt x="-286" y="-216" on="0"/>
        <pt x="-278" y="-219" on="1"/>
        <pt x="-266" y="-222" on="0"/>
        <pt x="-240" y="-219" on="0"/>
        <pt x="-224" y="-219" on="1"/>
        <pt x="-211" y="-220" on="0"/>
        <pt x="-189" y="-222" on="0"/>
        <pt x="-181" y="-220" on="1"/>
        <pt x="-169" y="-217" on="0"/>
        <pt x="-152" y="-206" on="0"/>
        <pt x="-138" y="-193" on="0"/>
        <pt x="-125" y="-179" on="0"/>
        <pt x="-117" y="-174" on="1"/>
        <pt x="-95" y="-140" on="0"/>
        <pt x="-48" y="-74" on="0"/>
        <pt x="-34" y="-33" on="1"/>
        <pt x="-31" y="-25" on="0"/>
        <pt x="-30" y="-6" on="0"/>
        <pt x="-28" y="3" on="1"/>
        <pt x="-25" y="16" on="0"/>
        <pt x="-10" y="41" on="0"/>
        <pt x="-10" y="56" on="1"/>
        <pt x="1" y="66" on="0"/>
        <pt x="6" y="87" on="0"/>
        <pt x="11" y="104" on="1"/>
        <pt x="13" y="112" on="0"/>
        <pt x="23" y="125" on="0"/>
        <pt x="25" y="133" on="1"/>
        <pt x="35" y="157" on="0"/>
        <pt x="45" y="210" on="0"/>
        <pt x="50" y="239" on="1"/>
        <pt x="53" y="255" on="0"/>
        <pt x="64" y="290" on="0"/>
        <pt x="75" y="326" on="0"/>
        <pt x="84" y="361" on="0"/>
        <pt x="85" y="378" on="1"/>
        <pt x="85" y="387" on="0"/>
        <pt x="83" y="399" on="0"/>
        <pt x="86" y="407" on="1"/>
        <pt x="89" y="416" on="0"/>
        <pt x="101" y="422" on="0"/>
        <pt x="103" y="428" on="1"/>
        <pt x="108" y="441" on="0"/>
        <pt x="101" y="472" on="0"/>
        <pt x="100" y="481" on="1"/>
        <pt x="100" y="495" on="0"/>
        <pt x="111" y="524" on="0"/>
        <pt x="126" y="554" on="0"/>
        <pt x="141" y="583" on="0"/>
        <pt x="143" y="596" on="1"/>
        <pt x="146" y="608" on="0"/>
        <pt x="146" y="623" on="1"/>
        <pt x="145" y="638" on="0"/>
        <pt x="141" y="672" on="0"/>
        <pt x="135" y="682" on="1"/>
        <pt x="128" y="687" on="0"/>
        <pt x="130" y="691" on="0"/>
        <pt x="129" y="692" on="1"/>
        <pt x="126" y="695" on="0"/>
        <pt x="114" y="702" on="0"/>
        <pt x="103" y="709" on="0"/>
        <pt x="94" y="717" on="0"/>
        <pt x="94" y="721" on="1"/>
        <pt x="94" y="728" on="0"/>
        <pt x="105" y="735" on="0"/>
        <pt x="121" y="738" on="0"/>
        <pt x="138" y="737" on="0"/>
        <pt x="144" y="736" on="1"/>
        <pt x="159" y="734" on="0"/>
        <pt x="182" y="728" on="0"/>
        <pt x="201" y="727" on="1"/>
        <pt x="213" y="726" on="0"/>
        <pt x="232" y="728" on="0"/>
        <pt x="250" y="730" on="0"/>
        <pt x="270" y="733" on="0"/>
        <pt x="285" y="733" on="1"/>
        <pt x="321" y="735" on="0"/>
        <pt x="376" y="735" on="0"/>
        <pt x="411" y="737" on="1"/>
        <pt x="413" y="737" on="0"/>
        <pt x="424" y="738" on="0"/>
        <pt x="436" y="736" on="0"/>
        <pt x="445" y="733" on="0"/>
      </contour>
    </TTGlyph>
    <TTGlyph name="K" xMin="-83" yMin="-292" xMax="952" yMax="814">
      <contour>
        <pt x="742" y="-184" on="1"/>
        <pt x="748" y="-183" on="0"/>
        <pt x="761" y="-186" on="0"/>
        <pt x="775" y="-190" on="0"/>
        <pt x="790" y="-194" on="0"/>
        <pt x="797" y="-193" on="1"/>
        <pt x="801" y="-192" on="0"/>
        <pt x="819" y="-182" on="0"/>
        <pt x="838" y="-167" on="0"/>
        <pt x="854" y="-150" on="0"/>
        <pt x="857" y="-144" on="1"/>
        <pt x="860" y="-139" on="0"/>
        <pt x="864" y="-116" on="0"/>
        <pt x="864" y="-111" on="1"/>
        <pt x="863" y="-100" on="0"/>
        <pt x="843" y="-77" on="0"/>
        <pt x="831" y="-76" on="1"/>
        <pt x="818" y="-75" on="0"/>
        <pt x="800" y="-92" on="0"/>
        <pt x="792" y="-99" on="1"/>
        <pt x="790" y="-101" on="0"/>
        <pt x="780" y="-110" on="0"/>
        <pt x="768" y="-119" on="0"/>
        <pt x="758" y="-127" on="0"/>
        <pt x="755" y="-127" on="1"/>
        <pt x="745" y="-129" on="0"/>
        <pt x="734" y="-112" on="0"/>
        <pt x="738" y="-97" on="1"/>
        <pt x="740" y="-90" on="0"/>
        <pt x="754" y="-73" on="0"/>
        <pt x="758" y="-66" on="1"/>
        <pt x="763" y="-56" on="0"/>
        <pt x="769" y="-41" on="0"/>
        <pt x="776" y="-34" on="1"/>
        <pt x="787" y="-22" on="0"/>
        <pt x="822" y="-8" on="0"/>
        <pt x="859" y="-4" on="0"/>
        <pt x="893" y="-14" on="0"/>
        <pt x="904" y="-26" on="1"/>
        <pt x="907" y="-29" on="0"/>
        <pt x="912" y="-43" on="0"/>
        <pt x="914" y="-49" on="1"/>
        <pt x="920" y="-61" on="0"/>
        <pt x="935" y="-85" on="0"/>
        <pt x="937" y="-97" on="1"/>
        <pt x="938" y="-102" on="0"/>
        <pt x="937" y="-119" on="0"/>
        <pt x="938" y="-127" on="1"/>
        <pt x="939" y="-154" on="0"/>
        <pt x="924" y="-183" on="0"/>
        <pt x="910" y="-203" on="1"/>
        <pt x="903" y="-213" on="0"/>
        <pt x="888" y="-235" on="0"/>
        <pt x="881" y="-240" on="1"/>
        <pt x="876" y="-244" on="0"/>
        <pt x="862" y="-246" on="0"/>
        <pt x="857" y="-249" on="1"/>
        <pt x="851" y="-253" on="0"/>
        <pt x="842" y="-265" on="0"/>
        <pt x="837" y="-269" on="1"/>
        <pt x="826" y="-276" on="0"/>
        <pt x="787" y="-286" on="0"/>
        <pt x="773" y="-288" on="1"/>
        <pt x="744" y="-292" on="0"/>
        <pt x="685" y="-289" on="0"/>
        <pt x="666" y="-280" on="1"/>
        <pt x="656" y="-275" on="0"/>
        <pt x="642" y="-261" on="0"/>
        <pt x="631" y="-259" on="1"/>
        <pt x="617" y="-257" on="0"/>
        <pt x="597" y="-259" on="0"/>
        <pt x="588" y="-255" on="1"/>
        <pt x="568" y="-246" on="0"/>
        <pt x="544" y="-216" on="0"/>
        <pt x="530" y="-199" on="1"/>
        <pt x="528" y="-196" on="0"/>
        <pt x="532" y="-189" on="0"/>
        <pt x="535" y="-187" on="1"/>
        <pt x="528" y="-178" on="0"/>
        <pt x="509" y="-170" on="0"/>
        <pt x="502" y="-162" on="1"/>
        <pt x="489" y="-150" on="0"/>
        <pt x="481" y="-114" on="0"/>
        <pt x="479" y="-93" on="1"/>
        <pt x="466" y="-87" on="0"/>
        <pt x="454" y="-85" on="1"/>
        <pt x="445" y="-78" on="0"/>
        <pt x="436" y="-59" on="0"/>
        <pt x="431" y="-50" on="1"/>
        <pt x="426" y="-42" on="0"/>
        <pt x="414" y="-26" on="0"/>
        <pt x="410" y="-16" on="1"/>
        <pt x="407" y="-7" on="0"/>
        <pt x="403" y="15" on="0"/>
        <pt x="400" y="27" on="1"/>
        <pt x="394" y="51" on="0"/>
        <pt x="387" y="106" on="0"/>
        <pt x="383" y="133" on="1"/>
        <pt x="381" y="146" on="0"/>
        <pt x="380" y="171" on="0"/>
        <pt x="380" y="182" on="1"/>
        <pt x="382" y="207" on="0"/>
        <pt x="390" y="258" on="0"/>
        <pt x="385" y="282" on="1"/>
        <pt x="384" y="287" on="0"/>
        <pt x="378" y="301" on="0"/>
        <pt x="370" y="315" on="0"/>
        <pt x="361" y="326" on="0"/>
        <pt x="357" y="327" on="1"/>
        <pt x="345" y="331" on="0"/>
        <pt x="314" y="322" on="0"/>
        <pt x="303" y="317" on="1"/>
        <pt x="296" y="315" on="0"/>
        <pt x="269" y="303" on="0"/>
        <pt x="265" y="298" on="1"/>
        <pt x="260" y="291" on="0"/>
        <pt x="261" y="273" on="0"/>
        <pt x="257" y="263" on="1"/>
        <pt x="255" y="256" on="0"/>
        <pt x="245" y="246" on="0"/>
        <pt x="243" y="241" on="1"/>
        <pt x="241" y="236" on="0"/>
        <pt x="244" y="226" on="0"/>
        <pt x="243" y="221" on="1"/>
        <pt x="243" y="215" on="0"/>
        <pt x="238" y="202" on="0"/>
        <pt x="236" y="194" on="1"/>
        <pt x="233" y="180" on="0"/>
        <pt x="231" y="149" on="0"/>
        <pt x="229" y="135" on="1"/>
        <pt x="226" y="119" on="0"/>
        <pt x="219" y="89" on="0"/>
        <pt x="221" y="72" on="1"/>
        <pt x="223" y="60" on="0"/>
        <pt x="238" y="30" on="0"/>
        <pt x="236" y="24" on="1"/>
        <pt x="232" y="12" on="0"/>
        <pt x="194" y="9" on="0"/>
        <pt x="177" y="10" on="1"/>
        <pt x="159" y="12" on="0"/>
        <pt x="122" y="16" on="0"/>
        <pt x="106" y="15" on="1"/>
        <pt x="82" y="14" on="0"/>
        <pt x="34" y="1" on="0"/>
        <pt x="11" y="-4" on="1"/>
        <pt x="-11" y="-9" on="0"/>
        <pt x="-59" y="-22" on="0"/>
        <pt x="-81" y="-13" on="1"/>
        <pt x="-83" y="-4" on="0"/>
        <pt x="-75" y="16" on="0"/>
        <pt x="-62" y="14" on="1"/>
        <pt x="-50" y="25" on="0"/>
        <pt x="-28" y="46" on="0"/>
        <pt x="-18" y="59" on="1"/>
        <pt x="-14" y="75" on="0"/>
        <pt x="7" y="105" on="0"/>
        <pt x="13" y="123" on="1"/>
        <pt x="16" y="132" on="0"/>
        <pt x="17" y="151" on="0"/>
        <pt x="22" y="159" on="1"/>
        <pt x="26" y="166" on="0"/>
        <pt x="42" y="172" on="0"/>
        <pt x="46" y="178" on="1"/>
        <pt x="47" y="189" on="0"/>
        <pt x="36" y="196" on="0"/>
        <pt x="36" y="203" on="1"/>
        <pt x="35" y="208" on="0"/>
        <pt x="45" y="234" on="0"/>
        <pt x="49" y="248" on="1"/>
        <pt x="56" y="274" on="0"/>
        <pt x="66" y="318" on="0"/>
        <pt x="70" y="344" on="1"/>
        <pt x="71" y="351" on="0"/>
        <pt x="70" y="367" on="0"/>
        <pt x="72" y="372" on="1"/>
        <pt x="75" y="382" on="0"/>
        <pt x="93" y="400" on="0"/>
        <pt x="96" y="411" on="1"/>
        <pt x="98" y="419" on="0"/>
        <pt x="94" y="437" on="0"/>
        <pt x="96" y="446" on="1"/>
        <pt x="98" y="454" on="0"/>
        <pt x="105" y="464" on="0"/>
        <pt x="109" y="471" on="1"/>
        <pt x="122" y="509" on="0"/>
        <pt x="143" y="596" on="0"/>
        <pt x="132" y="634" on="1"/>
        <pt x="127" y="655" on="0"/>
        <pt x="112" y="693" on="0"/>
        <pt x="99" y="700" on="1"/>
        <pt x="91" y="704" on="0"/>
        <pt x="72" y="704" on="0"/>
        <pt x="72" y="713" on="1"/>
        <pt x="72" y="720" on="0"/>
        <pt x="90" y="728" on="0"/>
        <pt x="115" y="733" on="0"/>
        <pt x="140" y="735" on="0"/>
        <pt x="147" y="735" on="1"/>
        <pt x="161" y="736" on="0"/>
        <pt x="194" y="720" on="0"/>
        <pt x="209" y="720" on="1"/>
        <pt x="223" y="720" on="0"/>
        <pt x="253" y="719" on="0"/>
        <pt x="267" y="718" on="1"/>
        <pt x="283" y="717" on="0"/>
        <pt x="312" y="721" on="0"/>
        <pt x="328" y="721" on="1"/>
        <pt x="354" y="722" on="0"/>
        <pt x="405" y="733" on="0"/>
        <pt x="428" y="728" on="1"/>
        <pt x="436" y="721" on="0"/>
        <pt x="429" y="706" on="0"/>
        <pt x="413" y="690" on="0"/>
        <pt x="395" y="674" on="0"/>
        <pt x="391" y="666" on="1"/>
        <pt x="387" y="652" on="0"/>
        <pt x="379" y="625" on="0"/>
        <pt x="371" y="613" on="1"/>
        <pt x="369" y="610" on="0"/>
        <pt x="360" y="606" on="0"/>
        <pt x="357" y="602" on="1"/>
        <pt x="343" y="581" on="0"/>
        <pt x="323" y="531" on="0"/>
        <pt x="310" y="504" on="1"/>
        <pt x="306" y="501" on="0"/>
        <pt x="296" y="485" on="0"/>
        <pt x="292" y="480" on="1"/>
        <pt x="295" y="474" on="0"/>
        <pt x="292" y="458" on="0"/>
        <pt x="288" y="442" on="0"/>
        <pt x="286" y="428" on="0"/>
        <pt x="289" y="424" on="1"/>
        <pt x="291" y="421" on="0"/>
        <pt x="311" y="416" on="0"/>
        <pt x="319" y="418" on="1"/>
        <pt x="334" y="422" on="0"/>
        <pt x="358" y="445" on="0"/>
        <pt x="370" y="456" on="1"/>
        <pt x="382" y="466" on="0"/>
        <pt x="409" y="480" on="0"/>
        <pt x="438" y="493" on="0"/>
        <pt x="468" y="508" on="0"/>
        <pt x="483" y="519" on="1"/>
        <pt x="506" y="536" on="0"/>
        <pt x="544" y="573" on="0"/>
        <pt x="566" y="591" on="1"/>
        <pt x="577" y="599" on="0"/>
        <pt x="593" y="613" on="0"/>
        <pt x="604" y="617" on="1"/>
        <pt x="611" y="619" on="0"/>
        <pt x="625" y="616" on="0"/>
        <pt x="630" y="618" on="1"/>
        <pt x="638" y="622" on="0"/>
        <pt x="650" y="644" on="0"/>
        <pt x="659" y="651" on="1"/>
        <pt x="664" y="655" on="0"/>
        <pt x="673" y="658" on="0"/>
        <pt x="679" y="663" on="1"/>
        <pt x="687" y="668" on="0"/>
        <pt x="702" y="680" on="0"/>
        <pt x="712" y="686" on="1"/>
        <pt x="720" y="691" on="0"/>
        <pt x="738" y="701" on="0"/>
        <pt x="746" y="708" on="1"/>
        <pt x="763" y="720" on="0"/>
        <pt x="797" y="746" on="0"/>
        <pt x="811" y="755" on="1"/>
        <pt x="816" y="758" on="0"/>
        <pt x="825" y="760" on="0"/>
        <pt x="829" y="762" on="1"/>
        <pt x="839" y="767" on="0"/>
        <pt x="856" y="783" on="0"/>
        <pt x="874" y="799" on="0"/>
        <pt x="894" y="812" on="0"/>
        <pt x="906" y="813" on="1"/>
        <pt x="917" y="814" on="0"/>
        <pt x="930" y="806" on="0"/>
        <pt x="938" y="805" on="1"/>
        <pt x="952" y="787" on="0"/>
        <pt x="943" y="749" on="1"/>
        <pt x="941" y="741" on="0"/>
        <pt x="939" y="724" on="0"/>
        <pt x="937" y="719" on="1"/>
        <pt x="934" y="712" on="0"/>
        <pt x="919" y="692" on="0"/>
        <pt x="908" y="686" on="1"/>
        <pt x="900" y="681" on="0"/>
        <pt x="879" y="669" on="0"/>
        <pt x="871" y="667" on="1"/>
        <pt x="865" y="665" on="0"/>
        <pt x="856" y="668" on="0"/>
        <pt x="851" y="667" on="1"/>
        <pt x="839" y="663" on="0"/>
        <pt x="826" y="642" on="0"/>
        <pt x="822" y="632" on="1"/>
        <pt x="805" y="618" on="0"/>
        <pt x="767" y="601" on="0"/>
        <pt x="749" y="590" on="1"/>
        <pt x="729" y="579" on="0"/>
        <pt x="691" y="561" on="0"/>
        <pt x="672" y="551" on="1"/>
        <pt x="648" y="539" on="0"/>
        <pt x="606" y="501" on="0"/>
        <pt x="583" y="486" on="1"/>
        <pt x="559" y="472" on="0"/>
        <pt x="514" y="439" on="0"/>
        <pt x="496" y="420" on="1"/>
        <pt x="490" y="418" on="0"/>
        <pt x="464" y="406" on="0"/>
        <pt x="462" y="398" on="1"/>
        <pt x="461" y="394" on="0"/>
        <pt x="468" y="384" on="0"/>
        <pt x="478" y="373" on="0"/>
        <pt x="487" y="366" on="0"/>
        <pt x="488" y="365" on="1"/>
        <pt x="493" y="361" on="0"/>
        <pt x="502" y="358" on="0"/>
        <pt x="506" y="355" on="1"/>
        <pt x="518" y="345" on="0"/>
        <pt x="537" y="322" on="0"/>
        <pt x="542" y="308" on="1"/>
        <pt x="547" y="295" on="0"/>
        <pt x="556" y="261" on="0"/>
        <pt x="561" y="244" on="1"/>
        <pt x="567" y="224" on="0"/>
        <pt x="580" y="188" on="0"/>
        <pt x="584" y="164" on="1"/>
        <pt x="589" y="130" on="0"/>
        <pt x="595" y="60" on="0"/>
        <pt x="605" y="29" on="1"/>
        <pt x="607" y="24" on="0"/>
        <pt x="608" y="13" on="0"/>
        <pt x="610" y="8" on="1"/>
        <pt x="612" y="3" on="0"/>
        <pt x="616" y="-6" on="0"/>
        <pt x="617" y="-11" on="1"/>
        <pt x="618" y="-18" on="0"/>
        <pt x="615" y="-35" on="0"/>
        <pt x="617" y="-40" on="1"/>
        <pt x="619" y="-45" on="0"/>
        <pt x="632" y="-67" on="0"/>
        <pt x="636" y="-72" on="1"/>
        <pt x="641" y="-80" on="0"/>
        <pt x="654" y="-97" on="0"/>
        <pt x="660" y="-106" on="1"/>
        <pt x="667" y="-115" on="0"/>
        <pt x="678" y="-133" on="0"/>
        <pt x="684" y="-140" on="1"/>
        <pt x="696" y="-154" on="0"/>
        <pt x="730" y="-174" on="0"/>
      </contour>
    </TTGlyph>
    <TTGlyph name="L" xMin="-28" yMin="-60" xMax="717" yMax="739">
      <contour>
        <pt x="259" y="360" on="1"/>
        <pt x="252" y="334" on="0"/>
        <pt x="232" y="282" on="0"/>
        <pt x="228" y="250" on="1"/>
        <pt x="227" y="242" on="0"/>
        <pt x="230" y="222" on="0"/>
        <pt x="230" y="211" on="1"/>
        <pt x="230" y="200" on="0"/>
        <pt x="227" y="169" on="0"/>
        <pt x="228" y="140" on="0"/>
        <pt x="235" y="117" on="0"/>
        <pt x="245" y="114" on="1"/>
        <pt x="257" y="110" on="0"/>
        <pt x="289" y="114" on="0"/>
        <pt x="323" y="121" on="0"/>
        <pt x="358" y="129" on="0"/>
        <pt x="374" y="128" on="1"/>
        <pt x="388" y="127" on="0"/>
        <pt x="418" y="120" on="0"/>
        <pt x="432" y="122" on="1"/>
        <pt x="440" y="123" on="0"/>
        <pt x="457" y="128" on="0"/>
        <pt x="465" y="129" on="1"/>
        <pt x="476" y="130" on="0"/>
        <pt x="501" y="128" on="0"/>
        <pt x="514" y="130" on="1"/>
        <pt x="526" y="132" on="0"/>
        <pt x="552" y="138" on="0"/>
        <pt x="563" y="139" on="1"/>
        <pt x="579" y="139" on="0"/>
        <pt x="610" y="133" on="0"/>
        <pt x="639" y="124" on="0"/>
        <pt x="669" y="118" on="0"/>
        <pt x="684" y="118" on="1"/>
        <pt x="693" y="119" on="0"/>
        <pt x="710" y="124" on="0"/>
        <pt x="717" y="114" on="1"/>
        <pt x="715" y="103" on="0"/>
        <pt x="704" y="92" on="0"/>
        <pt x="699" y="85" on="1"/>
        <pt x="676" y="77" on="0"/>
        <pt x="636" y="78" on="0"/>
        <pt x="614" y="76" on="1"/>
        <pt x="584" y="74" on="0"/>
        <pt x="514" y="54" on="0"/>
        <pt x="485" y="46" on="1"/>
        <pt x="468" y="41" on="0"/>
        <pt x="432" y="28" on="0"/>
        <pt x="412" y="23" on="1"/>
        <pt x="388" y="15" on="0"/>
        <pt x="340" y="3" on="0"/>
        <pt x="317" y="-6" on="1"/>
        <pt x="293" y="-16" on="0"/>
        <pt x="246" y="-40" on="0"/>
        <pt x="220" y="-46" on="1"/>
        <pt x="204" y="-51" on="0"/>
        <pt x="170" y="-60" on="0"/>
        <pt x="155" y="-60" on="1"/>
        <pt x="143" y="-60" on="0"/>
        <pt x="118" y="-55" on="0"/>
        <pt x="95" y="-45" on="0"/>
        <pt x="77" y="-31" on="0"/>
        <pt x="72" y="-23" on="1"/>
        <pt x="62" y="-30" on="0"/>
        <pt x="44" y="-32" on="0"/>
        <pt x="26" y="-29" on="0"/>
        <pt x="8" y="-23" on="0"/>
        <pt x="-2" y="-22" on="1"/>
        <pt x="-7" y="-13" on="0"/>
        <pt x="-20" y="1" on="0"/>
        <pt x="-26" y="9" on="1"/>
        <pt x="-28" y="29" on="0"/>
        <pt x="-8" y="60" on="0"/>
        <pt x="-2" y="78" on="1"/>
        <pt x="8" y="102" on="0"/>
        <pt x="26" y="155" on="0"/>
        <pt x="31" y="181" on="1"/>
        <pt x="35" y="203" on="0"/>
        <pt x="35" y="259" on="0"/>
        <pt x="43" y="281" on="1"/>
        <pt x="88" y="394" on="1"/>
        <pt x="84" y="410" on="0"/>
        <pt x="86" y="436" on="0"/>
        <pt x="94" y="462" on="0"/>
        <pt x="104" y="489" on="0"/>
        <pt x="109" y="506" on="1"/>
        <pt x="114" y="527" on="0"/>
        <pt x="125" y="570" on="0"/>
        <pt x="127" y="597" on="1"/>
        <pt x="129" y="620" on="0"/>
        <pt x="129" y="664" on="0"/>
        <pt x="117" y="679" on="1"/>
        <pt x="114" y="683" on="0"/>
        <pt x="100" y="692" on="0"/>
        <pt x="86" y="701" on="0"/>
        <pt x="76" y="712" on="0"/>
        <pt x="76" y="717" on="1"/>
        <pt x="76" y="724" on="0"/>
        <pt x="89" y="733" on="0"/>
        <pt x="107" y="738" on="0"/>
        <pt x="127" y="739" on="0"/>
        <pt x="136" y="739" on="1"/>
        <pt x="153" y="738" on="0"/>
        <pt x="190" y="732" on="0"/>
        <pt x="207" y="730" on="1"/>
        <pt x="212" y="729" on="0"/>
        <pt x="222" y="731" on="0"/>
        <pt x="227" y="730" on="1"/>
        <pt x="235" y="729" on="0"/>
        <pt x="248" y="723" on="0"/>
        <pt x="254" y="723" on="1"/>
        <pt x="259" y="722" on="0"/>
        <pt x="286" y="725" on="0"/>
        <pt x="291" y="724" on="1"/>
        <pt x="297" y="724" on="0"/>
        <pt x="308" y="719" on="0"/>
        <pt x="315" y="718" on="1"/>
        <pt x="331" y="716" on="0"/>
        <pt x="365" y="720" on="0"/>
        <pt x="398" y="724" on="0"/>
        <pt x="433" y="727" on="0"/>
        <pt x="451" y="724" on="1"/>
        <pt x="450" y="711" on="0"/>
        <pt x="429" y="698" on="0"/>
        <pt x="422" y="693" on="1"/>
        <pt x="418" y="689" on="0"/>
        <pt x="411" y="682" on="0"/>
        <pt x="407" y="679" on="1"/>
        <pt x="402" y="675" on="0"/>
        <pt x="394" y="670" on="0"/>
        <pt x="390" y="666" on="1"/>
        <pt x="378" y="653" on="0"/>
        <pt x="368" y="628" on="0"/>
        <pt x="360" y="610" on="1"/>
        <pt x="358" y="605" on="0"/>
        <pt x="351" y="596" on="0"/>
        <pt x="348" y="591" on="1"/>
        <pt x="346" y="585" on="0"/>
        <pt x="343" y="571" on="0"/>
        <pt x="340" y="566" on="1"/>
        <pt x="336" y="560" on="0"/>
        <pt x="321" y="551" on="0"/>
        <pt x="316" y="543" on="1"/>
        <pt x="320" y="531" on="0"/>
        <pt x="316" y="508" on="0"/>
        <pt x="309" y="487" on="0"/>
        <pt x="299" y="466" on="0"/>
        <pt x="297" y="456" on="1"/>
      </contour>
    </TTGlyph>
    <TTGlyph name="Lslash" xMin="-79" yMin="-60" xMax="716" yMax="739">
      <contour>
        <pt x="683" y="118" on="1"/>
        <pt x="692" y="119" on="0"/>
        <pt x="708" y="124" on="0"/>
        <pt x="716" y="114" on="1"/>
        <pt x="714" y="103" on="0"/>
        <pt x="703" y="92" on="0"/>
        <pt x="698" y="85" on="1"/>
        <pt x="675" y="77" on="0"/>
        <pt x="635" y="78" on="0"/>
        <pt x="613" y="76" on="1"/>
        <pt x="583" y="74" on="0"/>
        <pt x="513" y="54" on="0"/>
        <pt x="484" y="46" on="1"/>
        <pt x="467" y="41" on="0"/>
        <pt x="431" y="28" on="0"/>
        <pt x="411" y="23" on="1"/>
        <pt x="387" y="15" on="0"/>
        <pt x="339" y="3" on="0"/>
        <pt x="316" y="-6" on="1"/>
        <pt x="292" y="-16" on="0"/>
        <pt x="245" y="-40" on="0"/>
        <pt x="219" y="-46" on="1"/>
        <pt x="202" y="-51" on="0"/>
        <pt x="169" y="-60" on="0"/>
        <pt x="154" y="-60" on="1"/>
        <pt x="142" y="-60" on="0"/>
        <pt x="117" y="-55" on="0"/>
        <pt x="94" y="-45" on="0"/>
        <pt x="76" y="-31" on="0"/>
        <pt x="71" y="-23" on="1"/>
        <pt x="60" y="-30" on="0"/>
        <pt x="42" y="-32" on="0"/>
        <pt x="25" y="-29" on="0"/>
        <pt x="7" y="-23" on="0"/>
        <pt x="-3" y="-22" on="1"/>
        <pt x="-8" y="-13" on="0"/>
        <pt x="-21" y="1" on="0"/>
        <pt x="-27" y="9" on="1"/>
        <pt x="-29" y="29" on="0"/>
        <pt x="-9" y="60" on="0"/>
        <pt x="-3" y="78" on="1"/>
        <pt x="7" y="102" on="0"/>
        <pt x="24" y="155" on="0"/>
        <pt x="29" y="181" on="1"/>
        <pt x="33" y="203" on="0"/>
        <pt x="33" y="259" on="0"/>
        <pt x="42" y="281" on="1"/>
        <pt x="56" y="316" on="1"/>
        <pt x="30" y="309" on="1"/>
        <pt x="16" y="308" on="0"/>
        <pt x="-7" y="300" on="0"/>
        <pt x="-29" y="291" on="0"/>
        <pt x="-52" y="285" on="0"/>
        <pt x="-67" y="287" on="1"/>
        <pt x="-79" y="297" on="0"/>
        <pt x="-75" y="323" on="0"/>
        <pt x="-76" y="338" on="1"/>
        <pt x="-64" y="354" on="0"/>
        <pt x="-22" y="372" on="0"/>
        <pt x="23" y="387" on="0"/>
        <pt x="66" y="404" on="0"/>
        <pt x="80" y="418" on="1"/>
        <pt x="85" y="442" on="0"/>
        <pt x="100" y="480" on="0"/>
        <pt x="108" y="506" on="1"/>
        <pt x="113" y="527" on="0"/>
        <pt x="124" y="570" on="0"/>
        <pt x="126" y="597" on="1"/>
        <pt x="127" y="620" on="0"/>
        <pt x="128" y="664" on="0"/>
        <pt x="116" y="679" on="1"/>
        <pt x="112" y="683" on="0"/>
        <pt x="98" y="692" on="0"/>
        <pt x="85" y="701" on="0"/>
        <pt x="75" y="712" on="0"/>
        <pt x="75" y="717" on="1"/>
        <pt x="75" y="724" on="0"/>
        <pt x="88" y="733" on="0"/>
        <pt x="106" y="738" on="0"/>
        <pt x="126" y="739" on="0"/>
        <pt x="134" y="739" on="1"/>
        <pt x="152" y="738" on="0"/>
        <pt x="189" y="732" on="0"/>
        <pt x="206" y="730" on="1"/>
        <pt x="211" y="729" on="0"/>
        <pt x="221" y="731" on="0"/>
        <pt x="226" y="730" on="1"/>
        <pt x="234" y="729" on="0"/>
        <pt x="247" y="723" on="0"/>
        <pt x="253" y="723" on="1"/>
        <pt x="258" y="722" on="0"/>
        <pt x="284" y="725" on="0"/>
        <pt x="289" y="724" on="1"/>
        <pt x="296" y="724" on="0"/>
        <pt x="307" y="719" on="0"/>
        <pt x="314" y="718" on="1"/>
        <pt x="330" y="716" on="0"/>
        <pt x="364" y="720" on="0"/>
        <pt x="397" y="724" on="0"/>
        <pt x="432" y="727" on="0"/>
        <pt x="450" y="724" on="1"/>
        <pt x="449" y="711" on="0"/>
        <pt x="427" y="698" on="0"/>
        <pt x="421" y="693" on="1"/>
        <pt x="417" y="689" on="0"/>
        <pt x="410" y="682" on="0"/>
        <pt x="406" y="679" on="1"/>
        <pt x="401" y="675" on="0"/>
        <pt x="393" y="670" on="0"/>
        <pt x="389" y="666" on="1"/>
        <pt x="377" y="653" on="0"/>
        <pt x="367" y="628" on="0"/>
        <pt x="359" y="610" on="1"/>
        <pt x="357" y="605" on="0"/>
        <pt x="350" y="596" on="0"/>
        <pt x="347" y="591" on="1"/>
        <pt x="345" y="585" on="0"/>
        <pt x="342" y="571" on="0"/>
        <pt x="339" y="566" on="1"/>
        <pt x="335" y="560" on="0"/>
        <pt x="320" y="551" on="0"/>
        <pt x="315" y="543" on="1"/>
        <pt x="322" y="520" on="0"/>
        <pt x="303" y="481" on="0"/>
        <pt x="297" y="462" on="1"/>
        <pt x="323" y="467" on="0"/>
        <pt x="356" y="478" on="0"/>
        <pt x="381" y="484" on="1"/>
        <pt x="397" y="488" on="0"/>
        <pt x="431" y="495" on="0"/>
        <pt x="439" y="484" on="1"/>
        <pt x="441" y="481" on="0"/>
        <pt x="441" y="463" on="0"/>
        <pt x="439" y="458" on="1"/>
        <pt x="437" y="454" on="0"/>
        <pt x="425" y="446" on="0"/>
        <pt x="410" y="439" on="0"/>
        <pt x="395" y="430" on="0"/>
        <pt x="389" y="425" on="1"/>
        <pt x="385" y="421" on="0"/>
        <pt x="376" y="407" on="0"/>
        <pt x="371" y="403" on="1"/>
        <pt x="359" y="397" on="0"/>
        <pt x="326" y="392" on="0"/>
        <pt x="312" y="388" on="1"/>
        <pt x="298" y="383" on="0"/>
        <pt x="273" y="376" on="0"/>
        <pt x="262" y="372" on="1"/>
        <pt x="258" y="360" on="1"/>
        <pt x="251" y="334" on="0"/>
        <pt x="231" y="282" on="0"/>
        <pt x="227" y="250" on="1"/>
        <pt x="225" y="242" on="0"/>
        <pt x="229" y="222" on="0"/>
        <pt x="229" y="211" on="1"/>
        <pt x="229" y="200" on="0"/>
        <pt x="226" y="169" on="0"/>
        <pt x="226" y="140" on="0"/>
        <pt x="233" y="117" on="0"/>
        <pt x="244" y="114" on="1"/>
        <pt x="256" y="110" on="0"/>
        <pt x="287" y="114" on="0"/>
        <pt x="322" y="121" on="0"/>
        <pt x="357" y="129" on="0"/>
        <pt x="373" y="128" on="1"/>
        <pt x="387" y="127" on="0"/>
        <pt x="417" y="120" on="0"/>
        <pt x="431" y="122" on="1"/>
        <pt x="439" y="123" on="0"/>
        <pt x="456" y="128" on="0"/>
        <pt x="464" y="129" on="1"/>
        <pt x="475" y="130" on="0"/>
        <pt x="500" y="128" on="0"/>
        <pt x="512" y="130" on="1"/>
        <pt x="525" y="132" on="0"/>
        <pt x="550" y="138" on="0"/>
        <pt x="561" y="139" on="1"/>
        <pt x="578" y="139" on="0"/>
        <pt x="609" y="133" on="0"/>
        <pt x="638" y="124" on="0"/>
        <pt x="668" y="118" on="0"/>
      </contour>
    </TTGlyph>
    <TTGlyph name="M" xMin="-28" yMin="-56" xMax="1183" yMax="753">
      <contour>
        <pt x="1176" y="753" on="1"/>
        <pt x="1183" y="741" on="0"/>
        <pt x="1183" y="730" on="1"/>
        <pt x="1160" y="724" on="0"/>
        <pt x="1125" y="709" on="0"/>
        <pt x="1097" y="690" on="0"/>
        <pt x="1074" y="663" on="0"/>
        <pt x="1063" y="645" on="1"/>
        <pt x="1057" y="636" on="0"/>
        <pt x="1042" y="626" on="0"/>
        <pt x="1037" y="616" on="1"/>
        <pt x="1030" y="603" on="0"/>
        <pt x="1022" y="572" on="0"/>
        <pt x="1018" y="556" on="1"/>
        <pt x="1016" y="551" on="0"/>
        <pt x="1012" y="540" on="0"/>
        <pt x="1010" y="535" on="1"/>
        <pt x="1008" y="524" on="0"/>
        <pt x="1010" y="504" on="0"/>
        <pt x="1006" y="494" on="1"/>
        <pt x="1003" y="486" on="0"/>
        <pt x="993" y="476" on="0"/>
        <pt x="990" y="470" on="1"/>
        <pt x="982" y="456" on="0"/>
        <pt x="977" y="422" on="0"/>
        <pt x="975" y="403" on="1"/>
        <pt x="974" y="397" on="0"/>
        <pt x="969" y="387" on="0"/>
        <pt x="967" y="381" on="1"/>
        <pt x="965" y="373" on="0"/>
        <pt x="963" y="358" on="0"/>
        <pt x="961" y="350" on="1"/>
        <pt x="954" y="330" on="0"/>
        <pt x="939" y="289" on="0"/>
        <pt x="936" y="269" on="1"/>
        <pt x="934" y="258" on="0"/>
        <pt x="935" y="237" on="0"/>
        <pt x="933" y="226" on="1"/>
        <pt x="928" y="197" on="0"/>
        <pt x="910" y="144" on="0"/>
        <pt x="902" y="119" on="1"/>
        <pt x="897" y="101" on="0"/>
        <pt x="892" y="70" on="0"/>
        <pt x="886" y="53" on="1"/>
        <pt x="882" y="44" on="0"/>
        <pt x="878" y="29" on="0"/>
        <pt x="872" y="22" on="1"/>
        <pt x="866" y="15" on="0"/>
        <pt x="844" y="7" on="0"/>
        <pt x="820" y="1" on="0"/>
        <pt x="797" y="-4" on="0"/>
        <pt x="788" y="-7" on="1"/>
        <pt x="779" y="-11" on="0"/>
        <pt x="767" y="-26" on="0"/>
        <pt x="753" y="-39" on="0"/>
        <pt x="736" y="-44" on="0"/>
        <pt x="722" y="-38" on="1"/>
        <pt x="721" y="-26" on="0"/>
        <pt x="722" y="4" on="0"/>
        <pt x="724" y="16" on="1"/>
        <pt x="727" y="33" on="0"/>
        <pt x="742" y="59" on="0"/>
        <pt x="749" y="74" on="1"/>
        <pt x="760" y="100" on="0"/>
        <pt x="766" y="148" on="0"/>
        <pt x="776" y="174" on="1"/>
        <pt x="785" y="180" on="0"/>
        <pt x="791" y="194" on="0"/>
        <pt x="792" y="211" on="0"/>
        <pt x="790" y="231" on="0"/>
        <pt x="792" y="243" on="1"/>
        <pt x="793" y="255" on="0"/>
        <pt x="803" y="279" on="0"/>
        <pt x="805" y="292" on="1"/>
        <pt x="807" y="303" on="0"/>
        <pt x="808" y="316" on="0"/>
        <pt x="809" y="326" on="0"/>
        <pt x="812" y="337" on="0"/>
        <pt x="815" y="346" on="1"/>
        <pt x="819" y="355" on="0"/>
        <pt x="829" y="373" on="0"/>
        <pt x="833" y="383" on="1"/>
        <pt x="841" y="409" on="0"/>
        <pt x="849" y="467" on="0"/>
        <pt x="853" y="495" on="1"/>
        <pt x="855" y="512" on="0"/>
        <pt x="864" y="554" on="0"/>
        <pt x="862" y="571" on="1"/>
        <pt x="858" y="571" on="0"/>
        <pt x="837" y="547" on="0"/>
        <pt x="808" y="508" on="0"/>
        <pt x="773" y="459" on="0"/>
        <pt x="740" y="408" on="0"/>
        <pt x="711" y="363" on="0"/>
        <pt x="702" y="347" on="1"/>
        <pt x="687" y="338" on="0"/>
        <pt x="672" y="315" on="0"/>
        <pt x="662" y="289" on="0"/>
        <pt x="652" y="260" on="0"/>
        <pt x="642" y="245" on="1"/>
        <pt x="634" y="214" on="0"/>
        <pt x="596" y="154" on="0"/>
        <pt x="584" y="125" on="1"/>
        <pt x="581" y="117" on="0"/>
        <pt x="576" y="104" on="0"/>
        <pt x="571" y="96" on="1"/>
        <pt x="563" y="76" on="0"/>
        <pt x="542" y="39" on="0"/>
        <pt x="531" y="19" on="1"/>
        <pt x="519" y="-1" on="0"/>
        <pt x="504" y="-18" on="1"/>
        <pt x="498" y="-26" on="0"/>
        <pt x="491" y="-52" on="0"/>
        <pt x="484" y="-54" on="1"/>
        <pt x="475" y="-56" on="0"/>
        <pt x="455" y="-47" on="0"/>
        <pt x="446" y="-45" on="1"/>
        <pt x="428" y="-19" on="0"/>
        <pt x="425" y="7" on="1"/>
        <pt x="425" y="14" on="0"/>
        <pt x="429" y="27" on="0"/>
        <pt x="428" y="33" on="1"/>
        <pt x="427" y="44" on="0"/>
        <pt x="411" y="71" on="0"/>
        <pt x="409" y="85" on="1"/>
        <pt x="405" y="102" on="0"/>
        <pt x="413" y="133" on="0"/>
        <pt x="409" y="146" on="1"/>
        <pt x="407" y="152" on="0"/>
        <pt x="396" y="161" on="0"/>
        <pt x="394" y="166" on="1"/>
        <pt x="392" y="173" on="0"/>
        <pt x="393" y="191" on="0"/>
        <pt x="392" y="200" on="1"/>
        <pt x="389" y="217" on="0"/>
        <pt x="376" y="259" on="0"/>
        <pt x="371" y="280" on="1"/>
        <pt x="366" y="295" on="0"/>
        <pt x="349" y="335" on="0"/>
        <pt x="347" y="353" on="1"/>
        <pt x="346" y="363" on="0"/>
        <pt x="345" y="380" on="0"/>
        <pt x="344" y="388" on="1"/>
        <pt x="342" y="406" on="0"/>
        <pt x="328" y="448" on="0"/>
        <pt x="313" y="490" on="0"/>
        <pt x="302" y="532" on="0"/>
        <pt x="302" y="552" on="1"/>
        <pt x="297" y="550" on="0"/>
        <pt x="289" y="536" on="0"/>
        <pt x="281" y="516" on="0"/>
        <pt x="275" y="496" on="0"/>
        <pt x="273" y="490" on="1"/>
        <pt x="270" y="485" on="0"/>
        <pt x="260" y="473" on="0"/>
        <pt x="259" y="465" on="1"/>
        <pt x="258" y="461" on="0"/>
        <pt x="263" y="451" on="0"/>
        <pt x="263" y="445" on="1"/>
        <pt x="264" y="429" on="0"/>
        <pt x="250" y="394" on="0"/>
        <pt x="245" y="377" on="1"/>
        <pt x="240" y="357" on="0"/>
        <pt x="234" y="314" on="0"/>
        <pt x="225" y="291" on="1"/>
        <pt x="217" y="269" on="0"/>
        <pt x="208" y="224" on="0"/>
        <pt x="203" y="206" on="1"/>
        <pt x="201" y="193" on="0"/>
        <pt x="201" y="167" on="0"/>
        <pt x="197" y="159" on="1"/>
        <pt x="192" y="149" on="0"/>
        <pt x="169" y="137" on="0"/>
        <pt x="166" y="126" on="1"/>
        <pt x="165" y="105" on="0"/>
        <pt x="149" y="51" on="0"/>
        <pt x="143" y="28" on="1"/>
        <pt x="141" y="19" on="0"/>
        <pt x="139" y="0" on="0"/>
        <pt x="134" y="-15" on="0"/>
        <pt x="123" y="-26" on="0"/>
        <pt x="112" y="-27" on="1"/>
        <pt x="93" y="-29" on="0"/>
        <pt x="56" y="-7" on="0"/>
        <pt x="52" y="5" on="1"/>
        <pt x="50" y="13" on="0"/>
        <pt x="54" y="30" on="0"/>
        <pt x="54" y="38" on="1"/>
        <pt x="41" y="30" on="0"/>
        <pt x="28" y="30" on="0"/>
        <pt x="18" y="39" on="0"/>
        <pt x="6" y="54" on="0"/>
        <pt x="-4" y="61" on="1"/>
        <pt x="-14" y="69" on="0"/>
        <pt x="-24" y="72" on="0"/>
        <pt x="-26" y="86" on="1"/>
        <pt x="-28" y="101" on="0"/>
        <pt x="-20" y="129" on="0"/>
        <pt x="-14" y="138" on="1"/>
        <pt x="-11" y="144" on="0"/>
        <pt x="-1" y="153" on="0"/>
        <pt x="2" y="158" on="1"/>
        <pt x="6" y="166" on="0"/>
        <pt x="-1" y="195" on="0"/>
        <pt x="4" y="206" on="1"/>
        <pt x="11" y="221" on="0"/>
        <pt x="27" y="248" on="0"/>
        <pt x="28" y="268" on="1"/>
        <pt x="29" y="276" on="0"/>
        <pt x="25" y="294" on="0"/>
        <pt x="27" y="302" on="1"/>
        <pt x="28" y="310" on="0"/>
        <pt x="33" y="327" on="0"/>
        <pt x="36" y="338" on="1"/>
        <pt x="39" y="353" on="0"/>
        <pt x="55" y="387" on="0"/>
        <pt x="60" y="407" on="1"/>
        <pt x="64" y="415" on="0"/>
        <pt x="70" y="432" on="0"/>
        <pt x="73" y="440" on="1"/>
        <pt x="79" y="457" on="0"/>
        <pt x="84" y="490" on="0"/>
        <pt x="89" y="506" on="1"/>
        <pt x="91" y="512" on="0"/>
        <pt x="100" y="521" on="0"/>
        <pt x="102" y="526" on="1"/>
        <pt x="110" y="543" on="0"/>
        <pt x="110" y="580" on="0"/>
        <pt x="114" y="600" on="1"/>
        <pt x="117" y="619" on="0"/>
        <pt x="126" y="650" on="0"/>
        <pt x="132" y="677" on="0"/>
        <pt x="129" y="701" on="0"/>
        <pt x="120" y="714" on="1"/>
        <pt x="115" y="721" on="0"/>
        <pt x="104" y="727" on="0"/>
        <pt x="103" y="732" on="1"/>
        <pt x="103" y="744" on="0"/>
        <pt x="122" y="747" on="0"/>
        <pt x="146" y="741" on="0"/>
        <pt x="169" y="732" on="0"/>
        <pt x="172" y="731" on="1"/>
        <pt x="177" y="730" on="0"/>
        <pt x="191" y="732" on="0"/>
        <pt x="199" y="730" on="1"/>
        <pt x="208" y="729" on="0"/>
        <pt x="226" y="725" on="0"/>
        <pt x="233" y="724" on="1"/>
        <pt x="249" y="724" on="0"/>
        <pt x="263" y="725" on="0"/>
        <pt x="278" y="726" on="1"/>
        <pt x="292" y="727" on="0"/>
        <pt x="333" y="725" on="0"/>
        <pt x="348" y="727" on="1"/>
        <pt x="361" y="728" on="0"/>
        <pt x="400" y="734" on="0"/>
        <pt x="437" y="738" on="0"/>
        <pt x="466" y="735" on="0"/>
        <pt x="468" y="726" on="1"/>
        <pt x="471" y="715" on="0"/>
        <pt x="454" y="698" on="0"/>
        <pt x="452" y="689" on="1"/>
        <pt x="450" y="665" on="0"/>
        <pt x="444" y="606" on="0"/>
        <pt x="447" y="586" on="1"/>
        <pt x="449" y="575" on="0"/>
        <pt x="447" y="554" on="0"/>
        <pt x="450" y="546" on="1"/>
        <pt x="456" y="524" on="0"/>
        <pt x="459" y="504" on="1"/>
        <pt x="460" y="492" on="0"/>
        <pt x="477" y="471" on="0"/>
        <pt x="476" y="460" on="1"/>
        <pt x="475" y="446" on="0"/>
        <pt x="488" y="417" on="0"/>
        <pt x="489" y="401" on="1"/>
        <pt x="491" y="385" on="0"/>
        <pt x="492" y="351" on="0"/>
        <pt x="502" y="337" on="1"/>
        <pt x="512" y="345" on="0"/>
        <pt x="517" y="369" on="0"/>
        <pt x="522" y="380" on="1"/>
        <pt x="524" y="385" on="0"/>
        <pt x="533" y="394" on="0"/>
        <pt x="537" y="399" on="1"/>
        <pt x="548" y="422" on="0"/>
        <pt x="581" y="473" on="0"/>
        <pt x="593" y="499" on="1"/>
        <pt x="606" y="524" on="0"/>
        <pt x="630" y="575" on="0"/>
        <pt x="641" y="601" on="1"/>
        <pt x="643" y="605" on="0"/>
        <pt x="654" y="615" on="0"/>
        <pt x="666" y="625" on="0"/>
        <pt x="677" y="634" on="0"/>
        <pt x="680" y="639" on="1"/>
        <pt x="695" y="667" on="0"/>
        <pt x="716" y="708" on="0"/>
        <pt x="721" y="739" on="1"/>
        <pt x="739" y="740" on="0"/>
        <pt x="772" y="736" on="0"/>
        <pt x="792" y="733" on="1"/>
        <pt x="800" y="731" on="0"/>
        <pt x="813" y="725" on="0"/>
        <pt x="820" y="724" on="1"/>
        <pt x="834" y="722" on="0"/>
        <pt x="851" y="724" on="0"/>
        <pt x="864" y="727" on="0"/>
        <pt x="877" y="728" on="0"/>
        <pt x="889" y="724" on="1"/>
        <pt x="923" y="724" on="0"/>
        <pt x="995" y="734" on="0"/>
        <pt x="1068" y="745" on="0"/>
        <pt x="1141" y="753" on="0"/>
      </contour>
    </TTGlyph>
    <TTGlyph name="N" xMin="-51" yMin="-36" xMax="963" yMax="768">
      <contour>
        <pt x="963" y="763" on="1"/>
        <pt x="954" y="746" on="0"/>
        <pt x="929" y="727" on="0"/>
        <pt x="915" y="717" on="1"/>
        <pt x="903" y="706" on="0"/>
        <pt x="873" y="689" on="0"/>
        <pt x="862" y="678" on="1"/>
        <pt x="841" y="655" on="0"/>
        <pt x="810" y="588" on="0"/>
        <pt x="796" y="555" on="1"/>
        <pt x="792" y="547" on="0"/>
        <pt x="779" y="531" on="0"/>
        <pt x="775" y="522" on="1"/>
        <pt x="764" y="495" on="0"/>
        <pt x="749" y="435" on="0"/>
        <pt x="736" y="374" on="0"/>
        <pt x="722" y="312" on="0"/>
        <pt x="712" y="283" on="1"/>
        <pt x="707" y="278" on="0"/>
        <pt x="693" y="271" on="0"/>
        <pt x="690" y="264" on="1"/>
        <pt x="691" y="259" on="0"/>
        <pt x="698" y="250" on="0"/>
        <pt x="699" y="244" on="1"/>
        <pt x="700" y="236" on="0"/>
        <pt x="693" y="220" on="0"/>
        <pt x="691" y="210" on="1"/>
        <pt x="686" y="181" on="0"/>
        <pt x="665" y="112" on="0"/>
        <pt x="649" y="92" on="1"/>
        <pt x="640" y="62" on="0"/>
        <pt x="625" y="0" on="0"/>
        <pt x="608" y="-23" on="1"/>
        <pt x="599" y="-26" on="0"/>
        <pt x="584" y="-36" on="0"/>
        <pt x="573" y="-36" on="1"/>
        <pt x="568" y="-36" on="0"/>
        <pt x="557" y="-30" on="0"/>
        <pt x="550" y="-28" on="1"/>
        <pt x="542" y="-26" on="0"/>
        <pt x="522" y="-23" on="0"/>
        <pt x="513" y="-20" on="1"/>
        <pt x="504" y="-18" on="0"/>
        <pt x="487" y="-12" on="0"/>
        <pt x="479" y="-12" on="1"/>
        <pt x="470" y="-12" on="0"/>
        <pt x="440" y="-12" on="0"/>
        <pt x="432" y="-9" on="1"/>
        <pt x="429" y="1" on="0"/>
        <pt x="418" y="18" on="0"/>
        <pt x="414" y="28" on="1"/>
        <pt x="410" y="37" on="0"/>
        <pt x="400" y="59" on="0"/>
        <pt x="399" y="70" on="1"/>
        <pt x="398" y="75" on="0"/>
        <pt x="402" y="87" on="0"/>
        <pt x="401" y="92" on="1"/>
        <pt x="399" y="100" on="0"/>
        <pt x="387" y="116" on="0"/>
        <pt x="385" y="124" on="1"/>
        <pt x="384" y="129" on="0"/>
        <pt x="386" y="140" on="0"/>
        <pt x="385" y="145" on="1"/>
        <pt x="384" y="152" on="0"/>
        <pt x="377" y="160" on="0"/>
        <pt x="375" y="166" on="1"/>
        <pt x="373" y="169" on="0"/>
        <pt x="375" y="176" on="0"/>
        <pt x="374" y="179" on="1"/>
        <pt x="372" y="186" on="0"/>
        <pt x="363" y="199" on="0"/>
        <pt x="361" y="205" on="1"/>
        <pt x="357" y="221" on="0"/>
        <pt x="358" y="256" on="0"/>
        <pt x="356" y="273" on="1"/>
        <pt x="354" y="287" on="0"/>
        <pt x="345" y="314" on="0"/>
        <pt x="345" y="329" on="1"/>
        <pt x="345" y="337" on="0"/>
        <pt x="351" y="349" on="0"/>
        <pt x="351" y="356" on="1"/>
        <pt x="352" y="364" on="0"/>
        <pt x="346" y="376" on="0"/>
        <pt x="345" y="384" on="1"/>
        <pt x="342" y="391" on="0"/>
        <pt x="329" y="397" on="0"/>
        <pt x="323" y="401" on="1"/>
        <pt x="315" y="430" on="0"/>
        <pt x="287" y="505" on="0"/>
        <pt x="279" y="535" on="1"/>
        <pt x="279" y="537" on="0"/>
        <pt x="276" y="522" on="0"/>
        <pt x="271" y="500" on="0"/>
        <pt x="263" y="476" on="0"/>
        <pt x="257" y="469" on="1"/>
        <pt x="265" y="455" on="0"/>
        <pt x="251" y="415" on="0"/>
        <pt x="246" y="395" on="1"/>
        <pt x="239" y="366" on="0"/>
        <pt x="227" y="307" on="0"/>
        <pt x="217" y="278" on="1"/>
        <pt x="215" y="271" on="0"/>
        <pt x="209" y="261" on="0"/>
        <pt x="207" y="255" on="1"/>
        <pt x="204" y="245" on="0"/>
        <pt x="204" y="223" on="0"/>
        <pt x="202" y="212" on="1"/>
        <pt x="200" y="201" on="0"/>
        <pt x="197" y="181" on="0"/>
        <pt x="195" y="171" on="1"/>
        <pt x="192" y="153" on="0"/>
        <pt x="185" y="109" on="0"/>
        <pt x="174" y="68" on="0"/>
        <pt x="156" y="35" on="0"/>
        <pt x="142" y="28" on="1"/>
        <pt x="131" y="21" on="0"/>
        <pt x="114" y="25" on="0"/>
        <pt x="105" y="31" on="1"/>
        <pt x="100" y="30" on="0"/>
        <pt x="98" y="19" on="0"/>
        <pt x="94" y="17" on="1"/>
        <pt x="80" y="18" on="0"/>
        <pt x="62" y="7" on="0"/>
        <pt x="51" y="4" on="1"/>
        <pt x="48" y="3" on="0"/>
        <pt x="41" y="4" on="0"/>
        <pt x="38" y="2" on="1"/>
        <pt x="29" y="-1" on="0"/>
        <pt x="15" y="-11" on="0"/>
        <pt x="2" y="-20" on="0"/>
        <pt x="-12" y="-26" on="0"/>
        <pt x="-20" y="-24" on="1"/>
        <pt x="-32" y="-21" on="0"/>
        <pt x="-43" y="-1" on="0"/>
        <pt x="-51" y="7" on="1"/>
        <pt x="-49" y="21" on="0"/>
        <pt x="-40" y="55" on="0"/>
        <pt x="-29" y="90" on="0"/>
        <pt x="-17" y="123" on="0"/>
        <pt x="-12" y="136" on="1"/>
        <pt x="-9" y="147" on="0"/>
        <pt x="-2" y="167" on="0"/>
        <pt x="1" y="178" on="1"/>
        <pt x="4" y="188" on="0"/>
        <pt x="14" y="207" on="0"/>
        <pt x="16" y="217" on="1"/>
        <pt x="18" y="228" on="0"/>
        <pt x="16" y="249" on="0"/>
        <pt x="17" y="260" on="1"/>
        <pt x="19" y="270" on="0"/>
        <pt x="29" y="294" on="0"/>
        <pt x="32" y="305" on="1"/>
        <pt x="42" y="339" on="0"/>
        <pt x="64" y="402" on="0"/>
        <pt x="84" y="426" on="1"/>
        <pt x="84" y="440" on="0"/>
        <pt x="92" y="464" on="0"/>
        <pt x="100" y="486" on="0"/>
        <pt x="102" y="507" on="0"/>
        <pt x="96" y="519" on="1"/>
        <pt x="100" y="537" on="0"/>
        <pt x="113" y="570" on="0"/>
        <pt x="117" y="589" on="1"/>
        <pt x="118" y="594" on="0"/>
        <pt x="117" y="606" on="0"/>
        <pt x="119" y="611" on="1"/>
        <pt x="121" y="620" on="0"/>
        <pt x="132" y="641" on="0"/>
        <pt x="145" y="662" on="0"/>
        <pt x="156" y="682" on="0"/>
        <pt x="158" y="690" on="1"/>
        <pt x="169" y="692" on="0"/>
        <pt x="189" y="697" on="0"/>
        <pt x="203" y="697" on="1"/>
        <pt x="209" y="697" on="0"/>
        <pt x="221" y="694" on="0"/>
        <pt x="227" y="695" on="1"/>
        <pt x="238" y="697" on="0"/>
        <pt x="249" y="713" on="0"/>
        <pt x="257" y="717" on="1"/>
        <pt x="271" y="719" on="0"/>
        <pt x="298" y="720" on="0"/>
        <pt x="311" y="724" on="1"/>
        <pt x="317" y="726" on="0"/>
        <pt x="336" y="732" on="0"/>
        <pt x="342" y="732" on="1"/>
        <pt x="354" y="732" on="0"/>
        <pt x="369" y="714" on="0"/>
        <pt x="379" y="689" on="0"/>
        <pt x="387" y="664" on="0"/>
        <pt x="394" y="657" on="1"/>
        <pt x="394" y="627" on="0"/>
        <pt x="400" y="578" on="0"/>
        <pt x="402" y="546" on="1"/>
        <pt x="406" y="512" on="0"/>
        <pt x="420" y="455" on="0"/>
        <pt x="428" y="425" on="1"/>
        <pt x="431" y="412" on="0"/>
        <pt x="434" y="386" on="0"/>
        <pt x="439" y="375" on="1"/>
        <pt x="447" y="355" on="0"/>
        <pt x="464" y="321" on="0"/>
        <pt x="466" y="301" on="1"/>
        <pt x="469" y="278" on="0"/>
        <pt x="467" y="237" on="0"/>
        <pt x="472" y="217" on="1"/>
        <pt x="477" y="201" on="0"/>
        <pt x="489" y="181" on="0"/>
        <pt x="500" y="168" on="1"/>
        <pt x="511" y="182" on="0"/>
        <pt x="515" y="214" on="0"/>
        <pt x="517" y="230" on="1"/>
        <pt x="520" y="247" on="0"/>
        <pt x="530" y="278" on="0"/>
        <pt x="535" y="295" on="1"/>
        <pt x="540" y="319" on="0"/>
        <pt x="557" y="371" on="0"/>
        <pt x="566" y="392" on="1"/>
        <pt x="568" y="398" on="0"/>
        <pt x="578" y="412" on="0"/>
        <pt x="582" y="419" on="1"/>
        <pt x="588" y="430" on="0"/>
        <pt x="581" y="459" on="0"/>
        <pt x="583" y="473" on="1"/>
        <pt x="585" y="483" on="0"/>
        <pt x="592" y="506" on="0"/>
        <pt x="595" y="518" on="1"/>
        <pt x="602" y="547" on="0"/>
        <pt x="605" y="613" on="0"/>
        <pt x="612" y="637" on="1"/>
        <pt x="615" y="645" on="0"/>
        <pt x="625" y="673" on="0"/>
        <pt x="624" y="683" on="1"/>
        <pt x="624" y="691" on="0"/>
        <pt x="613" y="699" on="0"/>
        <pt x="613" y="707" on="1"/>
        <pt x="613" y="715" on="0"/>
        <pt x="628" y="727" on="0"/>
        <pt x="649" y="735" on="0"/>
        <pt x="672" y="739" on="0"/>
        <pt x="680" y="739" on="1"/>
        <pt x="689" y="739" on="0"/>
        <pt x="704" y="735" on="0"/>
        <pt x="718" y="731" on="0"/>
        <pt x="735" y="728" on="0"/>
        <pt x="746" y="729" on="1"/>
        <pt x="763" y="731" on="0"/>
        <pt x="805" y="736" on="0"/>
        <pt x="825" y="737" on="1"/>
        <pt x="835" y="738" on="0"/>
        <pt x="854" y="739" on="0"/>
        <pt x="861" y="741" on="1"/>
        <pt x="871" y="744" on="0"/>
        <pt x="891" y="751" on="0"/>
        <pt x="905" y="753" on="1"/>
        <pt x="917" y="755" on="0"/>
        <pt x="940" y="762" on="0"/>
        <pt x="948" y="765" on="1"/>
        <pt x="951" y="767" on="0"/>
        <pt x="958" y="768" on="0"/>
      </contour>
    </TTGlyph>
    <TTGlyph name="Ntilde" xMin="-51" yMin="-36" xMax="963" yMax="916">
      <component glyphName="N" x="0" y="0" flags="0x204"/>
      <component glyphName="tilde" x="0" y="215" flags="0x4"/>
    </TTGlyph>
    <TTGlyph name="O" xMin="10" yMin="-41" xMax="802" yMax="775">
      <contour>
        <pt x="645" y="734" on="1"/>
        <pt x="669" y="713" on="0"/>
        <pt x="720" y="676" on="0"/>
        <pt x="737" y="651" on="1"/>
        <pt x="741" y="646" on="0"/>
        <pt x="746" y="634" on="0"/>
        <pt x="750" y="629" on="1"/>
        <pt x="758" y="618" on="0"/>
        <pt x="776" y="592" on="0"/>
        <pt x="780" y="575" on="1"/>
        <pt x="782" y="563" on="0"/>
        <pt x="778" y="536" on="0"/>
        <pt x="780" y="522" on="1"/>
        <pt x="781" y="516" on="0"/>
        <pt x="792" y="509" on="0"/>
        <pt x="794" y="501" on="1"/>
        <pt x="797" y="487" on="0"/>
        <pt x="788" y="459" on="0"/>
        <pt x="790" y="441" on="1"/>
        <pt x="790" y="430" on="0"/>
        <pt x="801" y="415" on="0"/>
        <pt x="801" y="406" on="1"/>
        <pt x="802" y="392" on="0"/>
        <pt x="794" y="365" on="0"/>
        <pt x="792" y="352" on="1"/>
        <pt x="784" y="311" on="0"/>
        <pt x="771" y="253" on="0"/>
        <pt x="755" y="223" on="1"/>
        <pt x="746" y="209" on="0"/>
        <pt x="733" y="179" on="0"/>
        <pt x="725" y="167" on="1"/>
        <pt x="704" y="135" on="0"/>
        <pt x="652" y="82" on="0"/>
        <pt x="631" y="55" on="1"/>
        <pt x="593" y="38" on="0"/>
        <pt x="525" y="6" on="0"/>
        <pt x="482" y="-8" on="1"/>
        <pt x="472" y="-11" on="0"/>
        <pt x="453" y="-19" on="0"/>
        <pt x="442" y="-22" on="1"/>
        <pt x="429" y="-25" on="0"/>
        <pt x="401" y="-27" on="0"/>
        <pt x="387" y="-29" on="1"/>
        <pt x="377" y="-31" on="0"/>
        <pt x="357" y="-38" on="0"/>
        <pt x="346" y="-39" on="1"/>
        <pt x="335" y="-41" on="0"/>
        <pt x="316" y="-35" on="0"/>
        <pt x="305" y="-33" on="1"/>
        <pt x="297" y="-31" on="0"/>
        <pt x="278" y="-34" on="0"/>
        <pt x="270" y="-33" on="1"/>
        <pt x="265" y="-32" on="0"/>
        <pt x="255" y="-25" on="0"/>
        <pt x="248" y="-22" on="1"/>
        <pt x="242" y="-19" on="0"/>
        <pt x="227" y="-17" on="0"/>
        <pt x="221" y="-15" on="1"/>
        <pt x="213" y="-12" on="0"/>
        <pt x="199" y="-3" on="0"/>
        <pt x="191" y="-1" on="1"/>
        <pt x="185" y="1" on="0"/>
        <pt x="173" y="1" on="0"/>
        <pt x="168" y="3" on="1"/>
        <pt x="161" y="5" on="0"/>
        <pt x="150" y="18" on="0"/>
        <pt x="142" y="23" on="1"/>
        <pt x="134" y="28" on="0"/>
        <pt x="118" y="34" on="0"/>
        <pt x="113" y="38" on="1"/>
        <pt x="99" y="48" on="0"/>
        <pt x="70" y="84" on="0"/>
        <pt x="59" y="104" on="1"/>
        <pt x="50" y="122" on="0"/>
        <pt x="25" y="160" on="0"/>
        <pt x="18" y="181" on="1"/>
        <pt x="16" y="193" on="0"/>
        <pt x="14" y="222" on="0"/>
        <pt x="12" y="237" on="1"/>
        <pt x="10" y="266" on="0"/>
        <pt x="11" y="328" on="0"/>
        <pt x="17" y="365" on="1"/>
        <pt x="19" y="376" on="0"/>
        <pt x="29" y="397" on="0"/>
        <pt x="34" y="408" on="1"/>
        <pt x="38" y="419" on="0"/>
        <pt x="45" y="441" on="0"/>
        <pt x="49" y="451" on="1"/>
        <pt x="54" y="460" on="0"/>
        <pt x="72" y="476" on="0"/>
        <pt x="75" y="487" on="1"/>
        <pt x="78" y="498" on="0"/>
        <pt x="71" y="516" on="0"/>
        <pt x="73" y="528" on="1"/>
        <pt x="76" y="552" on="0"/>
        <pt x="115" y="589" on="0"/>
        <pt x="132" y="609" on="1"/>
        <pt x="154" y="633" on="0"/>
        <pt x="194" y="665" on="0"/>
        <pt x="221" y="685" on="1"/>
        <pt x="225" y="687" on="0"/>
        <pt x="238" y="692" on="0"/>
        <pt x="244" y="696" on="1"/>
        <pt x="249" y="700" on="0"/>
        <pt x="259" y="709" on="0"/>
        <pt x="263" y="711" on="1"/>
        <pt x="272" y="713" on="0"/>
        <pt x="291" y="710" on="0"/>
        <pt x="300" y="712" on="1"/>
        <pt x="308" y="714" on="0"/>
        <pt x="323" y="726" on="0"/>
        <pt x="337" y="740" on="0"/>
        <pt x="351" y="754" on="0"/>
        <pt x="358" y="758" on="1"/>
        <pt x="361" y="760" on="0"/>
        <pt x="370" y="761" on="0"/>
        <pt x="374" y="763" on="1"/>
        <pt x="402" y="775" on="0"/>
        <pt x="465" y="768" on="0"/>
        <pt x="497" y="766" on="1"/>
        <pt x="521" y="764" on="0"/>
        <pt x="570" y="761" on="0"/>
        <pt x="591" y="755" on="1"/>
        <pt x="605" y="751" on="0"/>
        <pt x="631" y="736" on="0"/>
      </contour>
      <contour>
        <pt x="469" y="114" on="1"/>
        <pt x="476" y="121" on="0"/>
        <pt x="490" y="144" on="0"/>
        <pt x="498" y="155" on="1"/>
        <pt x="514" y="182" on="0"/>
        <pt x="542" y="239" on="0"/>
        <pt x="556" y="268" on="1"/>
        <pt x="569" y="297" on="0"/>
        <pt x="588" y="362" on="0"/>
        <pt x="599" y="395" on="1"/>
        <pt x="603" y="406" on="0"/>
        <pt x="620" y="432" on="0"/>
        <pt x="620" y="441" on="1"/>
        <pt x="621" y="448" on="0"/>
        <pt x="612" y="461" on="0"/>
        <pt x="611" y="466" on="1"/>
        <pt x="611" y="473" on="0"/>
        <pt x="612" y="484" on="0"/>
        <pt x="611" y="490" on="1"/>
        <pt x="611" y="496" on="0"/>
        <pt x="607" y="506" on="0"/>
        <pt x="605" y="511" on="1"/>
        <pt x="603" y="520" on="0"/>
        <pt x="601" y="540" on="0"/>
        <pt x="601" y="549" on="1"/>
        <pt x="601" y="557" on="0"/>
        <pt x="603" y="572" on="0"/>
        <pt x="602" y="580" on="1"/>
        <pt x="597" y="604" on="0"/>
        <pt x="565" y="639" on="0"/>
        <pt x="549" y="652" on="1"/>
        <pt x="544" y="656" on="0"/>
        <pt x="538" y="665" on="0"/>
        <pt x="534" y="667" on="1"/>
        <pt x="527" y="669" on="0"/>
        <pt x="510" y="671" on="0"/>
        <pt x="504" y="670" on="1"/>
        <pt x="482" y="668" on="0"/>
        <pt x="447" y="653" on="0"/>
        <pt x="425" y="648" on="1"/>
        <pt x="393" y="627" on="0"/>
        <pt x="320" y="573" on="0"/>
        <pt x="297" y="539" on="1"/>
        <pt x="294" y="534" on="0"/>
        <pt x="291" y="524" on="0"/>
        <pt x="288" y="519" on="1"/>
        <pt x="283" y="511" on="0"/>
        <pt x="271" y="500" on="0"/>
        <pt x="266" y="492" on="1"/>
        <pt x="257" y="477" on="0"/>
        <pt x="239" y="441" on="0"/>
        <pt x="236" y="426" on="1"/>
        <pt x="231" y="406" on="0"/>
        <pt x="229" y="360" on="0"/>
        <pt x="226" y="337" on="1"/>
        <pt x="223" y="309" on="0"/>
        <pt x="215" y="256" on="0"/>
        <pt x="217" y="233" on="1"/>
        <pt x="217" y="227" on="0"/>
        <pt x="221" y="214" on="0"/>
        <pt x="222" y="207" on="1"/>
        <pt x="225" y="181" on="0"/>
        <pt x="231" y="145" on="0"/>
        <pt x="244" y="129" on="1"/>
        <pt x="249" y="123" on="0"/>
        <pt x="267" y="114" on="0"/>
        <pt x="273" y="108" on="1"/>
        <pt x="278" y="103" on="0"/>
        <pt x="283" y="93" on="0"/>
        <pt x="288" y="89" on="1"/>
        <pt x="321" y="63" on="0"/>
        <pt x="382" y="63" on="1"/>
        <pt x="401" y="76" on="0"/>
        <pt x="452" y="96" on="0"/>
      </contour>
    </TTGlyph>
</ttFont>
